<svg width="373" height="290" viewBox="0 0 373 290" fill="none" xmlns="http://www.w3.org/2000/svg">
<g clip-path="url(#clip0_11_132)">
<rect y="100.888" width="156" height="91" rx="10" transform="rotate(-17.7863 0 100.888)" fill="white"/>
<rect x="33.4202" y="165.781" width="132" height="7" rx="3.5" transform="rotate(-17.7863 33.4202 165.781)" fill="#CEDFBC" fill-opacity="0.4"/>
<rect x="33.4202" y="165.781" width="66" height="7" rx="3.5" transform="rotate(-17.7863 33.4202 165.781)" fill="#E0533D"/>
<path d="M17.1879 108.263L19.8538 116.573L18.8475 116.896L16.1816 108.586L17.1879 108.263ZM22.4914 118.304L19.7422 109.735L20.6674 109.438L20.985 110.428L21.0986 110.391C21.1342 110.261 21.1873 110.091 21.258 109.884C21.3304 109.673 21.4631 109.463 21.6559 109.255C21.8506 109.043 22.1508 108.872 22.5566 108.742C23.0814 108.574 23.586 108.557 24.0706 108.691C24.5551 108.825 24.9869 109.096 25.3658 109.506C25.7448 109.915 26.0393 110.447 26.2494 111.102C26.4611 111.762 26.5324 112.37 26.4632 112.926C26.3931 113.48 26.2018 113.953 25.8892 114.346C25.5757 114.736 25.1593 115.014 24.6399 115.181C24.2395 115.309 23.8977 115.346 23.6144 115.29C23.3303 115.232 23.096 115.139 22.9115 115.01C22.7261 114.879 22.58 114.767 22.4732 114.676L22.3921 114.702L23.449 117.997L22.4914 118.304ZM21.6833 112.549C21.8343 113.02 22.0365 113.413 22.2899 113.728C22.5424 114.041 22.8337 114.256 23.1639 114.374C23.4932 114.489 23.85 114.485 24.2341 114.362C24.6345 114.234 24.9347 114.021 25.1348 113.724C25.3368 113.424 25.4477 113.072 25.4675 112.669C25.4892 112.262 25.4289 111.837 25.2865 111.393C25.1459 110.955 24.9516 110.582 24.7035 110.273C24.4573 109.961 24.166 109.746 23.8295 109.627C23.4949 109.505 23.1247 109.509 22.7189 109.639C22.3294 109.764 22.0337 109.968 21.832 110.25C21.6294 110.53 21.5168 110.867 21.4944 111.262C21.4711 111.655 21.534 112.084 21.6833 112.549ZM28.4595 109.677L29.6622 113.426L28.7046 113.733L26.0387 105.423L26.9963 105.116L27.9752 108.168L28.0564 108.141C28.0992 107.773 28.2363 107.447 28.4677 107.164C28.7009 106.877 29.0624 106.655 29.552 106.498C29.9767 106.362 30.376 106.328 30.7499 106.396C31.1229 106.461 31.4533 106.64 31.7411 106.933C32.0307 107.222 32.2614 107.634 32.4332 108.169L33.7037 112.13L32.7461 112.437L31.4964 108.542C31.3376 108.047 31.0863 107.705 30.7426 107.517C30.4006 107.325 30.0038 107.302 29.552 107.447C29.2382 107.548 28.9782 107.704 28.7718 107.916C28.5682 108.128 28.4355 108.384 28.3737 108.684C28.3146 108.984 28.3432 109.314 28.4595 109.677ZM38.0292 110.885C37.4666 111.066 36.9299 111.09 36.4193 110.959C35.9114 110.826 35.4612 110.558 35.0687 110.152C34.6789 109.746 34.3807 109.221 34.1741 108.578C33.9659 107.928 33.9017 107.324 33.9817 106.764C34.0645 106.204 34.2739 105.722 34.6099 105.319C34.9487 104.915 35.3995 104.622 35.9621 104.442C36.5248 104.261 37.0601 104.237 37.568 104.37C38.0786 104.501 38.5293 104.771 38.9199 105.18C39.3133 105.588 39.6142 106.116 39.8224 106.766C40.029 107.409 40.0904 108.01 40.0069 108.568C39.926 109.125 39.7162 109.606 39.3774 110.01C39.0413 110.413 38.5919 110.705 38.0292 110.885ZM37.7533 110.025C38.1807 109.888 38.4972 109.666 38.7028 109.358C38.9085 109.05 39.0203 108.697 39.0383 108.297C39.0563 107.898 38.9985 107.489 38.8648 107.073C38.7312 106.656 38.5404 106.289 38.2924 105.972C38.0444 105.655 37.7469 105.43 37.3998 105.296C37.0527 105.163 36.6655 105.165 36.2381 105.302C35.8107 105.439 35.4946 105.663 35.2898 105.973C35.0851 106.283 34.9741 106.64 34.957 107.042C34.9399 107.444 34.9981 107.854 35.1317 108.27C35.2654 108.687 35.4558 109.053 35.7029 109.367C35.95 109.682 36.2466 109.904 36.5928 110.035C36.9391 110.165 37.3259 110.162 37.7533 110.025ZM42.0283 105.324L43.2311 109.073L42.2735 109.381L40.2741 103.148L41.1992 102.851L41.5116 103.825L41.5928 103.799C41.6373 103.436 41.7776 103.11 42.0135 102.823C42.2486 102.532 42.6015 102.312 43.0722 102.161C43.4942 102.025 43.8912 101.994 44.2633 102.065C44.6344 102.134 44.9639 102.315 45.2517 102.607C45.5386 102.897 45.7671 103.307 45.9372 103.837L47.2076 107.798L46.25 108.105L45.0004 104.21C44.8433 103.72 44.5938 103.379 44.2519 103.188C43.9091 102.993 43.5159 102.967 43.0722 103.11C42.7666 103.208 42.5146 103.362 42.3164 103.571C42.1208 103.78 41.9949 104.034 41.9385 104.333C41.8821 104.631 41.9121 104.962 42.0283 105.324ZM51.6123 106.528C51.0118 106.721 50.4512 106.754 49.9307 106.629C49.4119 106.5 48.9581 106.234 48.5691 105.83C48.182 105.423 47.8861 104.901 47.6813 104.262C47.4765 103.624 47.4123 103.024 47.4887 102.462C47.567 101.897 47.772 101.411 48.1036 101.003C48.4371 100.592 48.8852 100.296 49.4478 100.116C49.7724 100.011 50.1104 99.9626 50.4616 99.9693C50.8128 99.976 51.1573 100.059 51.4951 100.22C51.832 100.377 52.1413 100.63 52.4231 100.978C52.7049 101.326 52.939 101.791 53.1256 102.373L53.2558 102.778L48.4515 104.32L48.1859 103.492L52.0164 102.263C51.9036 101.911 51.7326 101.62 51.5034 101.389C51.2769 101.158 51.0096 101.003 50.7014 100.926C50.3959 100.848 50.07 100.865 49.7238 100.976C49.3424 101.098 49.0427 101.299 48.8248 101.577C48.6088 101.853 48.4745 102.164 48.4221 102.512C48.3696 102.86 48.3985 103.206 48.5087 103.549L48.6858 104.101C48.8367 104.572 49.0459 104.945 49.3132 105.22C49.5824 105.492 49.8904 105.666 50.2372 105.743C50.5831 105.817 50.9495 105.792 51.3364 105.668C51.5879 105.587 51.8039 105.479 51.9842 105.343C52.1664 105.204 52.3088 105.039 52.4116 104.848C52.5135 104.655 52.5704 104.436 52.5821 104.194L53.5906 104.157C53.5938 104.502 53.5187 104.83 53.3651 105.142C53.2107 105.451 52.9857 105.726 52.69 105.967C52.3936 106.206 52.0343 106.392 51.6123 106.528ZM59.0611 94.8297L61.727 103.14L60.7207 103.463L58.3933 96.2075L58.3446 96.2232L56.7479 98.2212L56.4199 97.1986L58.0548 95.1525L59.0611 94.8297ZM66.9614 101.586C66.4258 101.758 65.9188 101.819 65.4405 101.77C64.9649 101.719 64.5515 101.57 64.2003 101.322C63.851 101.07 63.5957 100.729 63.4343 100.301L64.4568 99.9728C64.5644 100.234 64.7306 100.435 64.9554 100.578C65.1793 100.718 65.4394 100.799 65.7356 100.82C66.0318 100.841 66.3396 100.801 66.6588 100.698C67.0158 100.584 67.3124 100.42 67.5484 100.207C67.7844 99.9943 67.9453 99.7517 68.031 99.4796C68.1167 99.2074 68.1127 98.9253 68.019 98.6331C67.921 98.3274 67.7589 98.0826 67.5328 97.8985C67.3058 97.7118 67.0249 97.599 66.6903 97.5602C66.3556 97.5213 65.9772 97.5696 65.5553 97.705L64.8898 97.9185L64.6034 97.0258L65.2689 96.8123C65.5989 96.7064 65.8693 96.5541 66.0799 96.3552C66.2933 96.1555 66.4357 95.9248 66.5069 95.6633C66.5808 95.4009 66.571 95.1236 66.4772 94.8315C66.387 94.5501 66.2462 94.3253 66.055 94.1569C65.8637 93.9885 65.6358 93.8826 65.3713 93.8392C65.1094 93.7949 64.8257 93.8218 64.52 93.9199C64.2332 94.0119 63.9797 94.1514 63.7592 94.3385C63.5406 94.522 63.3832 94.738 63.2869 94.9867C63.1898 95.2327 63.1788 95.4958 63.2537 95.7761L62.2799 96.0885C62.1564 95.6477 62.1653 95.2242 62.3064 94.8179C62.4467 94.4089 62.6862 94.0487 63.0248 93.7372C63.3662 93.4248 63.7762 93.1918 64.255 93.0382C64.769 92.8733 65.2434 92.836 65.6781 92.9263C66.1119 93.0139 66.4818 93.195 66.7878 93.4698C67.0937 93.7446 67.3096 94.0781 67.4355 94.4704C67.5856 94.9384 67.5905 95.3768 67.4502 95.7858C67.3126 96.194 67.0546 96.5289 66.6761 96.7905L66.6969 96.8554C67.2495 96.7736 67.7309 96.8653 68.1412 97.1305C68.5506 97.393 68.8399 97.788 69.0091 98.3155C69.154 98.7673 69.1611 99.2125 69.0304 99.6513C68.9015 100.086 68.659 100.475 68.3029 100.815C67.9469 101.156 67.4997 101.413 66.9614 101.586ZM72.0863 90.6512L73.2874 90.2659L78.3244 96.258L78.4218 96.2268L79.033 88.4227L80.2341 88.0374L82.9 96.3475L81.9586 96.6495L79.9332 90.3358L79.852 90.3618L79.2806 97.5087L78.3717 97.8002L73.7493 92.3196L73.6681 92.3456L75.6936 98.6594L74.7522 98.9614L72.0863 90.6512ZM84.7879 95.7419L82.7884 89.5093L83.746 89.2021L85.7455 95.4347L84.7879 95.7419ZM82.9421 88.3143C82.7555 88.3742 82.5741 88.3623 82.3981 88.2785C82.2247 88.1939 82.1094 88.0623 82.0522 87.8838C81.9949 87.7053 82.0121 87.5312 82.1039 87.3615C82.1984 87.191 82.3389 87.0758 82.5256 87.0159C82.7122 86.956 82.8922 86.9684 83.0656 87.053C83.2416 87.1367 83.3583 87.2679 83.4155 87.4464C83.4728 87.625 83.4542 87.7995 83.3597 87.97C83.268 88.1397 83.1288 88.2545 82.9421 88.3143ZM87.2542 90.8155L88.457 94.5648L87.4994 94.872L85.5 88.6394L86.4251 88.3427L86.7375 89.3165L86.8187 89.2905C86.8632 88.9271 87.0035 88.6017 87.2394 88.3141C87.4745 88.0239 87.8274 87.8033 88.2981 87.6523C88.7201 87.5169 89.1171 87.485 89.4891 87.5566C89.8603 87.6255 90.1898 87.8062 90.4776 88.0988C90.7645 88.3886 90.993 88.7987 91.1631 89.3289L92.4335 93.2892L91.4759 93.5964L90.2263 89.701C90.0692 89.2114 89.8197 88.8707 89.4778 88.6791C89.135 88.4847 88.7418 88.4587 88.2981 88.601C87.9925 88.6991 87.7405 88.853 87.5423 89.0628C87.3467 89.2717 87.2208 89.5255 87.1644 89.824C87.108 90.1225 87.138 90.4531 87.2542 90.8155ZM94.1834 92.7278L92.184 86.4952L93.1416 86.188L95.141 92.4206L94.1834 92.7278ZM92.3377 85.3002C92.151 85.3601 91.9697 85.3482 91.7936 85.2644C91.6203 85.1798 91.505 85.0482 91.4477 84.8697C91.3904 84.6912 91.4077 84.5171 91.4994 84.3474C91.5939 84.1769 91.7345 84.0617 91.9211 84.0018C92.1078 83.9419 92.2878 83.9543 92.4611 84.0389C92.6372 84.1226 92.7538 84.2538 92.8111 84.4323C92.8684 84.6109 92.8498 84.7854 92.7553 84.9559C92.6635 85.1256 92.5243 85.2404 92.3377 85.3002Z" fill="#707070"/>
<path d="M30.783 141.899L26.3399 128.049L27.2271 127.765L31.6703 141.615L30.783 141.899ZM30.3204 131.659C30.1183 131.203 29.7875 130.903 29.3279 130.76C28.8719 130.616 28.3464 130.64 27.7512 130.831C27.3329 130.965 26.9942 131.143 26.7354 131.365C26.4765 131.588 26.3024 131.832 26.2131 132.1C26.1239 132.367 26.122 132.64 26.2075 132.919C26.2815 133.15 26.398 133.333 26.557 133.469C26.7196 133.604 26.912 133.701 27.1341 133.761C27.3551 133.818 27.5901 133.85 27.8392 133.857C28.0882 133.865 28.3351 133.859 28.5797 133.841L29.7017 133.767C30.1514 133.73 30.5958 133.733 31.0349 133.775C31.4777 133.816 31.8929 133.914 32.2804 134.068C32.6716 134.221 33.0146 134.447 33.3095 134.746C33.6044 135.045 33.8288 135.435 33.9827 135.914C34.191 136.564 34.2085 137.188 34.0352 137.789C33.8607 138.386 33.5042 138.924 32.9657 139.403C32.4297 139.877 31.718 140.257 30.8307 140.542C29.9687 140.818 29.1775 140.925 28.4571 140.861C27.7402 140.797 27.1211 140.566 26.5998 140.168C26.082 139.77 25.6906 139.207 25.4257 138.48L27.4005 137.847C27.5531 138.224 27.7752 138.506 28.0665 138.695C28.3578 138.884 28.6915 138.988 29.0674 139.007C29.447 139.024 29.8459 138.966 30.2643 138.832C30.7007 138.692 31.0622 138.504 31.3488 138.269C31.6378 138.029 31.8385 137.762 31.9508 137.467C32.062 137.169 32.0685 136.861 31.9703 136.542C31.8741 136.255 31.713 136.044 31.4869 135.909C31.2597 135.772 30.9761 135.687 30.6363 135.657C30.2989 135.622 29.9156 135.618 29.4864 135.644L28.1217 135.724C27.134 135.782 26.2986 135.658 25.6157 135.352C24.9352 135.042 24.4677 134.49 24.2131 133.696C24.0037 133.043 23.997 132.415 24.1931 131.811C24.3929 131.206 24.7559 130.67 25.2823 130.202C25.8075 129.732 26.4578 129.372 27.2333 129.123C28.0196 128.871 28.7525 128.787 29.4319 128.871C30.1138 128.951 30.7018 129.178 31.1959 129.552C31.6889 129.923 32.0408 130.419 32.2518 131.04L30.3204 131.659ZM40.7682 137.336C40.2368 137.502 39.6898 137.576 39.1269 137.558C38.563 137.536 38.0131 137.384 37.4772 137.103C36.9402 136.817 36.4427 136.37 35.9848 135.761C35.5258 135.149 35.1349 134.333 34.8122 133.315C34.5079 132.367 34.3375 131.488 34.3012 130.681C34.2648 129.873 34.3538 129.152 34.5682 128.518C34.7815 127.881 35.1116 127.342 35.5587 126.9C36.0093 126.457 36.5664 126.129 37.2301 125.916C37.9262 125.693 38.5869 125.632 39.2123 125.734C39.8413 125.834 40.398 126.069 40.8826 126.439C41.366 126.805 41.7428 127.273 42.0131 127.843L40.0384 128.476C39.8008 128.083 39.4847 127.81 39.0899 127.659C38.6975 127.502 38.2633 127.5 37.7872 127.653C37.019 127.899 36.5345 128.423 36.3338 129.223C36.1366 130.022 36.2231 131.005 36.5933 132.171L36.669 132.147C36.7439 131.773 36.8856 131.427 37.094 131.109C37.3025 130.792 37.5637 130.515 37.8779 130.279C38.1945 130.038 38.5511 129.854 38.9479 129.727C39.5971 129.519 40.2294 129.487 40.8446 129.632C41.4635 129.775 42.0118 130.071 42.4895 130.518C42.9661 130.962 43.3148 131.534 43.5356 132.235C43.773 132.963 43.817 133.67 43.6679 134.359C43.5176 135.043 43.1963 135.648 42.704 136.172C42.2117 136.696 41.5665 137.084 40.7682 137.336ZM40.2367 135.716C40.6298 135.59 40.9508 135.382 41.1997 135.091C41.4486 134.8 41.6111 134.464 41.6873 134.081C41.7635 133.699 41.735 133.306 41.6018 132.903C41.4781 132.505 41.2765 132.174 40.9967 131.91C40.7206 131.644 40.3992 131.467 40.0325 131.378C39.6657 131.289 39.2858 131.307 38.8926 131.433C38.6005 131.527 38.3461 131.67 38.1295 131.863C37.9129 132.056 37.7426 132.282 37.6187 132.54C37.4936 132.795 37.4186 133.07 37.3937 133.364C37.3713 133.654 37.4051 133.945 37.4952 134.239C37.6227 134.623 37.8268 134.95 38.1077 135.218C38.3885 135.486 38.7153 135.667 39.088 135.762C39.4606 135.858 39.8436 135.842 40.2367 135.716ZM46.7846 122.851C47.3159 122.685 47.8618 122.613 48.4222 122.636C48.985 122.654 49.5343 122.804 50.0702 123.086C50.6049 123.364 51.1012 123.807 51.5591 124.416C52.017 125.025 52.4079 125.835 52.7319 126.844C53.041 127.796 53.2131 128.679 53.2481 129.495C53.2857 130.307 53.1978 131.031 52.9846 131.668C52.7713 132.306 52.4412 132.845 51.9941 133.287C51.5471 133.729 50.99 134.057 50.3227 134.271C49.623 134.495 48.9586 134.557 48.3297 134.456C47.7043 134.355 47.1493 134.119 46.6648 133.749C46.1802 133.38 45.8017 132.9 45.5293 132.312L47.504 131.678C47.7462 132.086 48.064 132.37 48.4575 132.53C48.8534 132.685 49.2895 132.687 49.7656 132.534C50.5338 132.287 51.0183 131.764 51.219 130.964C51.4198 130.163 51.3298 129.17 50.9491 127.983L50.8734 128.008C50.7984 128.382 50.6573 128.729 50.4501 129.05C50.2416 129.368 49.9785 129.645 49.6608 129.882C49.3467 130.118 48.9912 130.3 48.5945 130.427C47.9453 130.636 47.3112 130.668 46.6923 130.524C46.077 130.38 45.5311 130.085 45.0546 129.642C44.5817 129.197 44.2317 128.627 44.0048 127.932C43.7734 127.21 43.7316 126.51 43.8795 125.83C44.0298 125.145 44.3511 124.541 44.8433 124.017C45.3345 123.489 45.9815 123.101 46.7846 122.851ZM47.3107 124.472C46.9211 124.597 46.6001 124.806 46.3477 125.098C46.0976 125.385 45.9345 125.719 45.8583 126.102C45.7846 126.48 45.8113 126.867 45.9386 127.263C46.0683 127.655 46.2713 127.984 46.5474 128.25C46.8271 128.514 47.1485 128.691 47.5116 128.782C47.8784 128.871 48.2583 128.852 48.6515 128.726C48.9436 128.633 49.198 128.489 49.4146 128.297C49.6312 128.104 49.8015 127.878 49.9254 127.619C50.0518 127.356 50.1262 127.08 50.1486 126.79C50.1747 126.499 50.1402 126.212 50.0452 125.928C49.9237 125.549 49.7213 125.229 49.438 124.965C49.1583 124.701 48.8321 124.521 48.4594 124.426C48.0903 124.33 47.7074 124.345 47.3107 124.472ZM56.6637 119.682C57.195 119.515 57.7409 119.444 58.3013 119.467C58.8641 119.485 59.4134 119.635 59.9493 119.917C60.484 120.195 60.9803 120.638 61.4382 121.247C61.8961 121.856 62.287 122.665 62.611 123.675C62.9201 124.626 63.0922 125.51 63.1272 126.326C63.1648 127.137 63.0769 127.862 62.8637 128.499C62.6504 129.136 62.3203 129.676 61.8732 130.118C61.4262 130.559 60.8691 130.887 60.2018 131.101C59.5021 131.326 58.8377 131.388 58.2088 131.287C57.5834 131.186 57.0284 130.95 56.5439 130.58C56.0593 130.211 55.6808 129.731 55.4084 129.142L57.3831 128.509C57.6253 128.917 57.9431 129.2 58.3366 129.361C58.7325 129.516 59.1686 129.517 59.6447 129.365C60.4129 129.118 60.8974 128.595 61.0981 127.794C61.2989 126.994 61.2089 126.001 60.8282 124.814L60.7525 124.838C60.6775 125.212 60.5364 125.56 60.3292 125.881C60.1207 126.199 59.8576 126.476 59.5399 126.713C59.2258 126.949 58.8703 127.131 58.4736 127.258C57.8244 127.466 57.1903 127.499 56.5714 127.355C55.9561 127.21 55.4102 126.916 54.9337 126.472C54.4608 126.027 54.1108 125.457 53.8839 124.762C53.6525 124.041 53.6107 123.34 53.7586 122.66C53.9089 121.976 54.2302 121.371 54.7224 120.848C55.2136 120.32 55.8606 119.931 56.6637 119.682ZM57.1898 121.303C56.8002 121.428 56.4792 121.636 56.2268 121.928C55.9767 122.215 55.8136 122.55 55.7374 122.933C55.6637 123.31 55.6904 123.698 55.8177 124.094C55.9474 124.486 56.1504 124.815 56.4265 125.08C56.7062 125.345 57.0276 125.522 57.3907 125.612C57.7575 125.702 58.1374 125.683 58.5306 125.557C58.8227 125.463 59.0771 125.32 59.2937 125.127C59.5103 124.934 59.6806 124.709 59.8045 124.45C59.9309 124.187 60.0053 123.91 60.0277 123.621C60.0538 123.33 60.0193 123.043 59.9243 122.759C59.8028 122.38 59.6004 122.059 59.3171 121.796C59.0374 121.532 58.7112 121.352 58.3385 121.257C57.9694 121.16 57.5865 121.176 57.1898 121.303Z" fill="#242424"/>
<path d="M130.398 73.0587L137.894 76.9129C138.385 77.1655 138.578 77.7684 138.326 78.2595L134.471 85.7547" stroke="#242424" stroke-width="2" stroke-linecap="round" stroke-linejoin="round"/>
</g>
<g clip-path="url(#clip1_11_132)">
<rect x="163.779" y="48.3474" width="156" height="91" rx="10" transform="rotate(-17.7863 163.779 48.3474)" fill="white"/>
<path d="M179.96 56.045L181.161 55.6597L186.199 61.6518L186.296 61.6205L186.907 53.8165L188.108 53.4312L190.774 61.7413L189.833 62.0433L187.807 55.7295L187.726 55.7556L187.155 62.9024L186.246 63.194L181.623 57.7133L181.542 57.7394L183.568 64.0531L182.626 64.3551L179.96 56.045ZM194.543 60.6934C194.148 60.8201 193.766 60.8607 193.396 60.8152C193.026 60.7669 192.7 60.6312 192.42 60.4079C192.138 60.1819 191.932 59.866 191.802 59.4602C191.688 59.1032 191.665 58.7912 191.735 58.5242C191.803 58.2546 191.935 58.0184 192.129 57.8158C192.324 57.6131 192.553 57.4352 192.817 57.2818C193.083 57.1249 193.355 56.9811 193.632 56.8504C193.995 56.6802 194.291 56.5452 194.518 56.4453C194.748 56.3419 194.906 56.2417 194.995 56.1448C195.086 56.047 195.106 55.921 195.057 55.7668L195.046 55.7343C194.918 55.334 194.709 55.058 194.418 54.9065C194.131 54.7541 193.767 54.7486 193.326 54.8901C192.868 55.0368 192.542 55.2518 192.347 55.5353C192.151 55.8188 192.037 56.0911 192.005 56.3522L190.992 56.3191C191.032 55.8883 191.154 55.5241 191.357 55.2263C191.562 54.9249 191.811 54.6807 192.106 54.4936C192.403 54.3029 192.709 54.1572 193.022 54.0565C193.223 53.9923 193.46 53.9429 193.736 53.9083C194.013 53.8701 194.297 53.885 194.587 53.9529C194.88 54.02 195.155 54.175 195.412 54.4178C195.669 54.6606 195.877 55.0295 196.035 55.5245L197.353 59.6309L196.395 59.9381L196.124 59.0941L196.076 59.1097C196.054 59.2658 195.992 59.4452 195.89 59.648C195.788 59.8508 195.629 60.0467 195.412 60.2356C195.195 60.4245 194.905 60.5771 194.543 60.6934ZM194.413 59.7863C194.792 59.6648 195.087 59.488 195.299 59.2559C195.514 59.023 195.65 58.7675 195.707 58.4897C195.766 58.2109 195.755 57.9417 195.671 57.682L195.39 56.8056C195.365 56.8673 195.29 56.9406 195.165 57.0254C195.042 57.1067 194.896 57.1908 194.727 57.2778C194.56 57.3613 194.396 57.4407 194.235 57.5162C194.076 57.5881 193.948 57.6472 193.849 57.6937C193.611 57.806 193.395 57.9334 193.202 58.0759C193.011 58.2148 192.872 58.3772 192.785 58.5631C192.701 58.7454 192.697 58.9583 192.776 59.2017C192.882 59.5345 193.086 59.7466 193.387 59.838C193.69 59.9259 194.032 59.9086 194.413 59.7863ZM201.674 58.3878C201.09 58.5752 200.542 58.5987 200.032 58.4581C199.521 58.3176 199.075 58.0416 198.692 57.6303C198.31 57.219 198.019 56.7023 197.819 56.0801C197.616 55.4471 197.553 54.8512 197.63 54.2923C197.71 53.7299 197.915 53.2448 198.247 52.8371C198.58 52.4258 199.028 52.1299 199.591 51.9494C200.029 51.8088 200.45 51.7632 200.854 51.8127C201.257 51.8622 201.618 51.997 201.937 52.2172C202.255 52.4373 202.504 52.7334 202.683 53.1056L201.725 53.4128C201.561 53.1522 201.318 52.9527 200.996 52.8143C200.676 52.6723 200.305 52.669 199.883 52.8044C199.51 52.9242 199.214 53.1265 198.995 53.4116C198.778 53.693 198.647 54.0347 198.603 54.4367C198.561 54.8352 198.615 55.2697 198.766 55.7404C198.921 56.2219 199.131 56.6169 199.397 56.9254C199.666 57.233 199.971 57.4409 200.313 57.5489C200.658 57.6562 201.019 57.649 201.398 57.5275C201.647 57.4477 201.859 57.332 202.034 57.1803C202.209 57.0287 202.341 56.8491 202.43 56.6417C202.518 56.4343 202.556 56.2074 202.543 55.9611L203.5 55.6538C203.564 56.0391 203.536 56.4134 203.417 56.7768C203.3 57.1367 203.095 57.4591 202.801 57.7442C202.51 58.0257 202.134 58.2402 201.674 58.3878ZM205.613 56.9809L202.947 48.6708L203.905 48.3636L204.889 51.4312L204.97 51.4052C205.006 51.2744 205.059 51.1052 205.129 50.8976C205.202 50.6864 205.335 50.4767 205.527 50.2687C205.722 50.0571 206.022 49.8862 206.428 49.756C206.953 49.5876 207.457 49.5704 207.942 49.7044C208.427 49.8384 208.858 50.1101 209.237 50.5196C209.616 50.9291 209.911 51.4611 210.121 52.1158C210.333 52.7758 210.404 53.384 210.335 53.9402C210.265 54.4937 210.073 54.9668 209.761 55.3595C209.447 55.7495 209.031 56.0278 208.511 56.1944C208.111 56.3228 207.769 56.3594 207.486 56.3041C207.202 56.246 206.967 56.1527 206.783 56.0239C206.597 55.8924 206.451 55.7811 206.345 55.6901L206.231 55.7265L206.538 56.6842L205.613 56.9809ZM205.555 53.5627C205.706 54.0333 205.908 54.4264 206.161 54.742C206.414 55.0548 206.705 55.2701 207.035 55.388C207.365 55.5031 207.721 55.499 208.106 55.3758C208.506 55.2474 208.806 55.0347 209.006 54.7378C209.208 54.4373 209.319 54.0855 209.339 53.6823C209.361 53.2756 209.3 52.8504 209.158 52.4067C209.017 51.9685 208.823 51.5953 208.575 51.287C208.329 50.9751 208.037 50.7598 207.701 50.641C207.366 50.5186 206.996 50.5225 206.59 50.6527C206.201 50.7776 205.905 50.9814 205.703 51.2639C205.501 51.5437 205.388 51.8811 205.366 52.2762C205.343 52.6686 205.405 53.0974 205.555 53.5627ZM215.154 54.0635C214.591 54.244 214.054 54.2685 213.544 54.1369C213.036 54.0045 212.586 53.7357 212.193 53.3305C211.803 52.9245 211.505 52.3996 211.299 51.7558C211.09 51.1066 211.026 50.5021 211.106 49.9424C211.189 49.3818 211.398 48.8999 211.734 48.4967C212.073 48.0927 212.524 47.8004 213.087 47.6199C213.649 47.4394 214.185 47.4154 214.693 47.5478C215.203 47.6793 215.654 47.9495 216.044 48.3582C216.438 48.7661 216.739 49.2946 216.947 49.9438C217.153 50.5876 217.215 51.1885 217.131 51.7464C217.051 52.3034 216.841 52.7839 216.502 53.188C216.166 53.5911 215.716 53.883 215.154 54.0635ZM214.878 53.2033C215.305 53.0661 215.622 52.8438 215.827 52.5361C216.033 52.2285 216.145 51.8749 216.163 51.4753C216.181 51.0757 216.123 50.6676 215.989 50.251C215.856 49.8344 215.665 49.4675 215.417 49.1503C215.169 48.833 214.871 48.6077 214.524 48.4744C214.177 48.3411 213.79 48.343 213.363 48.4801C212.935 48.6172 212.619 48.841 212.414 49.1513C212.21 49.4616 212.099 49.818 212.082 50.2203C212.064 50.6226 212.123 51.032 212.256 51.4486C212.39 51.8652 212.58 52.2308 212.827 52.5453C213.074 52.8599 213.371 53.0824 213.717 53.213C214.064 53.3436 214.45 53.3404 214.878 53.2033ZM221.972 51.8763C221.409 52.0568 220.872 52.0813 220.362 51.9497C219.854 51.8173 219.404 51.5485 219.011 51.1433C218.621 50.7373 218.323 50.2124 218.117 49.5686C217.908 48.9194 217.844 48.3149 217.924 47.7552C218.007 47.1946 218.216 46.7127 218.552 46.3095C218.891 45.9055 219.342 45.6132 219.905 45.4327C220.467 45.2522 221.003 45.2282 221.51 45.3606C222.021 45.4921 222.472 45.7623 222.862 46.171C223.256 46.5789 223.557 47.1074 223.765 47.7566C223.971 48.4004 224.033 49.0013 223.949 49.5592C223.868 50.1162 223.659 50.5967 223.32 51.0008C222.984 51.4039 222.534 51.6958 221.972 51.8763ZM221.696 51.0161C222.123 50.879 222.44 50.6566 222.645 50.349C222.851 50.0413 222.963 49.6877 222.981 49.2881C222.999 48.8885 222.941 48.4804 222.807 48.0638C222.674 47.6472 222.483 47.2803 222.235 46.9631C221.987 46.6458 221.689 46.4205 221.342 46.2872C220.995 46.1539 220.608 46.1558 220.181 46.2929C219.753 46.43 219.437 46.6538 219.232 46.9641C219.028 47.2744 218.917 47.6308 218.899 48.0331C218.882 48.4354 218.941 48.8448 219.074 49.2614C219.208 49.678 219.398 50.0436 219.645 50.3581C219.892 50.6727 220.189 50.8952 220.535 51.0258C220.881 51.1564 221.268 51.1532 221.696 51.0161ZM226.38 47.8128L225.983 46.6332L226.178 46.5707L228.015 42.9205L229.199 42.5404L227.236 46.4102L227.155 46.4362L226.38 47.8128ZM226.216 50.3715L223.55 42.0614L224.508 41.7542L227.174 50.0643L226.216 50.3715ZM230.176 49.1011L226.752 46.7982L227.221 45.9141L231.394 48.7105L230.176 49.1011ZM235.775 47.305L233.109 38.9949L235.917 38.0941C236.569 37.885 237.139 37.8317 237.629 37.9343C238.12 38.0333 238.53 38.2495 238.857 38.5829C239.185 38.9163 239.427 39.3279 239.584 39.8175C239.742 40.3071 239.784 40.7842 239.712 41.2488C239.643 41.7125 239.44 42.1298 239.103 42.5006C238.764 42.8687 238.272 43.1565 237.625 43.3639L235.613 44.0095L235.326 43.1168L237.306 42.4816C237.753 42.3384 238.086 42.1463 238.308 41.9054C238.529 41.6644 238.658 41.3932 238.695 41.0917C238.735 40.7867 238.701 40.4678 238.594 40.1351C238.488 39.8024 238.33 39.5248 238.121 39.3023C237.915 39.079 237.652 38.9367 237.331 38.8756C237.009 38.8117 236.623 38.8523 236.171 38.9972L234.402 39.5648L236.781 46.9822L235.775 47.305ZM242.898 45.0199L240.899 38.7873L241.824 38.4905L242.126 39.4319L242.191 39.411C242.205 39.0662 242.331 38.75 242.567 38.4625C242.803 38.175 243.107 37.9713 243.481 37.8516C243.551 37.829 243.639 37.8022 243.746 37.771C243.852 37.7399 243.933 37.7184 243.989 37.7064L244.301 38.6803C244.266 38.6825 244.188 38.6942 244.066 38.7153C243.947 38.7328 243.823 38.762 243.696 38.8028C243.393 38.9 243.143 39.0503 242.946 39.2538C242.75 39.4538 242.619 39.6868 242.553 39.9528C242.488 40.2154 242.5 40.4873 242.59 40.7686L243.856 44.7127L242.898 45.0199ZM249.533 43.0344C248.971 43.2149 248.434 43.2394 247.924 43.1079C247.416 42.9754 246.965 42.7066 246.573 42.3015C246.183 41.8955 245.885 41.3706 245.678 40.7267C245.47 40.0775 245.406 39.473 245.486 38.9133C245.569 38.3527 245.778 37.8709 246.114 37.4677C246.453 37.0636 246.904 36.7713 247.466 36.5908C248.029 36.4103 248.564 36.3863 249.072 36.5187C249.583 36.6503 250.033 36.9204 250.424 37.3291C250.818 37.737 251.118 38.2655 251.327 38.9148C251.533 39.5586 251.595 40.1594 251.511 40.7173C251.43 41.2743 251.22 41.7549 250.882 42.1589C250.546 42.5621 250.096 42.8539 249.533 43.0344ZM249.258 42.1742C249.685 42.0371 250.001 41.8147 250.207 41.5071C250.413 41.1995 250.525 40.8459 250.543 40.4463C250.561 40.0467 250.503 39.6386 250.369 39.222C250.235 38.8054 250.045 38.4385 249.797 38.1212C249.549 37.8039 249.251 37.5787 248.904 37.4454C248.557 37.3121 248.17 37.314 247.742 37.4511C247.315 37.5882 246.999 37.8119 246.794 38.1222C246.589 38.4326 246.478 38.7889 246.461 39.1912C246.444 39.5935 246.502 40.003 246.636 40.4195C246.77 40.8361 246.96 41.2017 247.207 41.5163C247.454 41.8308 247.751 42.0534 248.097 42.184C248.443 42.3146 248.83 42.3113 249.258 42.1742ZM254.455 32.1469L255.656 31.7616L260.693 37.7537L260.791 37.7224L261.402 29.9184L262.603 29.5331L265.269 37.8432L264.328 38.1452L262.302 31.8315L262.221 31.8575L261.65 39.0044L260.741 39.2959L256.118 33.8153L256.037 33.8413L258.063 40.1551L257.121 40.4571L254.455 32.1469ZM267.396 27.9955L270.062 36.3056L269.056 36.6284L266.728 29.3733L266.68 29.3889L265.083 31.3869L264.755 30.3644L266.39 28.3183L267.396 27.9955Z" fill="#707070"/>
<path d="M194.562 89.3589L190.119 75.5087L191.006 75.224L195.449 89.0742L194.562 89.3589ZM194.099 79.1187C193.897 78.6624 193.566 78.3628 193.107 78.2198C192.651 78.0757 192.125 78.0991 191.53 78.29C191.112 78.4242 190.773 78.6025 190.514 78.8248C190.255 79.047 190.081 79.2918 189.992 79.5592C189.903 79.8265 189.901 80.0996 189.986 80.3785C190.06 80.6093 190.177 80.7927 190.336 80.9287C190.499 81.0635 190.691 81.1609 190.913 81.2209C191.134 81.2773 191.369 81.3093 191.618 81.3169C191.867 81.3245 192.114 81.319 192.359 81.3002L193.481 81.2266C193.93 81.1898 194.375 81.1924 194.814 81.2345C195.257 81.2755 195.672 81.373 196.059 81.5271C196.451 81.6801 196.794 81.9062 197.088 82.2054C197.383 82.5046 197.608 82.8941 197.762 83.3738C197.97 84.023 197.987 84.648 197.814 85.2485C197.64 85.8455 197.283 86.3835 196.745 86.8626C196.209 87.3369 195.497 87.7164 194.61 88.001C193.748 88.2775 192.956 88.3842 192.236 88.3209C191.519 88.2565 190.9 88.0255 190.379 87.6279C189.861 87.2291 189.47 86.6664 189.205 85.9399L191.179 85.3064C191.332 85.6831 191.554 85.9659 191.845 86.1549C192.137 86.3438 192.47 86.4476 192.846 86.4663C193.226 86.4837 193.625 86.4254 194.043 86.2912C194.48 86.1511 194.841 85.9636 195.128 85.7284C195.417 85.4885 195.617 85.2213 195.73 84.9267C195.841 84.6284 195.847 84.3201 195.749 84.0015C195.653 83.7141 195.492 83.5032 195.266 83.3689C195.039 83.231 194.755 83.1469 194.415 83.1167C194.078 83.0817 193.695 83.0774 193.265 83.1037L191.901 83.1835C190.913 83.2418 190.078 83.1179 189.395 82.8119C188.714 82.5011 188.247 81.949 187.992 81.1555C187.783 80.5027 187.776 79.8743 187.972 79.2704C188.172 78.6653 188.535 78.1291 189.061 77.6619C189.586 77.1911 190.237 76.8313 191.012 76.5825C191.799 76.3303 192.531 76.2463 193.211 76.3307C193.893 76.4103 194.481 76.6374 194.975 77.0119C195.468 77.3829 195.82 77.8786 196.031 78.4991L194.099 79.1187ZM201.393 73.4194L204.948 84.4996L202.94 85.1435L200.012 76.0164L199.947 76.0373L197.887 78.5242L197.297 76.6847L199.483 74.0321L201.393 73.4194ZM208.986 81.5333L209.107 82.151C209.202 82.6217 209.26 83.1123 209.28 83.6228C209.306 84.1358 209.312 84.6132 209.298 85.0551C209.285 85.497 209.271 85.8454 209.258 86.1004L207.938 86.5239C207.917 86.2877 207.89 85.9664 207.855 85.5599C207.824 85.1522 207.774 84.6989 207.705 84.1997C207.637 83.7006 207.539 83.203 207.411 82.7068L207.255 82.0887L208.986 81.5333ZM210.784 80.3597L210.272 78.7637L212.591 69.8271L213.922 69.4002L214.651 71.6725L213.839 71.9328L212.283 77.9635L212.311 78.05L218.874 75.9447L219.403 77.5948L210.784 80.3597ZM216.73 80.7199L215.914 78.1771L215.707 77.456L213.197 69.6328L215.09 69.0253L218.645 80.1055L216.73 80.7199ZM222.035 66.6305C222.566 66.464 223.112 66.3924 223.672 66.4155C224.235 66.4338 224.784 66.5838 225.32 66.8654C225.855 67.1434 226.351 67.5868 226.809 68.1957C227.267 68.8047 227.658 69.6141 227.982 70.624C228.291 71.5751 228.463 72.4587 228.498 73.2748C228.536 74.0862 228.448 74.8106 228.235 75.4479C228.021 76.0851 227.691 76.6246 227.244 77.0664C226.797 77.5082 226.24 77.8361 225.573 78.0501C224.873 78.2746 224.209 78.3366 223.58 78.236C222.954 78.1343 222.399 77.8986 221.915 77.5289C221.43 77.1593 221.052 76.68 220.779 76.0912L222.754 75.4577C222.996 75.8653 223.314 76.1492 223.707 76.3094C224.103 76.4648 224.539 76.4662 225.016 76.3134C225.784 76.067 226.268 75.5436 226.469 74.7433C226.67 73.9429 226.58 72.9494 226.199 71.7628L226.123 71.7871C226.048 72.1612 225.907 72.5088 225.7 72.8299C225.492 73.1474 225.229 73.4247 224.911 73.6619C224.597 73.8979 224.241 74.0796 223.844 74.2068C223.195 74.4151 222.561 74.4475 221.942 74.3039C221.327 74.1592 220.781 73.8649 220.305 73.4211C219.832 72.9761 219.482 72.4061 219.255 71.7111C219.023 70.9898 218.982 70.2891 219.129 69.6092C219.28 68.9245 219.601 68.3202 220.093 67.7963C220.584 67.2688 221.232 66.8802 222.035 66.6305ZM222.561 68.2519C222.171 68.3768 221.85 68.5852 221.598 68.8771C221.348 69.1641 221.185 69.4989 221.108 69.8813C221.035 70.2591 221.061 70.6463 221.189 71.043C221.318 71.435 221.521 71.7637 221.797 72.0292C222.077 72.2935 222.398 72.4709 222.762 72.5612C223.128 72.6504 223.508 72.632 223.901 72.5058C224.194 72.4121 224.448 72.2689 224.665 72.0761C224.881 71.8832 225.051 71.6576 225.175 71.399C225.302 71.1357 225.376 70.8592 225.399 70.5696C225.425 70.2788 225.39 69.9915 225.295 69.7077C225.174 69.329 224.971 69.0081 224.688 68.7449C224.408 68.4806 224.082 68.3008 223.709 68.2056C223.34 68.1092 222.957 68.1246 222.561 68.2519ZM231.914 63.4613C232.445 63.2948 232.991 63.2231 233.551 63.2462C234.114 63.2646 234.663 63.4146 235.199 63.6962C235.734 63.9741 236.23 64.4176 236.688 65.0265C237.146 65.6354 237.537 66.4449 237.861 67.4548C238.17 68.4058 238.342 69.2894 238.377 70.1056C238.415 70.917 238.327 71.6414 238.114 72.2786C237.9 72.9159 237.57 73.4554 237.123 73.8972C236.676 74.3389 236.119 74.6668 235.452 74.8809C234.752 75.1054 234.088 75.1673 233.459 75.0668C232.833 74.9651 232.278 74.7294 231.794 74.3597C231.309 73.9901 230.931 73.5108 230.658 72.922L232.633 72.2885C232.875 72.6961 233.193 72.98 233.587 73.1402C233.983 73.2956 234.419 73.2969 234.895 73.1442C235.663 72.8978 236.147 72.3744 236.348 71.574C236.549 70.7737 236.459 69.7802 236.078 68.5936L236.002 68.6179C235.928 68.992 235.786 69.3396 235.579 69.6607C235.371 69.9781 235.108 70.2555 234.79 70.4926C234.476 70.7287 234.12 70.9103 233.724 71.0376C233.074 71.2459 232.44 71.2782 231.821 71.1347C231.206 70.9899 230.66 70.6957 230.184 70.2518C229.711 69.8068 229.361 69.2369 229.134 68.5419C228.902 67.8205 228.861 67.1199 229.009 66.44C229.159 65.7553 229.48 65.151 229.972 64.627C230.464 64.0995 231.111 63.711 231.914 63.4613ZM232.44 65.0826C232.05 65.2076 231.729 65.416 231.477 65.7078C231.227 65.9949 231.064 66.3297 230.987 66.7121C230.914 67.0898 230.94 67.4771 231.068 67.8738C231.197 68.2658 231.4 68.5945 231.676 68.86C231.956 69.1243 232.278 69.3016 232.641 69.392C233.007 69.4812 233.387 69.4627 233.781 69.3366C234.073 69.2429 234.327 69.0996 234.544 68.9068C234.76 68.714 234.931 68.4883 235.055 68.2298C235.181 67.9665 235.255 67.69 235.278 67.4004C235.304 67.1096 235.269 66.8223 235.174 66.5385C235.053 66.1598 234.85 65.8389 234.567 65.5757C234.287 65.3114 233.961 65.1316 233.588 65.0363C233.219 64.9399 232.837 64.9554 232.44 65.0826Z" fill="#242424"/>
<rect x="197.199" y="113.24" width="132" height="7" rx="3.5" transform="rotate(-17.7863 197.199 113.24)" fill="#F5E9D3" fill-opacity="0.4"/>
<rect x="197.199" y="113.24" width="66" height="7" rx="3.5" transform="rotate(-17.7863 197.199 113.24)" fill="#E78C9D"/>
<path d="M294.177 20.5181L301.672 24.3724C302.164 24.625 302.357 25.2279 302.104 25.719L298.25 33.2142" stroke="#242424" stroke-width="2" stroke-linecap="round" stroke-linejoin="round"/>
</g>
<g clip-path="url(#clip2_11_132)">
<rect x="32.6851" y="202.774" width="156" height="91" rx="10" transform="rotate(-17.7863 32.6851 202.774)" fill="white"/>
<path d="M56.3868 210.923L55.3805 211.246C55.2281 210.975 55.0424 210.755 54.8233 210.583C54.607 210.411 54.3694 210.284 54.1107 210.203C53.8538 210.118 53.5861 210.079 53.3075 210.085C53.0289 210.091 52.7517 210.138 52.4757 210.226C51.9726 210.388 51.5576 210.661 51.2307 211.047C50.9065 211.431 50.7034 211.909 50.6214 212.482C50.5422 213.053 50.618 213.698 50.8488 214.418C51.0797 215.138 51.3935 215.707 51.7904 216.125C52.1899 216.543 52.6334 216.814 53.1207 216.938C53.6108 217.062 54.1074 217.042 54.6105 216.881C54.8865 216.793 55.1394 216.67 55.3694 216.512C55.5994 216.355 55.7947 216.168 55.9552 215.953C56.1176 215.734 56.2367 215.491 56.3125 215.225C56.3901 214.956 56.4127 214.668 56.3802 214.362L57.3865 214.039C57.447 214.488 57.431 214.913 57.3384 215.312C57.2459 215.712 57.0885 216.077 56.8665 216.408C56.6435 216.736 56.3663 217.02 56.0347 217.261C55.7059 217.501 55.3318 217.688 54.9125 217.822C54.2038 218.05 53.518 218.079 52.855 217.91C52.1921 217.74 51.6 217.387 51.0787 216.85C50.5574 216.314 50.1562 215.607 49.875 214.73C49.5938 213.854 49.5091 213.046 49.6208 212.306C49.7325 211.566 50.0087 210.934 50.4495 210.411C50.8902 209.888 51.465 209.512 52.1737 209.285C52.593 209.151 53.0062 209.085 53.4131 209.089C53.8228 209.092 54.2141 209.163 54.5872 209.303C54.9594 209.44 55.2994 209.644 55.6071 209.916C55.9141 210.184 56.174 210.52 56.3868 210.923ZM61.5968 215.714C61.2019 215.841 60.8196 215.881 60.4499 215.836C60.0794 215.787 59.7539 215.652 59.4735 215.428C59.1921 215.202 58.9864 214.887 58.8562 214.481C58.7416 214.124 58.7191 213.812 58.7886 213.545C58.8573 213.275 58.9889 213.039 59.1834 212.836C59.378 212.634 59.6073 212.456 59.8714 212.302C60.1373 212.145 60.4089 212.002 60.6862 211.871C61.0493 211.701 61.3446 211.566 61.5721 211.466C61.8015 211.362 61.9603 211.262 62.0486 211.165C62.1395 211.067 62.1603 210.941 62.1108 210.787L62.1004 210.755C61.9719 210.354 61.7626 210.079 61.4723 209.927C61.1847 209.775 60.8205 209.769 60.3796 209.911C59.9224 210.057 59.5961 210.272 59.4006 210.556C59.2051 210.839 59.0911 211.112 59.0585 211.373L58.0454 211.34C58.0862 210.909 58.2081 210.545 58.4109 210.247C58.6155 209.945 58.8654 209.701 59.1604 209.514C59.4572 209.323 59.7626 209.178 60.0763 209.077C60.2765 209.013 60.5143 208.963 60.7896 208.929C61.0667 208.891 61.3505 208.905 61.6408 208.973C61.9338 209.041 62.2088 209.195 62.4657 209.438C62.7226 209.681 62.9304 210.05 63.0892 210.545L64.4066 214.651L63.449 214.959L63.1782 214.115L63.1295 214.13C63.108 214.286 63.0462 214.466 62.9442 214.669C62.8422 214.871 62.6827 215.067 62.4658 215.256C62.249 215.445 61.9593 215.598 61.5968 215.714ZM61.4669 214.807C61.8457 214.685 62.141 214.509 62.353 214.276C62.5676 214.043 62.7035 213.788 62.7605 213.51C62.8203 213.231 62.8085 212.962 62.7252 212.703L62.444 211.826C62.4191 211.888 62.3441 211.961 62.2192 212.046C62.0961 212.127 61.95 212.211 61.781 212.298C61.6139 212.382 61.4499 212.461 61.2891 212.537C61.1302 212.609 61.0015 212.668 60.9031 212.714C60.6646 212.827 60.4489 212.954 60.2559 213.096C60.0648 213.235 59.9259 213.398 59.8393 213.584C59.7546 213.766 59.7513 213.979 59.8294 214.222C59.9362 214.555 60.14 214.767 60.4408 214.859C60.7435 214.946 61.0855 214.929 61.4669 214.807ZM66.1544 214.091L64.155 207.858L65.0801 207.561L65.3821 208.503L65.4471 208.482C65.4617 208.137 65.5871 207.821 65.823 207.533C66.059 207.246 66.3636 207.042 66.7369 206.922C66.8072 206.9 66.8956 206.873 67.0019 206.842C67.1083 206.811 67.1894 206.789 67.2453 206.777L67.5577 207.751C67.5226 207.753 67.4443 207.765 67.3228 207.786C67.2031 207.804 67.0797 207.833 66.9525 207.874C66.6496 207.971 66.3994 208.121 66.2022 208.325C66.0067 208.525 65.8756 208.758 65.8088 209.024C65.7439 209.286 65.7565 209.558 65.8468 209.839L67.112 213.783L66.1544 214.091Z" fill="#707070"/>
<path d="M63.4681 243.785L59.0249 229.935L59.9122 229.65L64.3554 243.501L63.4681 243.785ZM63.0054 233.545C62.8034 233.089 62.4725 232.789 62.013 232.646C61.557 232.502 61.0314 232.525 60.4363 232.716C60.0179 232.851 59.6793 233.029 59.4204 233.251C59.1615 233.473 58.9875 233.718 58.8982 233.985C58.8089 234.253 58.807 234.526 58.8925 234.805C58.9666 235.036 59.0831 235.219 59.2421 235.355C59.4047 235.49 59.597 235.587 59.8191 235.647C60.0401 235.704 60.2751 235.736 60.5242 235.743C60.7733 235.751 61.0201 235.745 61.2647 235.726L62.3868 235.653C62.8364 235.616 63.2808 235.619 63.72 235.661C64.1627 235.702 64.5779 235.799 64.9655 235.953C65.3567 236.106 65.6997 236.332 65.9946 236.632C66.2895 236.931 66.5139 237.32 66.6678 237.8C66.876 238.449 66.8935 239.074 66.7202 239.675C66.5458 240.272 66.1893 240.81 65.6508 241.289C65.1147 241.763 64.4031 242.143 63.5158 242.427C62.6538 242.704 61.8625 242.81 61.1421 242.747C60.4253 242.683 59.8062 242.452 59.2848 242.054C58.767 241.655 58.3757 241.093 58.1108 240.366L60.0855 239.733C60.2382 240.109 60.4602 240.392 60.7516 240.581C61.0429 240.77 61.3765 240.874 61.7525 240.893C62.132 240.91 62.531 240.852 62.9494 240.717C63.3858 240.577 63.7473 240.39 64.0339 240.155C64.3229 239.915 64.5236 239.648 64.6359 239.353C64.7471 239.055 64.7536 238.746 64.6554 238.428C64.5592 238.14 64.3981 237.93 64.172 237.795C63.9447 237.657 63.6612 237.573 63.3213 237.543C62.9839 237.508 62.6006 237.504 62.1715 237.53L60.8068 237.61C59.819 237.668 58.9837 237.544 58.3007 237.238C57.6203 236.927 57.1527 236.375 56.8982 235.582C56.6888 234.929 56.6821 234.301 56.8782 233.697C57.0779 233.092 57.441 232.555 57.9673 232.088C58.4926 231.617 59.1429 231.258 59.9184 231.009C60.7047 230.757 61.4375 230.673 62.117 230.757C62.7989 230.837 63.3869 231.064 63.881 231.438C64.3739 231.809 64.7259 232.305 64.9369 232.925L63.0054 233.545ZM69.347 240.372L68.8818 238.922L71.5188 233.917C71.7675 233.427 71.9682 232.999 72.1209 232.632C72.2736 232.264 72.3679 231.926 72.4037 231.616C72.4396 231.306 72.4083 230.998 72.31 230.691C72.1978 230.341 72.0224 230.068 71.7838 229.87C71.5441 229.668 71.2634 229.543 70.9418 229.495C70.6201 229.447 70.2825 229.48 69.929 229.593C69.5647 229.71 69.2698 229.888 69.0443 230.128C68.8176 230.364 68.6725 230.643 68.6089 230.966C68.549 231.287 68.5798 231.637 68.7013 232.016L66.7915 232.629C66.5658 231.925 66.5302 231.263 66.6846 230.64C66.839 230.018 67.1518 229.474 67.6231 229.009C68.0979 228.542 68.7015 228.191 69.4336 227.956C70.1766 227.718 70.874 227.647 71.5258 227.745C72.1775 227.842 72.736 228.082 73.2013 228.466C73.6701 228.849 74.0041 229.35 74.2031 229.971C74.3361 230.385 74.3875 230.818 74.3573 231.27C74.327 231.721 74.1898 232.254 73.9456 232.87C73.7051 233.484 73.337 234.252 72.8414 235.175L71.5547 237.73L71.579 237.806L76.4049 236.258L76.943 237.935L69.347 240.372ZM82.9727 236.233C82.0818 236.519 81.2449 236.539 80.4618 236.293C79.6812 236.042 78.9825 235.544 78.3656 234.799C77.7512 234.05 77.2502 233.071 76.8626 231.862C76.4786 230.653 76.3201 229.57 76.3872 228.614C76.4568 227.652 76.7373 226.846 77.2286 226.196C77.7235 225.544 78.4146 225.075 79.3019 224.791C80.1892 224.506 81.0238 224.485 81.8057 224.727C82.5876 224.97 83.2845 225.462 83.8967 226.205C84.5124 226.946 85.0135 227.919 85.3999 229.124C85.7887 230.335 85.9495 231.426 85.8822 232.394C85.8174 233.357 85.5381 234.167 85.0443 234.823C84.5541 235.477 83.8636 235.947 82.9727 236.233ZM82.4295 234.54C83.122 234.318 83.5591 233.801 83.7408 232.991C83.9249 232.176 83.8035 231.104 83.3765 229.773C83.0942 228.893 82.765 228.183 82.389 227.643C82.013 227.103 81.6086 226.736 81.176 226.54C80.7422 226.341 80.2963 226.315 79.8382 226.462C79.1493 226.683 78.7146 227.201 78.5341 228.014C78.3524 228.825 78.4715 229.89 78.8914 231.211C79.1713 232.096 79.498 232.811 79.8716 233.355C80.2488 233.899 80.6542 234.27 81.088 234.469C81.5207 234.664 81.9678 234.688 82.4295 234.54ZM90.3748 231.955L90.4954 232.573C90.5907 233.043 90.6486 233.534 90.6692 234.045C90.6946 234.558 90.7005 235.035 90.6871 235.477C90.6738 235.919 90.6602 236.267 90.6466 236.522L89.3265 236.946C89.3064 236.709 89.2789 236.388 89.2439 235.982C89.2126 235.574 89.1626 235.121 89.094 234.622C89.0254 234.122 88.9274 233.625 88.8001 233.129L88.6436 232.511L90.3748 231.955ZM96.7648 231.809C95.8739 232.094 95.0369 232.114 94.2539 231.868C93.4733 231.617 92.7746 231.12 92.1577 230.375C91.5433 229.625 91.0422 228.646 90.6546 227.438C90.2706 226.228 90.1122 225.145 90.1793 224.189C90.2489 223.228 90.5293 222.422 91.0207 221.771C91.5156 221.119 92.2067 220.651 93.094 220.366C93.9813 220.081 94.8158 220.06 95.5977 220.303C96.3796 220.545 97.0766 221.038 97.6887 221.78C98.3044 222.521 98.8055 223.494 99.192 224.699C99.5808 225.911 99.7415 227.001 99.6743 227.969C99.6094 228.933 99.3301 229.743 98.8364 230.398C98.3462 231.053 97.6557 231.523 96.7648 231.809ZM96.2215 230.115C96.9141 229.893 97.3511 229.377 97.5328 228.567C97.7169 227.752 97.5955 226.679 97.1686 225.348C96.8862 224.468 96.5571 223.758 96.181 223.218C95.805 222.679 95.4007 222.311 94.9681 222.116C94.5343 221.917 94.0883 221.891 93.6303 222.038C92.9414 222.259 92.5067 222.776 92.3262 223.59C92.1445 224.4 92.2636 225.466 92.6835 226.787C92.9633 227.672 93.2901 228.386 93.6636 228.931C94.0408 229.474 94.4463 229.845 94.8801 230.044C95.3127 230.24 95.7599 230.263 96.2215 230.115ZM106.927 228.549C106.036 228.835 105.199 228.854 104.416 228.608C103.635 228.358 102.936 227.86 102.319 227.115C101.705 226.365 101.204 225.386 100.816 224.178C100.432 222.968 100.274 221.886 100.341 220.929C100.411 219.968 100.691 219.162 101.182 218.511C101.677 217.859 102.368 217.391 103.256 217.106C104.143 216.821 104.978 216.8 105.76 217.043C106.541 217.285 107.238 217.778 107.851 218.52C108.466 219.261 108.967 220.234 109.354 221.439C109.743 222.651 109.903 223.741 109.836 224.709C109.771 225.673 109.492 226.483 108.998 227.138C108.508 227.793 107.817 228.263 106.927 228.549ZM106.383 226.855C107.076 226.633 107.513 226.117 107.695 225.307C107.879 224.492 107.757 223.419 107.33 222.088C107.048 221.208 106.719 220.498 106.343 219.959C105.967 219.419 105.562 219.051 105.13 218.856C104.696 218.657 104.25 218.631 103.792 218.778C103.103 218.999 102.668 219.516 102.488 220.33C102.306 221.14 102.425 222.206 102.845 223.527C103.125 224.412 103.452 225.127 103.825 225.671C104.203 226.214 104.608 226.586 105.042 226.784C105.475 226.98 105.922 227.003 106.383 226.855ZM117.088 225.289C116.197 225.575 115.361 225.595 114.577 225.348C113.797 225.098 113.098 224.6 112.481 223.855C111.867 223.105 111.366 222.126 110.978 220.918C110.594 219.709 110.436 218.626 110.503 217.669C110.572 216.708 110.853 215.902 111.344 215.251C111.839 214.599 112.53 214.131 113.418 213.846C114.305 213.562 115.139 213.54 115.921 213.783C116.703 214.025 117.4 214.518 118.012 215.26C118.628 216.002 119.129 216.975 119.516 218.179C119.904 219.391 120.065 220.481 119.998 221.45C119.933 222.413 119.654 223.223 119.16 223.878C118.67 224.533 117.979 225.003 117.088 225.289ZM116.545 223.595C117.238 223.373 117.675 222.857 117.856 222.047C118.041 221.232 117.919 220.159 117.492 218.828C117.21 217.948 116.881 217.238 116.505 216.699C116.129 216.159 115.724 215.791 115.292 215.596C114.858 215.397 114.412 215.371 113.954 215.518C113.265 215.739 112.83 216.256 112.65 217.07C112.468 217.88 112.587 218.946 113.007 220.267C113.287 221.152 113.614 221.867 113.987 222.411C114.364 222.954 114.77 223.326 115.204 223.525C115.636 223.72 116.083 223.744 116.545 223.595Z" fill="#242424"/>
<rect x="66.1052" y="267.667" width="132" height="7" rx="3.5" transform="rotate(-17.7863 66.1052 267.667)" fill="#BFA2CA" fill-opacity="0.4"/>
<rect x="66.1052" y="267.667" width="66" height="7" rx="3.5" transform="rotate(-17.7863 66.1052 267.667)" fill="#EED868"/>
<path d="M163.084 174.944L170.579 178.799C171.07 179.051 171.263 179.654 171.011 180.145L167.156 187.64" stroke="#242424" stroke-width="2" stroke-linecap="round" stroke-linejoin="round"/>
</g>
<g clip-path="url(#clip3_11_132)">
<rect x="196.464" y="150.233" width="156" height="91" rx="10" transform="rotate(-17.7863 196.464 150.233)" fill="white"/>
<path d="M215.311 166.241L212.645 157.931L213.652 157.608L214.839 161.309L219.27 159.887L218.083 156.186L219.089 155.864L221.755 164.174L220.749 164.497L219.556 160.78L215.125 162.201L216.318 165.918L215.311 166.241ZM226.213 162.887C225.651 163.067 225.114 163.092 224.603 162.96C224.096 162.828 223.645 162.559 223.253 162.154C222.863 161.748 222.565 161.223 222.358 160.579C222.15 159.93 222.086 159.325 222.166 158.766C222.249 158.205 222.458 157.723 222.794 157.32C223.133 156.916 223.584 156.624 224.146 156.443C224.709 156.263 225.244 156.239 225.752 156.371C226.263 156.503 226.713 156.773 227.104 157.181C227.497 157.589 227.798 158.118 228.007 158.767C228.213 159.411 228.275 160.012 228.191 160.57C228.11 161.127 227.9 161.607 227.562 162.011C227.225 162.414 226.776 162.706 226.213 162.887ZM225.937 162.026C226.365 161.889 226.681 161.667 226.887 161.359C227.093 161.052 227.204 160.698 227.222 160.299C227.24 159.899 227.183 159.491 227.049 159.074C226.915 158.658 226.725 158.291 226.477 157.973C226.229 157.656 225.931 157.431 225.584 157.298C225.237 157.164 224.85 157.166 224.422 157.303C223.995 157.44 223.679 157.664 223.474 157.974C223.269 158.285 223.158 158.641 223.141 159.043C223.124 159.446 223.182 159.855 223.316 160.272C223.45 160.688 223.64 161.054 223.887 161.369C224.134 161.683 224.431 161.906 224.777 162.036C225.123 162.167 225.51 162.164 225.937 162.026ZM233.568 157.574L232.386 153.889L233.344 153.582L235.343 159.815L234.386 160.122L234.047 159.067L233.982 159.088C233.938 159.451 233.797 159.793 233.559 160.114C233.321 160.432 232.967 160.666 232.496 160.817C232.107 160.942 231.733 160.968 231.376 160.895C231.017 160.819 230.696 160.636 230.411 160.345C230.126 160.052 229.899 159.64 229.729 159.11L228.458 155.149L229.416 154.842L230.666 158.737C230.811 159.192 231.055 159.514 231.396 159.703C231.74 159.891 232.11 159.921 232.508 159.793C232.746 159.717 232.969 159.578 233.176 159.378C233.385 159.176 233.534 158.923 233.621 158.617C233.711 158.311 233.693 157.963 233.568 157.574ZM239.96 152.999L239.178 153.518C239.078 153.392 238.953 153.279 238.805 153.177C238.658 153.072 238.48 153.004 238.273 152.972C238.066 152.94 237.823 152.968 237.545 153.058C237.163 153.18 236.873 153.37 236.676 153.628C236.48 153.881 236.424 154.142 236.51 154.41C236.587 154.648 236.734 154.808 236.951 154.891C237.168 154.973 237.476 155.001 237.873 154.975L238.871 154.906C239.472 154.862 239.954 154.936 240.316 155.127C240.678 155.315 240.929 155.627 241.068 156.063C241.183 156.42 241.182 156.772 241.067 157.119C240.954 157.466 240.742 157.778 240.428 158.058C240.115 158.337 239.717 158.555 239.232 158.71C238.597 158.914 238.026 158.945 237.521 158.803C237.016 158.66 236.623 158.342 236.342 157.847L237.178 157.328C237.372 157.636 237.617 157.835 237.911 157.926C238.208 158.015 238.553 157.997 238.945 157.871C239.392 157.728 239.716 157.52 239.917 157.246C240.121 156.969 240.18 156.697 240.094 156.429C240.024 156.212 239.891 156.056 239.692 155.958C239.493 155.858 239.225 155.822 238.888 155.849L237.771 155.939C237.156 155.987 236.67 155.912 236.311 155.714C235.954 155.512 235.706 155.196 235.568 154.766C235.456 154.414 235.455 154.071 235.565 153.738C235.679 153.403 235.882 153.103 236.176 152.839C236.473 152.574 236.841 152.371 237.279 152.23C237.896 152.032 238.423 152.012 238.862 152.17C239.303 152.327 239.669 152.603 239.96 152.999ZM245.722 156.628C245.121 156.821 244.561 156.855 244.04 156.729C243.521 156.6 243.067 156.334 242.679 155.931C242.291 155.524 241.995 155.001 241.791 154.363C241.586 153.725 241.522 153.125 241.598 152.563C241.676 151.998 241.881 151.511 242.213 151.104C242.546 150.692 242.995 150.397 243.557 150.216C243.882 150.112 244.22 150.063 244.571 150.07C244.922 150.077 245.267 150.16 245.604 150.32C245.941 150.478 246.251 150.73 246.532 151.079C246.814 151.427 247.048 151.892 247.235 152.473L247.365 152.879L242.561 154.42L242.295 153.592L246.126 152.364C246.013 152.012 245.842 151.721 245.613 151.49C245.386 151.258 245.119 151.104 244.811 151.027C244.505 150.949 244.179 150.965 243.833 151.076C243.452 151.199 243.152 151.399 242.934 151.678C242.718 151.953 242.584 152.265 242.531 152.613C242.479 152.961 242.508 153.306 242.618 153.65L242.795 154.202C242.946 154.673 243.155 155.046 243.423 155.321C243.692 155.592 244 155.767 244.347 155.843C244.693 155.917 245.059 155.892 245.446 155.768C245.697 155.687 245.913 155.579 246.094 155.444C246.276 155.305 246.418 155.14 246.521 154.949C246.623 154.755 246.68 154.537 246.691 154.294L247.7 154.257C247.703 154.602 247.628 154.931 247.475 155.243C247.32 155.552 247.095 155.827 246.799 156.068C246.503 156.306 246.144 156.493 245.722 156.628Z" fill="#707070"/>
<path d="M227.247 191.245L222.804 177.394L223.691 177.11L228.134 190.96L227.247 191.245ZM226.784 181.004C226.582 180.548 226.251 180.249 225.792 180.106C225.336 179.961 224.81 179.985 224.215 180.176C223.797 180.31 223.458 180.488 223.199 180.711C222.94 180.933 222.766 181.178 222.677 181.445C222.588 181.712 222.586 181.985 222.671 182.264C222.745 182.495 222.862 182.678 223.021 182.814C223.184 182.949 223.376 183.047 223.598 183.107C223.819 183.163 224.054 183.195 224.303 183.203C224.552 183.21 224.799 183.205 225.044 183.186L226.166 183.112C226.615 183.076 227.06 183.078 227.499 183.12C227.942 183.161 228.357 183.259 228.744 183.413C229.136 183.566 229.479 183.792 229.774 184.091C230.068 184.39 230.293 184.78 230.447 185.26C230.655 185.909 230.672 186.534 230.499 187.134C230.325 187.731 229.968 188.269 229.43 188.748C228.894 189.223 228.182 189.602 227.295 189.887C226.433 190.163 225.641 190.27 224.921 190.207C224.204 190.142 223.585 189.911 223.064 189.514C222.546 189.115 222.155 188.552 221.89 187.826L223.864 187.192C224.017 187.569 224.239 187.852 224.53 188.041C224.822 188.23 225.155 188.333 225.531 188.352C225.911 188.369 226.31 188.311 226.728 188.177C227.165 188.037 227.526 187.849 227.813 187.614C228.102 187.374 228.302 187.107 228.415 186.812C228.526 186.514 228.533 186.206 228.434 185.887C228.338 185.6 228.177 185.389 227.951 185.255C227.724 185.117 227.44 185.033 227.1 185.002C226.763 184.967 226.38 184.963 225.95 184.989L224.586 185.069C223.598 185.128 222.763 185.004 222.08 184.698C221.399 184.387 220.932 183.835 220.677 183.041C220.468 182.388 220.461 181.76 220.657 181.156C220.857 180.551 221.22 180.015 221.746 179.548C222.271 179.077 222.922 178.717 223.697 178.468C224.484 178.216 225.216 178.132 225.896 178.216C226.578 178.296 227.166 178.523 227.66 178.898C228.153 179.269 228.505 179.764 228.716 180.385L226.784 181.004ZM237.151 186.707C236.372 186.957 235.637 187.046 234.945 186.973C234.257 186.899 233.662 186.681 233.159 186.317C232.657 185.953 232.294 185.462 232.073 184.845L234.107 184.193C234.221 184.486 234.404 184.716 234.656 184.882C234.907 185.044 235.202 185.138 235.541 185.165C235.879 185.192 236.234 185.145 236.606 185.026C237.003 184.899 237.332 184.717 237.595 184.482C237.856 184.243 238.034 183.971 238.127 183.667C238.22 183.362 238.213 183.049 238.105 182.725C238.001 182.388 237.82 182.121 237.561 181.921C237.302 181.722 236.982 181.604 236.6 181.567C236.222 181.529 235.798 181.586 235.33 181.736L234.35 182.05L233.854 180.503L234.833 180.189C235.219 180.065 235.535 179.89 235.781 179.664C236.03 179.437 236.199 179.176 236.287 178.881C236.375 178.582 236.365 178.273 236.258 177.953C236.161 177.638 236.004 177.389 235.785 177.204C235.569 177.015 235.311 176.897 235.009 176.85C234.712 176.803 234.39 176.834 234.043 176.945C233.704 177.054 233.41 177.216 233.161 177.431C232.912 177.646 232.735 177.896 232.631 178.18C232.526 178.46 232.518 178.757 232.607 179.071L230.676 179.691C230.491 179.066 230.495 178.464 230.687 177.885C230.882 177.301 231.225 176.785 231.718 176.337C232.209 175.885 232.814 175.544 233.532 175.313C234.271 175.076 234.958 175.009 235.591 175.112C236.228 175.21 236.77 175.444 237.219 175.813C237.667 176.183 237.982 176.648 238.162 177.211C238.366 177.834 238.35 178.416 238.114 178.957C237.881 179.497 237.487 179.928 236.929 180.25L236.957 180.337C237.771 180.195 238.461 180.292 239.026 180.628C239.593 180.959 239.986 181.471 240.205 182.165C240.404 182.785 240.405 183.397 240.209 184.001C240.016 184.6 239.655 185.138 239.127 185.613C238.603 186.088 237.945 186.452 237.151 186.707ZM247.213 183.545C246.322 183.83 245.485 183.85 244.702 183.604C243.921 183.354 243.223 182.856 242.606 182.111C241.991 181.361 241.49 180.382 241.103 179.174C240.719 177.964 240.56 176.881 240.627 175.925C240.697 174.964 240.977 174.158 241.469 173.507C241.964 172.855 242.655 172.387 243.542 172.102C244.429 171.817 245.264 171.796 246.046 172.039C246.828 172.281 247.525 172.774 248.137 173.516C248.753 174.257 249.254 175.23 249.64 176.435C250.029 177.647 250.19 178.737 250.122 179.705C250.058 180.669 249.778 181.479 249.284 182.134C248.794 182.789 248.104 183.259 247.213 183.545ZM246.67 181.851C247.362 181.629 247.799 181.113 247.981 180.303C248.165 179.488 248.044 178.415 247.617 177.084C247.334 176.204 247.005 175.494 246.629 174.954C246.253 174.415 245.849 174.047 245.416 173.852C244.982 173.653 244.536 173.627 244.078 173.774C243.389 173.995 242.955 174.512 242.774 175.326C242.593 176.136 242.712 177.202 243.132 178.523C243.411 179.408 243.738 180.122 244.112 180.667C244.489 181.21 244.894 181.581 245.328 181.78C245.761 181.976 246.208 181.999 246.67 181.851ZM254.615 179.267L254.736 179.884C254.831 180.355 254.889 180.846 254.909 181.356C254.935 181.869 254.941 182.347 254.927 182.788C254.914 183.23 254.9 183.579 254.887 183.834L253.567 184.257C253.547 184.021 253.519 183.7 253.484 183.293C253.453 182.886 253.403 182.432 253.334 181.933C253.266 181.434 253.168 180.936 253.04 180.44L252.884 179.822L254.615 179.267ZM261.04 179.043C260.319 179.275 259.63 179.347 258.973 179.259C258.315 179.168 257.742 178.938 257.254 178.569C256.769 178.2 256.418 177.712 256.2 177.105L258.147 176.481C258.329 176.923 258.645 177.232 259.095 177.406C259.543 177.576 260.018 177.581 260.519 177.42C260.912 177.294 261.233 177.092 261.482 176.813C261.731 176.534 261.892 176.206 261.966 175.828C262.04 175.451 262.009 175.057 261.873 174.647C261.743 174.227 261.535 173.884 261.251 173.617C260.966 173.351 260.637 173.176 260.265 173.092C259.891 173.005 259.5 173.027 259.092 173.158C258.759 173.261 258.453 173.427 258.172 173.656C257.892 173.885 257.69 174.133 257.569 174.399L255.661 174.683L254.407 168.784L260.834 166.722L261.372 168.399L256.606 169.928L257.229 172.968L257.294 172.947C257.422 172.64 257.648 172.346 257.973 172.067C258.296 171.785 258.681 171.572 259.128 171.428C259.799 171.213 260.449 171.18 261.077 171.328C261.704 171.473 262.258 171.773 262.738 172.227C263.218 172.682 263.572 173.265 263.8 173.975C264.035 174.707 264.075 175.414 263.92 176.097C263.767 176.774 263.444 177.373 262.95 177.893C262.459 178.409 261.823 178.792 261.04 179.043ZM270.944 175.932C270.053 176.218 269.216 176.238 268.433 175.991C267.652 175.741 266.953 175.243 266.336 174.498C265.722 173.748 265.221 172.769 264.833 171.561C264.449 170.352 264.291 169.269 264.358 168.312C264.428 167.351 264.708 166.545 265.199 165.894C265.694 165.242 266.385 164.774 267.273 164.489C268.16 164.205 268.995 164.183 269.776 164.426C270.558 164.668 271.255 165.161 271.867 165.903C272.483 166.645 272.984 167.618 273.371 168.822C273.76 170.034 273.92 171.124 273.853 172.093C273.788 173.056 273.509 173.866 273.015 174.521C272.525 175.176 271.834 175.646 270.944 175.932ZM270.4 174.238C271.093 174.016 271.53 173.5 271.712 172.69C271.896 171.875 271.774 170.802 271.347 169.471C271.065 168.591 270.736 167.881 270.36 167.342C269.984 166.802 269.579 166.434 269.147 166.239C268.713 166.04 268.267 166.014 267.809 166.161C267.12 166.382 266.685 166.899 266.505 167.713C266.323 168.523 266.442 169.589 266.862 170.91C267.142 171.795 267.469 172.51 267.842 173.054C268.22 173.597 268.625 173.969 269.059 174.168C269.491 174.363 269.939 174.387 270.4 174.238ZM281.105 172.672C280.214 172.958 279.377 172.978 278.594 172.732C277.814 172.481 277.115 171.983 276.498 171.238C275.884 170.488 275.383 169.509 274.995 168.301C274.611 167.092 274.453 166.009 274.52 165.052C274.589 164.091 274.87 163.285 275.361 162.634C275.856 161.982 276.547 161.514 277.435 161.229C278.322 160.945 279.156 160.924 279.938 161.166C280.72 161.408 281.417 161.901 282.029 162.643C282.645 163.385 283.146 164.358 283.533 165.562C283.921 166.774 284.082 167.864 284.015 168.833C283.95 169.796 283.671 170.606 283.177 171.262C282.687 171.916 281.996 172.386 281.105 172.672ZM280.562 170.979C281.255 170.756 281.692 170.24 281.873 169.43C282.057 168.615 281.936 167.542 281.509 166.211C281.227 165.331 280.898 164.621 280.522 164.082C280.146 163.542 279.741 163.174 279.309 162.979C278.875 162.78 278.429 162.754 277.971 162.901C277.282 163.122 276.847 163.639 276.667 164.453C276.485 165.263 276.604 166.329 277.024 167.65C277.304 168.535 277.631 169.25 278.004 169.794C278.381 170.338 278.787 170.709 279.221 170.908C279.653 171.103 280.1 171.127 280.562 170.979Z" fill="#242424"/>
<rect x="229.884" y="215.126" width="132" height="7" rx="3.5" transform="rotate(-17.7863 229.884 215.126)" fill="#E6B8D0" fill-opacity="0.4"/>
<rect x="229.884" y="215.126" width="66" height="7" rx="3.5" transform="rotate(-17.7863 229.884 215.126)" fill="#377CC8"/>
<path d="M326.862 122.404L334.357 126.258C334.849 126.511 335.042 127.114 334.789 127.605L330.935 135.1" stroke="#242424" stroke-width="2" stroke-linecap="round" stroke-linejoin="round"/>
</g>
<defs>
<clipPath id="clip0_11_132">
<rect y="100.888" width="156" height="91" rx="10" transform="rotate(-17.7863 0 100.888)" fill="white"/>
</clipPath>
<clipPath id="clip1_11_132">
<rect x="163.779" y="48.3474" width="156" height="91" rx="10" transform="rotate(-17.7863 163.779 48.3474)" fill="white"/>
</clipPath>
<clipPath id="clip2_11_132">
<rect x="32.6851" y="202.774" width="156" height="91" rx="10" transform="rotate(-17.7863 32.6851 202.774)" fill="white"/>
</clipPath>
<clipPath id="clip3_11_132">
<rect x="196.464" y="150.233" width="156" height="91" rx="10" transform="rotate(-17.7863 196.464 150.233)" fill="white"/>
</clipPath>
</defs>
</svg>
