<svg width="483" height="365" viewBox="0 0 483 365" fill="none" xmlns="http://www.w3.org/2000/svg">
<path d="M62.4363 138.302C56.0956 139.28 49.7641 142.948 47.3495 148.956C44.5829 155.861 47.5448 163.65 47.0643 171.081C45.4628 195.421 9.11527 207.518 10.5432 231.86C11.1083 241.539 17.8729 249.573 24.6969 256.389C35.6331 267.279 48.0644 277.298 62.7898 281.743C85.1393 288.494 110.476 281.772 131.758 291.395C148.924 299.159 160.442 316.322 177.423 324.49C190.349 330.709 205.18 331.13 219.496 331.429C227.216 331.593 235.317 331.666 242.101 327.95C254.713 321.032 257.865 304.233 267.23 293.219C281.69 276.237 308.02 276.287 329.131 283.036C350.242 289.784 369.962 301.749 391.986 304.181C396.693 304.698 401.584 304.748 406.005 303.014C411.381 300.909 415.454 296.421 419.131 291.931C442.129 263.745 457.392 229.965 463.385 193.986C464.407 187.802 465.122 181.3 463.023 175.41C460.371 167.958 453.671 162.764 446.81 158.929C430.333 149.71 411.223 145.836 395.221 135.81C379.787 126.14 368.28 111.423 355.503 98.3908C330.037 72.4623 299.027 52.7647 264.837 40.7997C256.824 38.0021 248.432 35.6191 239.971 36.2965C230.223 37.0767 221.23 41.8477 212.992 47.1918C191.076 61.4079 172.45 80.161 151.826 96.2303C137.598 107.312 122.434 117.106 106.508 125.5C99.1738 129.375 91.2919 134.096 83.3806 136.603C76.1394 138.893 69.9096 137.155 62.4363 138.302Z" fill="#F9F9F9"/>
<path opacity="0.2" d="M185.626 56.2909L185.379 56.1897L79.846 214.231L362.454 277.485L362.773 277.556L393.103 141.286L393.163 141.018L185.626 56.2909ZM251.991 177.274L81.0948 213.533L185.476 57.217L251.991 177.274ZM252.394 177.854L361.394 276.579L81.9088 214.026L252.394 177.854ZM252.651 177.123L186.235 57.2416L391.754 141.144L252.651 177.123ZM362.33 276.549L253.155 177.665L392.352 141.662L362.33 276.549Z" fill="#2C4981"/>
<path d="M429.216 149.42C428.015 155.917 425.26 162.026 421.185 167.227C417.111 172.427 411.837 176.564 405.816 179.283C399.795 182.002 393.205 183.223 386.609 182.841C380.014 182.46 373.608 180.487 367.941 177.091C365.283 175.498 362.817 173.604 360.593 171.447C356.339 167.335 353.023 162.352 350.872 156.841L350.873 156.836C348.582 150.942 347.689 144.598 348.264 138.301C348.84 132.003 350.867 125.925 354.188 120.544C357.508 115.163 362.031 110.625 367.401 107.286C372.772 103.948 378.843 101.9 385.138 101.305C391.433 100.709 397.781 101.58 403.682 103.852C409.584 106.123 414.878 109.732 419.149 114.394C423.421 119.057 426.553 124.646 428.299 130.724C430.046 136.801 430.359 143.201 429.215 149.42L429.216 149.42Z" fill="white"/>
<path opacity="0.09" d="M429.216 149.42C428.015 155.917 425.26 162.026 421.185 167.227C417.111 172.427 411.837 176.564 405.816 179.283C399.795 182.002 393.205 183.223 386.609 182.841C380.014 182.46 373.608 180.487 367.941 177.091C365.283 175.498 362.817 173.604 360.593 171.447C356.339 167.335 353.023 162.352 350.872 156.841L350.873 156.836C348.582 150.942 347.689 144.598 348.264 138.301C348.84 132.003 350.867 125.925 354.188 120.544C357.508 115.163 362.031 110.625 367.401 107.286C372.772 103.948 378.843 101.9 385.138 101.305C391.433 100.709 397.781 101.58 403.682 103.852C409.584 106.123 414.878 109.732 419.149 114.394C423.421 119.057 426.553 124.646 428.299 130.724C430.046 136.801 430.359 143.201 429.215 149.42L429.216 149.42Z" fill="#2C4981"/>
<path d="M403.007 112.573C403.007 112.573 412.668 114.086 407.409 126.942L406.494 126.855L404.636 126.679" fill="#0C0C0C"/>
<path d="M388.245 138.463C388.291 138.465 387.27 146.809 396.99 147.854C403.718 148.578 407.381 141.971 407.533 141.999C406.845 141.715 405.681 141.271 405.395 141.044C404.453 140.291 403.267 139.468 403.303 137.376C403.325 136.171 404.755 130.247 404.871 129.045L394.264 129.444C393.947 131.971 393.877 137.949 390.197 138.332C389.584 138.395 388.929 138.435 388.245 138.463Z" fill="#FFCAB6"/>
<path opacity="0.52" d="M392.842 136.37C393.097 135.885 393.297 135.374 393.44 134.845C393.777 133.641 393.982 132.404 394.05 131.155C396.172 131.256 398.28 130.761 400.135 129.724C400.195 130.456 400.674 133.702 400.262 134.312C399.488 135.468 396.551 137.053 392.842 136.37Z" fill="#0C0C0C"/>
<path d="M395.4 135.238C399.493 135.532 404.735 133.771 405.696 128.305L406.564 123.375C407.524 117.911 405.432 112.976 400.289 112.072C395.144 111.166 390.52 114.92 389.559 120.385L389.175 122.567C389.056 123.319 388.989 124.079 388.973 124.84C388.917 126.851 388.84 129.909 389.846 132.15C390.796 134.266 392.785 135.05 395.4 135.238Z" fill="#FFCAB6"/>
<path d="M405.084 129.915C406.648 130.19 408.209 128.74 408.484 127.177C408.759 125.613 407.643 124.528 406.08 124.253L405.09 125.159L403.74 129.678L405.084 129.915Z" fill="#FFCAB6"/>
<path d="M388.944 126.528C389.18 126.905 389.506 127.217 389.892 127.437C390.279 127.656 390.715 127.775 391.159 127.783C392.11 127.8 392.674 128.272 393.465 128.308C394.129 128.338 394.286 128.051 395.413 128.146C399.761 128.513 403.037 128.707 404.026 123.326L407.122 121.284C407.122 121.284 406.187 136.456 397.789 137.28C392.629 137.786 388.02 136.665 388.093 131.897C388.153 128.024 388.944 126.528 388.944 126.528Z" fill="#0C0C0C"/>
<path d="M391.439 123.691C391.791 123.741 392.117 123.497 392.168 123.146C392.218 122.794 391.974 122.468 391.623 122.417C391.271 122.366 390.945 122.61 390.894 122.962C390.843 123.314 391.087 123.64 391.439 123.691Z" fill="#0C0C0C"/>
<path d="M397.145 124.392C397.497 124.443 397.823 124.199 397.874 123.847C397.924 123.496 397.68 123.169 397.329 123.119C396.977 123.068 396.651 123.312 396.6 123.664C396.549 124.015 396.793 124.342 397.145 124.392Z" fill="#0C0C0C"/>
<path d="M403.935 127.143C403.935 127.143 404.668 119.31 402.396 118.449C400.883 117.875 396.728 119.477 393.322 118.235C391.832 117.691 390.311 117.834 390.044 118.536C389.938 118.814 389.09 116.091 392.008 113.347C394.332 111.162 400.831 111.389 403.551 112.673C411.085 116.226 406.348 124.647 406.348 124.647L405.56 127.26L403.935 127.143Z" fill="#0C0C0C"/>
<path d="M408.421 121.388C410.741 121.723 412.893 120.113 413.228 117.793C413.562 115.473 411.952 113.321 409.632 112.987C407.312 112.652 405.16 114.262 404.826 116.582C404.492 118.902 406.101 121.054 408.421 121.388Z" fill="#0C0C0C"/>
<g opacity="0.52">
<path d="M393.578 128.069L393.568 128.067C393.064 127.98 392.229 127.777 392.293 127.4C392.348 127.088 393.787 123.863 393.951 123.496C393.965 123.465 393.991 123.44 394.023 123.428C394.056 123.415 394.092 123.416 394.123 123.431C394.155 123.445 394.179 123.471 394.192 123.503C394.204 123.535 394.203 123.571 394.189 123.603C393.55 125.031 392.587 127.232 392.55 127.443C392.585 127.541 393.091 127.719 393.613 127.809C393.647 127.814 393.678 127.832 393.699 127.859C393.72 127.887 393.729 127.921 393.725 127.956C393.72 127.99 393.702 128.021 393.675 128.042C393.647 128.063 393.613 128.072 393.579 128.067L393.578 128.069Z" fill="#0C0C0C"/>
</g>
<path d="M393.016 121.059C392.515 120.829 391.962 120.738 391.414 120.796C391.145 120.822 390.881 120.889 390.631 120.994C390.385 121.096 390.152 121.23 389.938 121.391C389.902 121.415 389.876 121.453 389.868 121.496C389.859 121.539 389.868 121.584 389.892 121.62C389.916 121.657 389.954 121.682 389.997 121.691C390.04 121.699 390.085 121.69 390.121 121.666L390.133 121.659C390.329 121.527 390.541 121.421 390.764 121.342C390.984 121.263 391.214 121.218 391.447 121.208C391.908 121.185 392.366 121.285 392.777 121.496L392.792 121.504C392.821 121.52 392.853 121.531 392.885 121.535C392.918 121.538 392.951 121.536 392.983 121.526C393.015 121.517 393.044 121.502 393.07 121.481C393.096 121.46 393.117 121.435 393.133 121.406C393.148 121.377 393.158 121.345 393.161 121.312C393.165 121.279 393.161 121.246 393.152 121.214C393.142 121.183 393.126 121.154 393.105 121.128C393.084 121.103 393.058 121.082 393.028 121.067L393.016 121.059Z" fill="#0C0C0C"/>
<path d="M396.701 122.062C397.144 121.931 397.613 121.92 398.061 122.029C398.288 122.083 398.506 122.17 398.707 122.289C398.911 122.408 399.099 122.553 399.268 122.719L399.277 122.727C399.309 122.755 399.35 122.77 399.392 122.768C399.434 122.767 399.474 122.749 399.504 122.719C399.534 122.689 399.55 122.648 399.551 122.606C399.552 122.564 399.537 122.523 399.508 122.492C399.329 122.294 399.125 122.119 398.901 121.972C398.676 121.822 398.429 121.707 398.17 121.63C397.642 121.471 397.082 121.457 396.547 121.589C396.484 121.606 396.43 121.647 396.397 121.704C396.364 121.76 396.355 121.827 396.371 121.89C396.387 121.954 396.428 122.008 396.484 122.042C396.54 122.076 396.607 122.086 396.67 122.071L396.683 122.067L396.701 122.062Z" fill="#0C0C0C"/>
<path d="M417.018 163.813C416.266 166.481 415.376 170.165 414.505 173.982C413.09 175.111 411.602 176.145 410.051 177.078C409.065 177.667 408.056 178.217 407.024 178.728C401.447 181.462 395.322 182.892 389.11 182.911C382.899 182.93 376.765 181.536 371.172 178.836C371.609 175.237 372.198 170.382 372.728 165.933C373.341 160.801 373.876 156.204 374.026 154.69C374.609 148.679 373.6 144.466 375.266 141.381C375.763 140.468 376.463 139.682 377.313 139.084C380.494 136.757 387.41 137.818 390.172 138.326C390.22 138.335 388.438 144.621 397.588 145.861C404.313 146.774 405.635 141.17 405.635 141.17C405.635 141.17 408.895 141.992 411.038 142.69C414.542 143.838 416.69 145.494 418.225 147.725C419.657 149.806 420.377 151.9 417.018 163.813Z" fill="#2C4981"/>
<path d="M366.254 135.524L367.517 128.724C367.545 128.574 367.541 128.42 367.506 128.272C367.472 128.124 367.407 127.985 367.315 127.863C367.223 127.742 367.108 127.641 366.975 127.567C366.842 127.492 366.695 127.447 366.544 127.433C366.264 127.415 365.987 127.502 365.767 127.677C365.548 127.852 365.401 128.102 365.355 128.379L365.084 129.837L363.83 124.862C363.7 124.306 363.185 123.707 362.572 123.894C362.331 123.95 362.116 124.087 361.963 124.281C361.809 124.475 361.726 124.715 361.727 124.962C361.722 124.962 361.716 124.963 361.711 124.964C361.707 124.965 361.703 124.967 361.699 124.969L361.499 124.113C361.462 123.954 361.39 123.805 361.288 123.678C361.187 123.551 361.058 123.448 360.911 123.377C360.764 123.305 360.604 123.268 360.441 123.267C360.278 123.265 360.117 123.301 359.969 123.369C359.739 123.483 359.554 123.672 359.446 123.905C359.339 124.138 359.314 124.401 359.377 124.65L359.462 125.014C359.453 125.021 359.445 125.03 359.438 125.041C359.324 124.808 359.13 124.623 358.892 124.52C358.654 124.417 358.387 124.402 358.139 124.477C357.869 124.568 357.644 124.757 357.508 125.007C357.372 125.257 357.335 125.548 357.405 125.824L357.616 126.73C357.604 126.719 357.59 126.711 357.574 126.707C357.559 126.703 357.542 126.703 357.527 126.706C357.508 126.711 357.492 126.722 357.479 126.736C357.319 126.557 357.105 126.435 356.869 126.39C356.634 126.344 356.39 126.377 356.175 126.484C355.951 126.601 355.773 126.79 355.671 127.02C355.568 127.25 355.546 127.508 355.608 127.753L357.392 135.394C357.642 136.463 358.205 137.433 359.009 138.18C359.814 138.927 360.823 139.417 361.908 139.586C362.843 139.732 363.799 139.508 364.571 138.961C365.344 138.414 365.873 137.587 366.045 136.657L366.254 135.524Z" fill="#FFCAB6"/>
<g opacity="0.2">
<path d="M362.944 129.894C362.918 129.9 362.891 129.895 362.868 129.881C362.846 129.868 362.829 129.845 362.823 129.82L361.637 125.086C361.633 125.073 361.631 125.059 361.633 125.045C361.634 125.032 361.639 125.019 361.645 125.007C361.652 124.995 361.661 124.984 361.672 124.976C361.683 124.968 361.696 124.962 361.709 124.958C361.722 124.955 361.736 124.954 361.75 124.957C361.763 124.959 361.776 124.964 361.788 124.971C361.799 124.978 361.809 124.988 361.817 124.999C361.825 125.011 361.83 125.024 361.833 125.037L363.019 129.771C363.022 129.784 363.023 129.797 363.021 129.81C363.019 129.823 363.015 129.836 363.008 129.847C363.001 129.859 362.992 129.869 362.981 129.877C362.971 129.884 362.958 129.89 362.946 129.893L362.944 129.894Z" fill="#0C0C0C"/>
</g>
<g opacity="0.2">
<path d="M360.871 130.475C360.845 130.481 360.818 130.477 360.795 130.463C360.772 130.449 360.756 130.426 360.75 130.401L359.426 125.118C359.42 125.092 359.424 125.065 359.438 125.042C359.452 125.02 359.474 125.003 359.499 124.997C359.525 124.992 359.552 124.996 359.574 125.01C359.596 125.023 359.613 125.045 359.62 125.07L360.944 130.353C360.951 130.379 360.946 130.406 360.933 130.429C360.919 130.452 360.897 130.469 360.871 130.475L360.871 130.475Z" fill="#0C0C0C"/>
</g>
<g opacity="0.2">
<path d="M358.629 131.117C358.603 131.123 358.576 131.118 358.553 131.105C358.53 131.091 358.514 131.068 358.508 131.043L357.452 126.829C357.445 126.803 357.449 126.775 357.463 126.752C357.477 126.729 357.499 126.713 357.525 126.706C357.551 126.7 357.579 126.704 357.602 126.718C357.625 126.731 357.641 126.754 357.648 126.78L358.705 130.993C358.711 131.019 358.707 131.046 358.693 131.069C358.68 131.092 358.657 131.109 358.631 131.115L358.629 131.117Z" fill="#0C0C0C"/>
</g>
<path d="M387.35 149.51L367.015 172.704C366.276 173.547 365.352 174.209 364.317 174.64C363.011 173.653 361.767 172.587 360.592 171.447C358.087 169.026 355.902 166.296 354.089 163.321L354.5 135.708L368.817 135.482L368.531 148.761L376.341 139.855L387.35 149.51Z" fill="#2C4981"/>
<path d="M392.255 129.303C393.767 129.625 395.344 129.433 396.735 128.758C396.783 128.735 396.837 128.726 396.89 128.733C396.943 128.739 396.993 128.76 397.035 128.794C397.076 128.828 397.107 128.873 397.124 128.924C397.141 128.974 397.143 129.029 397.13 129.081C396.898 129.968 396.214 131.563 394.291 131.501C393.049 131.461 392.299 130.395 391.943 129.707C391.918 129.66 391.908 129.606 391.913 129.553C391.918 129.499 391.938 129.448 391.97 129.406C392.003 129.363 392.047 129.331 392.098 129.313C392.148 129.295 392.203 129.292 392.255 129.303Z" fill="white"/>
<path d="M421.117 167.34C418.046 171.226 414.297 174.525 410.051 177.077C409.065 177.667 408.056 178.217 407.024 178.728L404.088 153.056L419.285 151.315L421.117 167.34Z" fill="#2C4981"/>
<path d="M407.18 178.652C407.13 178.675 407.074 178.702 407.024 178.728C406.974 178.753 406.922 178.779 406.871 178.802L404.632 159.245L404.957 159.208L407.18 178.652Z" fill="#0C0C0C"/>
<path d="M372.6 167.103C372.56 167.096 372.524 167.074 372.499 167.041C372.475 167.009 372.463 166.968 372.467 166.928L373.16 159.86C373.164 159.817 373.185 159.777 373.219 159.75C373.252 159.722 373.295 159.709 373.338 159.714C373.381 159.718 373.421 159.739 373.448 159.772C373.475 159.806 373.488 159.849 373.484 159.892L372.791 166.959C372.787 167.002 372.766 167.042 372.733 167.069C372.699 167.097 372.657 167.11 372.614 167.105L372.6 167.103Z" fill="#0C0C0C"/>
<path d="M242.809 214.723C265.6 218.008 286.739 202.196 290.024 179.405C293.309 156.614 277.496 135.476 254.705 132.191C231.915 128.906 210.776 144.718 207.491 167.509C204.206 190.3 220.019 211.438 242.809 214.723Z" fill="white"/>
<path opacity="0.09" d="M290.024 179.404C288.848 187.566 285.278 195.195 279.765 201.328C274.253 207.46 267.046 211.82 259.055 213.857C251.065 215.893 242.65 215.515 234.875 212.769C227.099 210.023 220.313 205.033 215.374 198.43C210.434 191.827 207.564 183.907 207.126 175.673C206.687 167.439 208.7 159.26 212.91 152.169C217.12 145.079 223.338 139.397 230.778 135.841C238.218 132.284 246.545 131.014 254.706 132.191C260.134 132.952 265.357 134.781 270.075 137.57C274.793 140.36 278.912 144.056 282.195 148.444C285.478 152.833 287.86 157.828 289.203 163.142C290.547 168.455 290.826 173.982 290.024 179.404Z" fill="#2C4981"/>
<path d="M233.999 146.485C233.999 146.485 232.686 152.655 230.959 154.713C225.986 160.638 223.762 167.789 227.252 172.196C230.741 176.604 256.505 180.371 259.725 171.856C262.435 164.688 259.024 163.383 259.046 157.151C259.056 154.331 258.823 148.381 258.823 148.381" fill="#0A0A0A"/>
<path d="M253.24 169.604C253.197 169.592 251.523 177.712 242.109 175.628C235.593 174.185 234.251 166.857 234.1 166.835C234.832 166.786 236.06 166.739 236.4 166.617C237.518 166.209 238.885 165.814 239.51 163.847C239.87 162.716 240.399 156.727 240.67 155.567L250.457 159.281C249.959 161.741 248.14 167.351 251.46 168.869C252.011 169.119 252.61 169.363 253.24 169.604Z" fill="#FFCAB6"/>
<path opacity="0.5" d="M249.603 166.2C249.518 165.667 249.492 165.126 249.525 164.587C249.589 163.355 249.788 162.135 250.117 160.946C248.102 160.373 246.288 159.246 244.881 157.693C244.593 158.359 243.124 161.24 243.315 161.941C243.677 163.264 245.921 165.67 249.603 166.2Z" fill="#0C0C0C"/>
<path d="M248.663 163.46C244.62 163.272 239.692 160.933 239.389 155.469L239.115 150.54C238.812 145.077 241.435 140.488 246.579 140.203C251.723 139.917 255.814 144.131 256.117 149.596L256.239 151.778C256.355 153.875 255.876 163.797 248.663 163.46Z" fill="#FFCAB6"/>
<path opacity="0.1" d="M247.131 156.139C247.798 156.155 248.349 155.771 248.361 155.281C248.373 154.792 247.842 154.382 247.174 154.365C246.507 154.349 245.956 154.733 245.944 155.222C245.933 155.712 246.464 156.122 247.131 156.139Z" fill="#0C0C0C"/>
<path opacity="0.1" d="M254.341 155.213C254.331 155.701 254.863 156.11 255.53 156.128C255.645 156.131 255.76 156.122 255.874 156.101C255.987 155.532 256.068 154.981 256.125 154.469C255.949 154.397 255.762 154.359 255.572 154.356C254.905 154.338 254.354 154.722 254.341 155.213Z" fill="#0C0C0C"/>
<path opacity="0.5" d="M251.229 156.28L251.238 156.281C251.447 156.268 251.655 156.243 251.86 156.207C252.168 156.152 252.574 156.045 252.56 155.772C252.543 155.46 251.504 152.149 251.385 151.772C251.374 151.741 251.35 151.716 251.32 151.701C251.291 151.686 251.256 151.684 251.224 151.694C251.193 151.704 251.166 151.726 251.15 151.755C251.134 151.784 251.129 151.818 251.137 151.85C251.581 153.262 252.289 155.577 252.301 155.786C252.255 155.876 251.741 155.992 251.224 156.021C251.191 156.023 251.16 156.039 251.138 156.063C251.116 156.088 251.104 156.12 251.104 156.153C251.105 156.186 251.118 156.217 251.141 156.241C251.164 156.265 251.195 156.279 251.228 156.28L251.229 156.28Z" fill="#0C0C0C"/>
<path d="M234.878 151.685L239.486 151.455C243.076 150.526 244.887 144.766 244.887 144.766C244.887 144.766 248.491 149.347 258.823 148.38C258.823 148.38 258.663 134.128 243.309 136.234C238.359 136.913 234.293 141.274 233.868 147.764C233.571 152.314 234.878 151.685 234.878 151.685Z" fill="#0A0A0A"/>
<path d="M239.8 157.116C238.237 157.203 236.877 155.601 236.792 154.038C236.706 152.474 237.924 151.542 239.488 151.455L240.351 152.458L241.146 157.042L239.8 157.116Z" fill="#FFCAB6"/>
<path d="M252.819 149.458C253.238 149.243 253.706 149.144 254.175 149.17C254.411 149.181 254.644 149.228 254.867 149.309C255.091 149.389 255.304 149.497 255.502 149.63L255.508 149.634C255.53 149.647 255.556 149.651 255.581 149.645C255.606 149.639 255.627 149.624 255.641 149.603C255.655 149.582 255.66 149.556 255.656 149.531C255.652 149.506 255.638 149.483 255.617 149.468C255.41 149.317 255.184 149.193 254.945 149.099C254.705 149.002 254.451 148.942 254.194 148.921C253.672 148.875 253.147 148.97 252.674 149.195C252.656 149.204 252.64 149.215 252.626 149.23C252.613 149.245 252.602 149.262 252.595 149.281C252.588 149.3 252.586 149.32 252.587 149.34C252.588 149.36 252.593 149.379 252.602 149.397C252.61 149.415 252.623 149.431 252.638 149.444C252.653 149.458 252.671 149.467 252.69 149.474C252.709 149.48 252.729 149.482 252.749 149.48C252.769 149.479 252.788 149.473 252.806 149.464L252.809 149.462L252.819 149.458Z" fill="#0C0C0C"/>
<path d="M248.643 149.434C248.149 149.259 247.617 149.22 247.103 149.322C246.849 149.37 246.603 149.457 246.375 149.578C246.148 149.698 245.936 149.846 245.746 150.018C245.727 150.035 245.715 150.059 245.713 150.084C245.711 150.11 245.719 150.136 245.735 150.156C245.751 150.175 245.775 150.188 245.801 150.191C245.826 150.194 245.852 150.187 245.872 150.171L245.878 150.167C246.06 150.013 246.261 149.883 246.475 149.779C246.687 149.675 246.914 149.603 247.148 149.567C247.612 149.492 248.088 149.541 248.527 149.709L248.538 149.713C248.557 149.721 248.576 149.725 248.596 149.725C248.616 149.725 248.636 149.721 248.654 149.714C248.672 149.706 248.689 149.695 248.703 149.681C248.717 149.667 248.728 149.65 248.735 149.631C248.743 149.613 248.746 149.593 248.746 149.573C248.746 149.553 248.741 149.534 248.733 149.516C248.725 149.497 248.714 149.481 248.699 149.467C248.685 149.454 248.668 149.443 248.649 149.436L248.643 149.434Z" fill="#0C0C0C"/>
<path d="M239.5 151.382C242.674 150.695 243.973 148.759 244.505 147.255C244.853 146.251 244.987 145.185 244.9 144.127L244.803 144.139C244.889 145.184 244.755 146.235 244.411 147.226C243.888 148.705 242.608 150.61 239.479 151.287L239.5 151.382Z" fill="#0C0C0C"/>
<path d="M275.531 171.152L278.217 165.292C278.276 165.163 278.361 165.048 278.467 164.954C278.573 164.86 278.697 164.789 278.832 164.746C278.967 164.702 279.109 164.687 279.25 164.702C279.391 164.717 279.527 164.761 279.65 164.831C279.873 164.967 280.037 165.182 280.111 165.433C280.185 165.684 280.163 165.953 280.049 166.189L279.473 167.446L283.097 164.325C283.494 163.971 284.207 163.791 284.575 164.262C284.728 164.434 284.819 164.653 284.832 164.883C284.844 165.114 284.779 165.341 284.646 165.529C284.65 165.532 284.654 165.536 284.657 165.539C284.66 165.543 284.662 165.546 284.663 165.55L285.275 165.004C285.389 164.903 285.523 164.828 285.669 164.786C285.815 164.743 285.968 164.734 286.118 164.758C286.268 164.783 286.41 164.84 286.535 164.927C286.66 165.013 286.764 165.126 286.84 165.258C286.954 165.468 286.994 165.711 286.951 165.946C286.908 166.181 286.786 166.395 286.604 166.551L286.344 166.783C286.347 166.794 286.349 166.805 286.348 166.817C286.56 166.701 286.807 166.664 287.044 166.713C287.281 166.762 287.492 166.894 287.641 167.085C287.798 167.299 287.868 167.563 287.838 167.827C287.808 168.09 287.68 168.332 287.479 168.505L286.832 169.082C286.847 169.08 286.862 169.081 286.876 169.087C286.89 169.092 286.902 169.1 286.913 169.112C286.924 169.125 286.931 169.142 286.933 169.16C287.151 169.11 287.38 169.132 287.584 169.224C287.788 169.316 287.956 169.473 288.062 169.67C288.169 169.879 288.203 170.118 288.158 170.348C288.113 170.579 287.991 170.787 287.813 170.94L282.356 175.809C281.592 176.49 280.643 176.927 279.629 177.065C278.615 177.203 277.584 177.035 276.666 176.582C275.875 176.192 275.267 175.509 274.972 174.678C274.676 173.847 274.716 172.933 275.084 172.131L275.531 171.152Z" fill="#FFCAB6"/>
<g opacity="0.2">
<path d="M281.073 168.637C281.089 168.654 281.112 168.665 281.136 168.667C281.16 168.668 281.184 168.66 281.203 168.645L284.645 165.673C284.664 165.657 284.675 165.633 284.677 165.609C284.679 165.584 284.671 165.559 284.655 165.54C284.638 165.521 284.615 165.51 284.59 165.508C284.565 165.506 284.541 165.514 284.522 165.531L281.08 168.502C281.07 168.51 281.063 168.52 281.057 168.531C281.052 168.542 281.048 168.554 281.047 168.566C281.047 168.579 281.048 168.591 281.052 168.603C281.056 168.614 281.062 168.625 281.07 168.635L281.073 168.637Z" fill="#0C0C0C"/>
</g>
<g opacity="0.2">
<path d="M282.341 170.191C282.358 170.209 282.38 170.22 282.405 170.221C282.429 170.223 282.453 170.215 282.472 170.199L286.313 166.882C286.322 166.874 286.33 166.865 286.335 166.853C286.341 166.842 286.344 166.83 286.345 166.818C286.346 166.806 286.344 166.793 286.341 166.782C286.337 166.77 286.33 166.759 286.322 166.75C286.306 166.732 286.283 166.721 286.258 166.719C286.233 166.717 286.209 166.725 286.19 166.74L282.351 170.057C282.341 170.065 282.334 170.075 282.328 170.086C282.323 170.097 282.319 170.109 282.318 170.121C282.317 170.133 282.319 170.146 282.323 170.158C282.327 170.169 282.333 170.18 282.341 170.189L282.341 170.191Z" fill="#0C0C0C"/>
</g>
<g opacity="0.2">
<path d="M283.705 171.882C283.722 171.9 283.745 171.911 283.769 171.912C283.793 171.914 283.817 171.906 283.836 171.89L286.9 169.245C286.917 169.228 286.928 169.206 286.929 169.181C286.93 169.157 286.922 169.134 286.906 169.115C286.89 169.097 286.868 169.086 286.844 169.083C286.82 169.081 286.796 169.088 286.777 169.102L283.713 171.748C283.703 171.756 283.696 171.766 283.69 171.777C283.685 171.788 283.681 171.8 283.68 171.812C283.679 171.824 283.681 171.837 283.685 171.849C283.689 171.86 283.695 171.871 283.703 171.88L283.705 171.882Z" fill="#0C0C0C"/>
</g>
<path d="M286.123 175.405L274.59 206.037C274.564 206.106 274.537 206.177 274.507 206.245C272.705 207.658 270.791 208.923 268.784 210.027C268.381 210.245 267.978 210.46 267.567 210.664C267.333 210.656 267.099 210.635 266.866 210.602C265.623 210.422 264.45 209.919 263.463 209.143C262.476 208.366 261.71 207.344 261.244 206.178L251.268 181.266L264.562 175.946L267.683 183.741L272.723 170.359L286.123 175.405Z" fill="#267E66"/>
<path d="M262.583 186.736C262.468 187.232 262.256 188.115 261.97 189.278C260.521 195.221 257.229 208.457 255.706 214.573C247.406 215.966 238.878 214.825 231.236 211.299L231.233 211.299C225.59 208.684 220.606 204.838 216.646 200.043C217.471 194.497 218.291 188.243 218.495 184.175C219.106 172.022 220.433 170.297 222.42 168.811C222.582 168.69 222.75 168.572 222.918 168.458C224.947 167.087 227.351 166.349 230.698 166.377C232.911 166.397 236.208 166.655 236.208 166.655C236.208 166.655 235.678 172.293 242.227 173.553C251.143 175.269 251.456 168.853 251.501 168.86C253.759 169.185 258.763 170.051 261.7 172.122C261.704 172.122 261.704 172.122 261.706 172.126C262.3 172.528 262.82 173.029 263.245 173.607C266.321 177.976 264.293 179.363 262.583 186.736Z" fill="#267E66"/>
<path d="M252.414 157.519C251.024 157.991 249.516 157.986 248.128 157.506C248.08 157.489 248.029 157.487 247.979 157.499C247.93 157.51 247.885 157.536 247.85 157.573C247.814 157.609 247.79 157.655 247.78 157.705C247.769 157.754 247.774 157.806 247.792 157.854C248.11 158.665 248.934 160.092 250.74 159.819C251.906 159.643 252.494 158.554 252.754 157.865C252.771 157.817 252.775 157.765 252.765 157.716C252.754 157.666 252.73 157.62 252.694 157.584C252.658 157.547 252.613 157.522 252.564 157.51C252.514 157.499 252.462 157.502 252.414 157.519Z" fill="white"/>
<path d="M253.326 151.769C253.671 151.819 253.992 151.579 254.042 151.234C254.092 150.888 253.852 150.568 253.506 150.518C253.16 150.468 252.84 150.708 252.79 151.053C252.74 151.399 252.98 151.72 253.326 151.769Z" fill="#0C0C0C"/>
<path d="M247.159 151.956C247.505 152.005 247.825 151.766 247.875 151.42C247.925 151.074 247.685 150.754 247.339 150.704C246.994 150.654 246.673 150.894 246.623 151.24C246.573 151.585 246.813 151.906 247.159 151.956Z" fill="#0C0C0C"/>
<path d="M259.251 200.047C259.247 200.046 259.243 200.046 259.239 200.045C259.214 200.038 259.193 200.021 259.181 199.998C259.168 199.976 259.165 199.949 259.172 199.924L261.886 188.936C261.889 188.923 261.895 188.912 261.903 188.902C261.911 188.891 261.921 188.883 261.932 188.877C261.943 188.87 261.956 188.867 261.969 188.865C261.981 188.864 261.994 188.865 262.007 188.869C262.032 188.876 262.053 188.893 262.065 188.916C262.078 188.938 262.081 188.965 262.073 188.99L259.36 199.978C259.353 200.001 259.339 200.02 259.319 200.033C259.299 200.045 259.275 200.05 259.251 200.047Z" fill="#0C0C0C"/>
<path d="M252.632 198.545L259.068 196.715C259.21 196.675 259.358 196.665 259.503 196.686C259.649 196.706 259.788 196.757 259.913 196.834C260.038 196.911 260.146 197.013 260.229 197.134C260.312 197.255 260.369 197.392 260.397 197.536C260.439 197.805 260.381 198.079 260.233 198.306C260.084 198.534 259.857 198.698 259.595 198.767L258.214 199.16L263.121 199.919C263.669 199.994 264.291 200.436 264.167 201.044C264.134 201.281 264.022 201.5 263.849 201.665C263.676 201.83 263.452 201.932 263.214 201.954C263.214 201.959 263.214 201.964 263.214 201.97C263.213 201.973 263.211 201.977 263.21 201.981L264.053 202.097C264.209 202.118 264.359 202.174 264.49 202.261C264.622 202.347 264.733 202.462 264.814 202.596C264.896 202.731 264.947 202.882 264.963 203.039C264.979 203.195 264.96 203.354 264.907 203.502C264.819 203.734 264.653 203.929 264.438 204.053C264.224 204.178 263.973 204.225 263.727 204.187L263.368 204.138C263.362 204.148 263.354 204.156 263.345 204.163C263.58 204.253 263.775 204.423 263.896 204.643C264.017 204.863 264.056 205.119 264.005 205.365C263.942 205.633 263.78 205.867 263.552 206.02C263.324 206.174 263.046 206.236 262.774 206.194L261.883 206.072C261.894 206.082 261.903 206.096 261.908 206.11C261.914 206.125 261.915 206.141 261.913 206.156C261.91 206.174 261.901 206.191 261.889 206.204C262.076 206.342 262.213 206.538 262.278 206.761C262.343 206.985 262.333 207.223 262.249 207.44C262.157 207.666 261.991 207.854 261.778 207.974C261.566 208.094 261.319 208.139 261.078 208.101L253.556 207.071C252.504 206.927 251.519 206.472 250.726 205.764C249.934 205.057 249.372 204.129 249.111 203.099C248.885 202.211 249.015 201.271 249.472 200.477C249.929 199.683 250.678 199.099 251.559 198.849L252.632 198.545Z" fill="#FFCAB6"/>
<g opacity="0.2">
<path d="M258.353 201.226C258.349 201.252 258.356 201.278 258.371 201.299C258.387 201.319 258.41 201.333 258.436 201.337L263.103 202.053C263.128 202.056 263.154 202.05 263.175 202.035C263.196 202.019 263.21 201.996 263.214 201.971C263.218 201.945 263.211 201.919 263.196 201.898C263.181 201.877 263.158 201.863 263.132 201.86L258.464 201.144C258.439 201.14 258.413 201.147 258.392 201.162C258.371 201.178 258.358 201.201 258.354 201.226L258.353 201.226Z" fill="#0C0C0C"/>
</g>
<g opacity="0.2">
<path d="M257.981 203.277C257.977 203.302 257.984 203.329 257.999 203.349C258.015 203.37 258.038 203.384 258.063 203.387L263.271 204.186C263.297 204.19 263.323 204.183 263.344 204.168C263.365 204.152 263.378 204.129 263.382 204.103C263.385 204.078 263.378 204.052 263.363 204.032C263.347 204.011 263.325 203.997 263.299 203.993L258.091 203.194C258.065 203.19 258.039 203.197 258.018 203.213C257.998 203.228 257.984 203.251 257.98 203.277L257.981 203.277Z" fill="#0C0C0C"/>
</g>
<g opacity="0.2">
<path d="M257.565 205.493C257.561 205.519 257.567 205.545 257.583 205.565C257.599 205.586 257.622 205.6 257.647 205.604L261.802 206.241C261.827 206.245 261.853 206.238 261.874 206.222C261.895 206.207 261.909 206.184 261.912 206.158C261.916 206.133 261.909 206.107 261.894 206.086C261.878 206.065 261.855 206.051 261.83 206.048L257.675 205.411C257.649 205.407 257.623 205.414 257.603 205.429C257.582 205.445 257.568 205.468 257.565 205.493L257.565 205.493Z" fill="#0C0C0C"/>
</g>
<path d="M252.812 209.563L231.236 211.299L231.233 211.299C225.591 208.684 220.606 204.838 216.646 200.043C216.22 199.528 215.807 199.003 215.406 198.47C214.707 197.537 214.049 196.578 213.431 195.591L219.746 172.486C220.339 170.636 221.642 169.096 223.369 168.207C225.097 167.317 227.107 167.15 228.957 167.743C230.808 168.335 232.347 169.638 233.237 171.366C234.126 173.093 234.293 175.103 233.701 176.954L228.668 198.777L252.723 196.861L252.812 209.563Z" fill="#267E66"/>
<path d="M223.831 198.965C223.818 198.965 223.805 198.961 223.794 198.955C223.782 198.95 223.772 198.942 223.764 198.932C223.755 198.922 223.749 198.911 223.745 198.899C223.741 198.887 223.739 198.874 223.74 198.861C223.741 198.848 223.744 198.836 223.75 198.824C223.756 198.813 223.763 198.802 223.773 198.794C223.783 198.786 223.794 198.779 223.806 198.775C223.818 198.771 223.831 198.769 223.844 198.77L228.659 198.445C228.671 198.445 228.684 198.447 228.696 198.452C228.708 198.457 228.719 198.464 228.728 198.473C228.737 198.482 228.744 198.493 228.749 198.504C228.754 198.516 228.757 198.529 228.757 198.542C228.757 198.555 228.755 198.567 228.75 198.579C228.745 198.591 228.738 198.602 228.729 198.611C228.72 198.62 228.709 198.627 228.697 198.632C228.685 198.637 228.673 198.64 228.66 198.64L223.844 198.965C223.839 198.966 223.835 198.966 223.831 198.965Z" fill="#0C0C0C"/>
<path d="M252.812 209.563C252.814 209.588 252.806 209.613 252.789 209.633C252.773 209.653 252.75 209.665 252.725 209.668L231.739 211.526C231.616 211.472 231.495 211.419 231.375 211.362L252.606 209.487L252.541 196.983L228.665 198.641C228.649 198.642 228.634 198.638 228.62 198.632C228.606 198.625 228.594 198.616 228.585 198.604C228.577 198.591 228.571 198.576 228.569 198.561C228.567 198.546 228.567 198.531 228.571 198.516L231.688 186.08C231.692 186.068 231.699 186.057 231.707 186.047C231.716 186.037 231.726 186.029 231.738 186.024C231.749 186.018 231.762 186.015 231.774 186.014C231.787 186.013 231.8 186.015 231.812 186.019C231.837 186.026 231.858 186.043 231.87 186.066C231.882 186.089 231.884 186.116 231.877 186.14L228.797 198.45L252.614 196.774C252.627 196.772 252.64 196.773 252.652 196.777C252.665 196.781 252.676 196.788 252.686 196.797C252.696 196.805 252.705 196.814 252.711 196.825C252.717 196.836 252.721 196.849 252.723 196.861L252.812 209.563Z" fill="#0C0C0C"/>
<path d="M87.9672 240.939C108.865 243.951 128.248 229.452 131.26 208.554C134.272 187.656 119.773 168.274 98.8751 165.262C77.9773 162.249 58.5945 176.749 55.5824 197.646C52.5703 218.544 67.0695 237.927 87.9672 240.939Z" fill="white"/>
<path opacity="0.09" d="M87.9672 240.939C108.865 243.951 128.248 229.452 131.26 208.554C134.272 187.656 119.773 168.274 98.8751 165.262C77.9773 162.249 58.5945 176.749 55.5824 197.646C52.5703 218.544 67.0695 237.927 87.9672 240.939Z" fill="#2C4981"/>
<path d="M86.0945 180.137C86.0945 180.137 84.8619 191.592 92.3929 193.212L95.8474 178.37L86.0945 180.137Z" fill="#0A0A0A"/>
<path d="M85.5059 194.596C87.9946 194.954 90.3029 193.228 90.6616 190.739C91.0203 188.25 89.2936 185.942 86.8049 185.583C84.3162 185.224 82.0079 186.951 81.6491 189.44C81.2904 191.929 83.0171 194.237 85.5059 194.596Z" fill="#0A0A0A"/>
<path d="M102.711 200.098C102.671 200.087 101.161 207.413 92.6692 205.531C86.7901 204.23 85.5801 197.619 85.4442 197.6C86.1396 197.585 86.8329 197.519 87.5187 197.403C88.5269 197.035 89.7602 196.678 90.3237 194.905C90.6486 193.882 91.1263 188.481 91.3695 187.434L100.199 190.785C99.7472 193.005 98.1084 198.065 101.103 199.435C101.601 199.661 102.141 199.882 102.711 200.098Z" fill="#FFCAB6"/>
<path opacity="0.5" d="M99.4289 197.028C99.3523 196.546 99.3288 196.058 99.3587 195.571C99.4166 194.46 99.5957 193.359 99.8929 192.287C98.0749 191.769 96.4384 190.752 95.1694 189.351C94.9098 189.952 93.5843 192.551 93.7566 193.183C94.082 194.379 96.108 196.549 99.4289 197.028Z" fill="#0C0C0C"/>
<path d="M98.2866 194.831C94.667 194.356 90.4129 191.882 90.5526 186.948L90.679 182.494C90.8184 177.56 93.5233 173.632 98.1692 173.765C102.815 173.897 106.174 177.995 106.034 182.929L105.979 184.9C105.925 186.795 104.745 195.678 98.2866 194.831Z" fill="#FFCAB6"/>
<path d="M104.688 184.582C105.001 184.627 105.291 184.41 105.336 184.097C105.381 183.784 105.164 183.493 104.851 183.448C104.538 183.403 104.248 183.62 104.203 183.933C104.158 184.246 104.375 184.536 104.688 184.582Z" fill="#0C0C0C"/>
<path d="M98.8012 184.409C99.1141 184.454 99.4043 184.237 99.4495 183.924C99.4946 183.611 99.2774 183.321 98.9645 183.276C98.6516 183.231 98.3614 183.448 98.3163 183.761C98.2712 184.074 98.4883 184.364 98.8012 184.409Z" fill="#0C0C0C"/>
<path opacity="0.5" d="M101.135 188.57L101.144 188.572C101.332 188.575 101.521 188.569 101.709 188.552C101.989 188.525 102.364 188.461 102.37 188.214C102.378 187.933 101.694 184.878 101.616 184.53C101.613 184.515 101.606 184.501 101.598 184.489C101.589 184.476 101.577 184.465 101.564 184.457C101.551 184.449 101.537 184.443 101.522 184.441C101.507 184.438 101.491 184.438 101.476 184.442C101.461 184.445 101.447 184.451 101.434 184.46C101.422 184.469 101.411 184.48 101.403 184.493C101.395 184.506 101.389 184.521 101.386 184.536C101.384 184.551 101.384 184.567 101.387 184.582C101.68 185.883 102.142 188.018 102.136 188.208C101.823 188.329 101.484 188.374 101.15 188.337C101.119 188.335 101.089 188.346 101.065 188.366C101.042 188.387 101.028 188.415 101.026 188.446C101.024 188.477 101.034 188.508 101.054 188.531C101.075 188.555 101.104 188.569 101.135 188.571L101.135 188.57Z" fill="#0C0C0C"/>
<path opacity="0.5" d="M100.027 190.472C100.775 190.537 101.528 190.425 102.225 190.145C102.253 190.133 102.275 190.111 102.287 190.083C102.298 190.055 102.299 190.024 102.288 189.996C102.278 189.968 102.256 189.945 102.229 189.932C102.202 189.918 102.171 189.916 102.142 189.926C100.642 190.494 99.3066 190.347 98.2811 189.501C98.2605 189.483 98.239 189.466 98.2166 189.45C98.1904 189.436 98.1593 189.431 98.1301 189.439C98.1008 189.446 98.0755 189.465 98.0594 189.49C98.0433 189.516 98.0377 189.547 98.0437 189.576C98.0497 189.606 98.0669 189.632 98.0917 189.649C98.0997 189.655 98.1132 189.666 98.1317 189.682C98.6707 190.128 99.3306 190.403 100.027 190.472Z" fill="#0C0C0C"/>
<path d="M86.7841 183.204L90.9436 183.346C94.2401 182.782 96.3029 177.739 96.3029 177.739C96.3029 177.739 98.6628 181.356 107.238 181.096C107.238 181.096 108.469 170.266 95.5287 169.95C91.0232 169.841 87.0431 173.802 86.1715 179.605C85.5611 183.671 86.7841 183.204 86.7841 183.204Z" fill="#0A0A0A"/>
<path d="M90.7988 188.459C89.3867 188.42 88.2851 186.877 88.3252 185.465C88.3653 184.053 89.5316 183.307 90.9436 183.347L91.6443 184.313L92.0127 188.494L90.7988 188.459Z" fill="#FFCAB6"/>
<path d="M102.969 182.312C103.412 182.145 103.891 182.099 104.357 182.179C104.587 182.218 104.81 182.291 105.019 182.396C105.227 182.499 105.42 182.627 105.596 182.779C105.613 182.794 105.624 182.815 105.626 182.838C105.629 182.861 105.622 182.884 105.608 182.902C105.593 182.921 105.573 182.933 105.55 182.936C105.527 182.939 105.504 182.934 105.485 182.92L105.479 182.916C105.312 182.781 105.129 182.668 104.933 182.578C104.739 182.489 104.533 182.429 104.322 182.401C103.902 182.343 103.473 182.397 103.081 182.557L103.071 182.562C103.055 182.569 103.037 182.574 103.019 182.574C103.001 182.575 102.983 182.572 102.966 182.565C102.949 182.559 102.934 182.549 102.921 182.537C102.908 182.524 102.897 182.509 102.89 182.493C102.883 182.476 102.879 182.458 102.879 182.44C102.879 182.422 102.883 182.404 102.89 182.387C102.897 182.371 102.907 182.355 102.92 182.343C102.933 182.33 102.949 182.32 102.965 182.314L102.969 182.312Z" fill="#0C0C0C"/>
<path d="M99.2021 182.458C98.8199 182.274 98.3956 182.194 97.9725 182.227C97.7596 182.242 97.5502 182.29 97.3515 182.367C97.151 182.445 96.9609 182.547 96.7857 182.671L96.7802 182.675C96.7608 182.685 96.7382 182.688 96.7168 182.683C96.6954 182.678 96.6766 182.665 96.664 182.647C96.6514 182.629 96.6458 182.607 96.6484 182.585C96.651 182.563 96.6615 182.543 96.678 182.528C96.8621 182.388 97.0632 182.271 97.2765 182.181C97.4912 182.089 97.7185 182.03 97.9508 182.006C98.4209 181.954 98.8964 182.029 99.3277 182.223C99.3445 182.23 99.3596 182.24 99.3723 182.253C99.385 182.266 99.395 182.281 99.4016 182.298C99.4082 182.315 99.4113 182.333 99.4107 182.351C99.4102 182.37 99.406 182.387 99.3984 182.404C99.3908 182.42 99.3799 182.435 99.3665 182.447C99.3531 182.459 99.3373 182.469 99.3202 182.475C99.303 182.481 99.2849 182.483 99.2668 182.482C99.2487 182.481 99.231 182.476 99.2149 182.467L99.2113 182.467L99.2021 182.458Z" fill="#0C0C0C"/>
<path opacity="0.52" d="M99.9464 191.581C100.082 191.595 100.218 191.597 100.353 191.588C100.383 191.585 100.411 191.57 100.431 191.547C100.451 191.524 100.461 191.494 100.459 191.463C100.457 191.433 100.443 191.404 100.42 191.384C100.398 191.364 100.368 191.353 100.338 191.353C100.124 191.384 99.906 191.368 99.6986 191.308C99.4911 191.247 99.299 191.143 99.1351 191.002C99.1141 190.979 99.0848 190.966 99.0538 190.964C99.0227 190.963 98.9924 190.974 98.9694 190.995C98.9465 191.016 98.9329 191.045 98.9316 191.076C98.9303 191.108 98.9413 191.138 98.9623 191.161C99.2319 191.41 99.5797 191.559 99.9464 191.581Z" fill="#0C0C0C"/>
<path opacity="0.1" d="M97.4635 188.133C98.0623 188.198 98.5863 187.894 98.634 187.455C98.6817 187.016 98.235 186.607 97.6362 186.542C97.0375 186.477 96.5134 186.781 96.4657 187.22C96.418 187.659 96.8648 188.068 97.4635 188.133Z" fill="#0C0C0C"/>
<path opacity="0.1" d="M104.013 187.845C103.967 188.284 104.414 188.692 105.012 188.758C105.116 188.77 105.22 188.77 105.324 188.76C105.468 188.257 105.583 187.768 105.673 187.311C105.52 187.233 105.354 187.185 105.184 187.168C104.586 187.102 104.063 187.404 104.013 187.845Z" fill="#0C0C0C"/>
<path d="M114.41 209.73C114.012 212.306 112.683 215.254 111.832 218.926C111.605 219.906 109.062 222.469 108.292 225.616C107.317 229.625 107.27 236.089 106.991 238.847C100.528 241.296 93.5228 241.949 86.7188 240.737C79.9147 239.525 73.566 236.492 68.347 231.962C69.2072 224.898 70.2767 216.178 70.3419 214.06C70.5702 207.07 71.4036 202.748 72.7986 200.871C75.0783 197.807 78.4294 197.254 81.8485 197.28C83.937 197.298 87.0414 197.545 87.0414 197.545C87.0414 197.545 86.5423 202.856 92.7166 204.045C101.121 205.664 101.417 199.617 101.459 199.623C104.528 200.066 110.24 201.639 112.25 203.48C114.382 205.428 114.771 207.431 114.41 209.73Z" fill="#DFA41E"/>
<path d="M84.5971 209.529L69.5065 232.927C65.4738 229.689 62.1387 225.668 59.7023 221.107L72.2905 201.589L84.5971 209.529Z" fill="#DFA41E"/>
<path d="M121.018 229.558C118.317 232.371 115.202 234.756 111.782 236.631C110.656 237.251 109.498 237.813 108.314 238.314L100.265 210.712L114.324 206.61L121.018 229.558Z" fill="#DFA41E"/>
<path d="M188.079 104.071C209.837 107.207 230.018 92.1109 233.154 70.353C236.29 48.5951 221.194 28.4146 199.436 25.2785C177.678 22.1424 157.498 37.2383 154.362 58.9962C151.225 80.7541 166.321 100.935 188.079 104.071Z" fill="white"/>
<path opacity="0.09" d="M188.079 104.071C209.837 107.207 230.018 92.1109 233.154 70.353C236.29 48.5951 221.194 28.4146 199.436 25.2785C177.678 22.1424 157.498 37.2383 154.362 58.9962C151.225 80.7541 166.321 100.935 188.079 104.071Z" fill="#2C4981"/>
<path d="M204.776 42.1814C204.776 42.1814 207.661 39.8373 208.21 34.6597C208.635 30.6509 205.049 33.367 205.049 33.367C205.049 33.367 205.327 30.4776 203.244 30.8381C201.16 31.1987 200.094 34.2619 200.094 34.2619" fill="#0C0C0C"/>
<path d="M192.425 31.5638C192.425 31.5638 182.069 33.0516 186.334 47.0041L187.256 47.0325L189.128 47.0905" fill="#0C0C0C"/>
<path d="M202.248 63.1333C202.203 63.121 200.499 71.384 190.921 69.2603C184.29 67.7919 182.924 60.335 182.771 60.3129C183.516 60.2634 184.443 60.1593 184.809 60.1302C185.609 60.0622 186.369 59.7523 186.988 59.2418C187.607 58.7313 188.056 58.0444 188.275 57.2725C188.642 56.1193 189.18 50.0267 189.455 48.8462L199.414 52.6259C198.906 55.1302 197.056 60.8381 200.434 62.3823C200.996 62.6386 201.606 62.8876 202.248 63.1333Z" fill="#FFCAB6"/>
<path opacity="0.52" d="M198.546 59.669C198.46 59.1263 198.433 58.5758 198.467 58.0274C198.532 56.7742 198.734 55.5319 199.069 54.3226C197.019 53.7388 195.173 52.5915 193.742 51.0111C193.448 51.6892 191.953 54.6213 192.148 55.3338C192.515 56.6809 194.8 59.129 198.546 59.669Z" fill="#0C0C0C"/>
<path d="M197.249 56.773C193.138 56.553 188.138 54.1394 187.867 48.5779L187.623 43.5598C187.352 37.9971 190.054 33.3477 195.29 33.093C200.526 32.838 204.66 37.1561 204.931 42.7175L205.038 44.9389C205.062 45.7023 205.034 46.4664 204.954 47.226C204.757 49.2361 204.45 52.2901 203.166 54.3955C201.955 56.3838 199.876 56.914 197.249 56.773Z" fill="#FFCAB6"/>
<path opacity="0.5" d="M198.633 51.5128C199.379 51.606 200.136 51.5227 200.843 51.2697C200.858 51.2653 200.872 51.2578 200.884 51.2478C200.897 51.2378 200.907 51.2254 200.914 51.2113C200.922 51.1973 200.926 51.1819 200.927 51.1661C200.928 51.1503 200.927 51.1345 200.921 51.1194C200.916 51.1044 200.908 51.0906 200.898 51.0787C200.887 51.0669 200.874 51.0573 200.86 51.0506C200.846 51.0438 200.83 51.04 200.814 51.0395C200.799 51.0389 200.783 51.0415 200.768 51.0472C199.248 51.5583 197.919 51.3598 196.926 50.4756C196.906 50.4571 196.885 50.4396 196.863 50.4232C196.851 50.4145 196.836 50.4084 196.821 50.4053C196.806 50.4021 196.791 50.4019 196.776 50.4048C196.76 50.4076 196.746 50.4134 196.733 50.4218C196.72 50.4302 196.709 50.4411 196.7 50.4538C196.692 50.4665 196.686 50.4808 196.682 50.4959C196.679 50.511 196.679 50.5265 196.682 50.5417C196.685 50.5568 196.691 50.5712 196.699 50.5841C196.707 50.5971 196.718 50.6082 196.731 50.6169C196.739 50.623 196.752 50.6347 196.77 50.6507C197.291 51.1172 197.94 51.4174 198.633 51.5128Z" fill="#0C0C0C"/>
<path opacity="0.52" d="M198.511 52.6188C198.645 52.6378 198.781 52.6453 198.917 52.6412C198.932 52.6408 198.947 52.6373 198.961 52.6311C198.975 52.6248 198.988 52.6159 198.999 52.6047C199.009 52.5936 199.017 52.5804 199.023 52.5661C199.029 52.5517 199.031 52.5364 199.031 52.521C199.03 52.5056 199.027 52.4905 199.021 52.4764C199.014 52.4623 199.005 52.4496 198.994 52.439C198.983 52.4284 198.97 52.4201 198.956 52.4146C198.941 52.4091 198.926 52.4065 198.911 52.4068C198.696 52.4289 198.479 52.4049 198.274 52.3365C198.069 52.2681 197.881 52.1568 197.722 52.01C197.702 51.9871 197.673 51.973 197.643 51.9709C197.612 51.9687 197.582 51.9787 197.558 51.9985C197.535 52.0184 197.52 52.0466 197.518 52.0771C197.515 52.1077 197.524 52.1381 197.544 52.1618C197.803 52.4214 198.145 52.5829 198.511 52.6188Z" fill="#0C0C0C"/>
<path d="M203.204 46.066C203.556 46.1169 203.884 45.872 203.935 45.5191C203.986 45.1661 203.741 44.8388 203.388 44.7879C203.035 44.737 202.707 44.9819 202.657 45.3349C202.606 45.6878 202.851 46.0151 203.204 46.066Z" fill="#0C0C0C"/>
<path d="M196.885 45.8966C197.238 45.9475 197.565 45.7026 197.616 45.3496C197.667 44.9967 197.422 44.6693 197.069 44.6185C196.716 44.5676 196.389 44.8125 196.338 45.1654C196.287 45.5184 196.532 45.8457 196.885 45.8966Z" fill="#0C0C0C"/>
<path d="M188.275 50.2564C186.684 50.3338 185.311 48.6941 185.233 47.1028C185.155 45.5114 186.403 44.5713 187.994 44.4939L188.866 45.5201L189.643 50.1898L188.275 50.2564Z" fill="#FFCAB6"/>
<path d="M189.767 47.6409C189.767 47.6409 190.022 39.7488 192.391 39.1769C193.97 38.7958 197.906 40.9125 201.453 40.1033C203.005 39.749 204.502 40.0825 204.679 40.8153C204.75 41.1052 205.573 36.8709 203.011 33.7717C200.972 31.3044 194.571 30.8169 191.701 31.7532C183.753 34.3456 187.679 44.8513 187.679 44.8513L188.134 47.5526L189.767 47.6409Z" fill="#0C0C0C"/>
<g opacity="0.52">
<path d="M199.864 49.7263L199.873 49.7277C200.387 49.703 201.244 49.6073 201.228 49.224C201.213 48.9059 200.185 45.5144 200.068 45.129C200.063 45.1125 200.055 45.0973 200.044 45.084C200.033 45.0708 200.02 45.0598 200.005 45.0517C199.989 45.0436 199.973 45.0386 199.956 45.037C199.939 45.0353 199.922 45.037 199.905 45.042C199.889 45.047 199.873 45.0552 199.86 45.0661C199.847 45.077 199.836 45.0904 199.828 45.1055C199.82 45.1207 199.815 45.1372 199.813 45.1543C199.811 45.1714 199.813 45.1886 199.818 45.205C200.274 46.707 200.957 49.0188 200.967 49.2357C200.921 49.3277 200.394 49.4421 199.863 49.4665C199.829 49.4667 199.795 49.4807 199.771 49.5055C199.746 49.5303 199.732 49.5638 199.732 49.5987C199.733 49.6336 199.747 49.667 199.771 49.6916C199.796 49.7162 199.83 49.7299 199.865 49.7297L199.864 49.7263Z" fill="#0C0C0C"/>
</g>
<path d="M201.339 41.9919C201.873 41.8244 202.442 41.8043 202.987 41.9335C203.254 41.9953 203.51 42.0968 203.748 42.2346C203.982 42.3693 204.199 42.5331 204.392 42.722C204.428 42.7556 204.45 42.8018 204.453 42.851C204.456 42.9003 204.439 42.9486 204.407 42.986C204.375 43.0233 204.329 43.0466 204.28 43.0511C204.231 43.0556 204.182 43.0409 204.144 43.01L204.13 43.0028C203.952 42.8493 203.755 42.7188 203.545 42.6143C203.338 42.5104 203.116 42.4385 202.888 42.401C202.438 42.3233 201.976 42.3659 201.548 42.5244L201.53 42.5314C201.495 42.5452 201.458 42.552 201.42 42.5513C201.383 42.5507 201.345 42.5426 201.311 42.5277C201.277 42.5127 201.245 42.4911 201.219 42.4641C201.193 42.4371 201.173 42.4052 201.159 42.3702C201.145 42.3353 201.138 42.2979 201.139 42.2604C201.14 42.2228 201.148 42.1857 201.163 42.1513C201.177 42.1168 201.199 42.0856 201.226 42.0595C201.253 42.0334 201.285 42.0128 201.32 41.9991L201.339 41.9919Z" fill="#0C0C0C"/>
<path d="M197.532 42.4541C197.115 42.2697 196.656 42.1987 196.202 42.2483C195.972 42.2715 195.747 42.3296 195.534 42.4205C195.317 42.5116 195.112 42.6296 194.924 42.7716L194.912 42.7804C194.872 42.8095 194.822 42.8217 194.773 42.8145C194.724 42.8073 194.68 42.7811 194.649 42.7417C194.619 42.7022 194.606 42.6525 194.612 42.6033C194.618 42.554 194.643 42.509 194.681 42.4779C194.886 42.3008 195.112 42.1503 195.355 42.0301C195.6 41.9072 195.862 41.8216 196.133 41.7763C196.404 41.7283 196.681 41.7177 196.955 41.7448C197.235 41.7696 197.511 41.8342 197.774 41.9366C197.845 41.9642 197.902 42.0188 197.932 42.0883C197.963 42.1578 197.964 42.2365 197.936 42.3072C197.909 42.3778 197.854 42.4346 197.785 42.4651C197.715 42.4955 197.637 42.4971 197.566 42.4695L197.55 42.4625L197.532 42.4541Z" fill="#0C0C0C"/>
<path d="M200.376 36.6006C201.546 36.312 202.149 34.6826 201.725 32.9612C201.3 31.2398 200.008 30.0782 198.838 30.3667C197.669 30.6553 197.065 32.2847 197.49 34.0061C197.914 35.7275 199.207 36.8891 200.376 36.6006Z" fill="#0C0C0C"/>
<path d="M214.389 73.6758C214.043 76.3517 212.567 79.2032 211.633 83.218C211.443 84.0324 211.014 85.8249 210.45 88.1604C209.521 92.0279 208.225 97.3746 207.069 102.196C200.133 104.651 192.652 105.138 185.455 103.603C178.258 102.068 171.627 98.5703 166.296 93.498C166.17 93.3713 166.043 93.2478 165.916 93.1275C166.335 87.5491 166.726 81.6872 166.848 77.9664C167.071 71.0181 166.521 67.4635 167.436 65.2477C167.51 65.0586 167.601 64.8759 167.705 64.7013C169.97 60.8718 175.576 59.8254 179.267 59.8576C181.519 59.8765 184.875 60.1398 184.875 60.1398C184.875 60.1398 184.334 65.875 190.998 67.1577C200.07 68.906 200.39 62.3762 200.435 62.3827C201.914 62.5958 209.815 64.8328 211.638 66.4371C211.944 66.7049 212.232 66.9924 212.501 67.2979C213.27 68.1535 213.839 69.17 214.166 70.2734C214.492 71.3768 214.569 72.5392 214.389 73.6758Z" fill="#383838"/>
<path d="M180.16 72.9571L166.297 93.4978C166.17 93.3711 166.043 93.2476 165.916 93.1273C162.213 89.4945 159.251 85.1771 157.194 80.4149L167.436 65.2475L167.841 64.6451L180.16 72.9571Z" fill="#383838"/>
<path d="M178.763 75.3502L166.239 93.4405C166.182 93.3829 166.127 93.329 166.069 93.2778L178.575 75.2211C178.592 75.1961 178.619 75.179 178.65 75.1735C178.68 75.168 178.711 75.1746 178.737 75.1919C178.761 75.2094 178.778 75.2359 178.783 75.2656C178.788 75.2953 178.781 75.3257 178.763 75.3502Z" fill="white"/>
<path d="M227.546 85.735C224.977 89.8442 221.682 93.4515 217.821 96.3804L210.45 88.1602L201.089 77.7164L212.501 67.2978L212.535 67.2665L227.546 85.735Z" fill="#383838"/>
<path d="M210.567 88.2648C210.595 88.2674 210.622 88.2599 210.645 88.2437C210.667 88.2276 210.683 88.2038 210.69 88.1769L212.177 81.7726C212.184 81.7431 212.179 81.712 212.163 81.6862C212.147 81.6604 212.121 81.642 212.092 81.6351C212.062 81.6286 212.031 81.6339 212.006 81.6499C211.98 81.6658 211.962 81.6912 211.955 81.7205L210.467 88.125C210.46 88.1546 210.465 88.1856 210.481 88.2113C210.497 88.237 210.523 88.2554 210.552 88.2623L210.567 88.2648Z" fill="white"/>
<path d="M348.996 301.405C369.749 304.396 388.997 289.998 391.988 269.245C394.979 248.493 380.581 229.245 359.828 226.254C339.076 223.262 319.828 237.661 316.837 258.413C313.845 279.166 328.244 298.414 348.996 301.405Z" fill="white"/>
<path opacity="0.09" d="M316.837 258.412C315.765 265.844 316.922 273.426 320.16 280.201C323.398 286.975 328.572 292.637 335.028 296.471C341.484 300.304 348.932 302.137 356.43 301.738C363.928 301.339 371.139 298.725 377.151 294.228C383.164 289.73 387.707 283.551 390.208 276.471C392.708 269.391 393.053 261.729 391.199 254.453C389.344 247.177 385.374 240.615 379.79 235.595C374.206 230.576 367.259 227.325 359.827 226.254C354.89 225.523 349.858 225.778 345.02 227.001C340.181 228.225 335.633 230.394 331.637 233.383C327.641 236.372 324.276 240.123 321.735 244.419C319.195 248.714 317.53 253.47 316.837 258.412Z" fill="#2C4981"/>
<path d="M374.451 245.551C372.848 252.422 373.064 254.862 375.379 259.264C377.331 262.976 363.879 258.121 357.902 256.145L365.595 241.104C365.595 241.104 375.014 243.139 374.451 245.551Z" fill="#0A0A0A"/>
<path d="M353.704 239.606C350.922 246.09 350.825 248.206 346.773 251.237C343.414 253.75 354.769 255.995 360.753 257.947L363.474 241.274C363.474 241.274 354.682 237.329 353.704 239.606Z" fill="#0A0A0A"/>
<path d="M351.487 259.311C351.528 259.311 350.903 266.835 359.661 267.434C365.725 267.849 368.781 261.793 368.918 261.813C368.249 261.6 367.597 261.338 366.966 261.03C366.095 260.387 365.002 259.69 364.962 257.812C364.939 256.729 366.016 251.363 366.079 250.279L356.575 251.007C356.378 253.285 356.525 258.652 353.235 259.124C352.686 259.203 352.1 259.262 351.487 259.311Z" fill="#FFCAB6"/>
<path opacity="0.5" d="M355.54 257.273C355.751 256.829 355.913 256.363 356.023 255.884C356.283 254.791 356.424 253.674 356.442 252.551C358.35 252.568 360.224 252.05 361.852 251.055C361.932 251.711 362.475 254.606 362.128 255.168C361.472 256.232 358.892 257.756 355.54 257.273Z" fill="#0C0C0C"/>
<path d="M357.065 255.121C360.645 255.995 365.551 255.22 367.221 250.526L368.728 246.29C370.398 241.596 369.286 236.914 364.866 235.341C360.446 233.769 355.789 236.4 354.119 241.094L353.452 242.97C352.811 244.77 350.678 253.561 357.065 255.121Z" fill="#FFCAB6"/>
<path d="M372.923 248.301L368.893 247.262C361.092 244.633 360.062 237.885 360.062 237.885C360.062 237.885 356.054 241.888 353.349 240.446C353.349 240.446 355.828 229.759 368.223 233.486C373.093 234.951 375.325 239.485 374.527 245.02C373.941 249.089 372.923 248.301 372.923 248.301Z" fill="#0A0A0A"/>
<path opacity="0.1" d="M361.556 248.621C361.672 248.191 361.289 247.714 360.702 247.557C360.115 247.399 359.546 247.621 359.43 248.051C359.315 248.482 359.697 248.959 360.284 249.116C360.871 249.274 361.441 249.052 361.556 248.621Z" fill="#0C0C0C"/>
<path opacity="0.1" d="M354.227 246.457C354.111 246.886 353.542 247.108 352.954 246.951C352.853 246.924 352.754 246.886 352.661 246.839C352.708 246.313 352.779 245.811 352.861 245.348C353.033 245.331 353.206 245.345 353.373 245.392C353.959 245.548 354.341 246.025 354.227 246.457Z" fill="#0C0C0C"/>
<path opacity="0.5" d="M356.671 248.19L356.662 248.188C356.483 248.123 356.308 248.048 356.137 247.964C355.883 247.836 355.554 247.639 355.638 247.404C355.733 247.137 357.492 244.511 357.692 244.213C357.701 244.2 357.712 244.188 357.725 244.179C357.738 244.17 357.753 244.164 357.768 244.16C357.784 244.157 357.8 244.157 357.815 244.16C357.831 244.163 357.846 244.169 357.859 244.178C357.872 244.187 357.883 244.198 357.892 244.211C357.9 244.225 357.906 244.239 357.909 244.255C357.912 244.271 357.912 244.287 357.908 244.302C357.905 244.317 357.898 244.332 357.889 244.345C357.139 245.463 355.925 247.303 355.861 247.484C356.111 247.712 356.413 247.877 356.741 247.965C356.77 247.976 356.793 247.997 356.807 248.024C356.82 248.051 356.823 248.083 356.813 248.112C356.804 248.141 356.785 248.165 356.758 248.18C356.731 248.195 356.7 248.199 356.671 248.191L356.671 248.19Z" fill="#0C0C0C"/>
<path d="M366.438 251.858C367.781 252.336 369.381 251.287 369.859 249.943C370.337 248.6 369.511 247.472 368.168 246.994L367.156 247.648L365.283 251.448L366.438 251.858Z" fill="#FFCAB6"/>
<path d="M357.036 241.821C356.883 241.676 356.711 241.551 356.524 241.451C356.336 241.348 356.134 241.271 355.925 241.223C355.715 241.172 355.5 241.153 355.285 241.166C355.068 241.179 354.854 241.218 354.648 241.285L354.641 241.286C354.619 241.291 354.596 241.287 354.577 241.275C354.558 241.264 354.543 241.246 354.537 241.224C354.53 241.203 354.532 241.18 354.541 241.159C354.551 241.139 354.567 241.123 354.588 241.114C354.808 241.036 355.038 240.985 355.27 240.964C355.505 240.941 355.742 240.954 355.973 241.002C356.441 241.097 356.875 241.315 357.23 241.634C357.255 241.658 357.27 241.692 357.271 241.727C357.272 241.763 357.26 241.797 357.236 241.823C357.212 241.849 357.179 241.865 357.143 241.867C357.108 241.869 357.073 241.858 357.046 241.834L357.043 241.832L357.036 241.821Z" fill="#0C0C0C"/>
<path d="M360.689 242.874C361.166 242.848 361.641 242.951 362.064 243.172C362.274 243.28 362.466 243.418 362.635 243.583C362.802 243.746 362.949 243.929 363.071 244.128C363.085 244.148 363.09 244.173 363.085 244.196C363.081 244.22 363.067 244.241 363.047 244.254C363.027 244.268 363.003 244.273 362.979 244.268C362.956 244.264 362.935 244.25 362.921 244.23L362.917 244.225C362.798 244.043 362.656 243.878 362.495 243.732C362.336 243.587 362.157 243.466 361.962 243.374C361.576 243.189 361.147 243.11 360.72 243.144L360.71 243.145C360.674 243.148 360.638 243.137 360.61 243.114C360.582 243.092 360.565 243.059 360.561 243.023C360.558 242.987 360.568 242.951 360.591 242.923C360.614 242.895 360.647 242.877 360.683 242.874L360.689 242.874Z" fill="#0C0C0C"/>
<path d="M332.156 294.591C330.772 293.734 329.766 292.886 327.518 290.622C325.895 288.993 324.423 287.22 323.123 285.324L339.627 262.545L340.344 261.556L351.141 269.381L338.228 287.205L338.169 287.283L338.208 287.639" fill="#AC3742"/>
<path d="M378.088 280.974C377.221 284.58 376.328 290.253 375.623 295.31C370.101 299.036 363.695 301.242 357.05 301.707C350.405 302.172 343.754 300.879 337.767 297.958C338.097 290.226 338.569 278.862 338.919 271.874C339.296 264.637 337.717 262.001 343.448 259.335C346.545 258.282 351.139 258.812 353.196 259.109C351.522 265.779 365.67 268.669 367.121 261.116C377.649 263.652 382.554 264.612 378.088 280.974Z" fill="#AC3742"/>
<path d="M355.316 248.967C356.409 249.737 357.728 250.12 359.063 250.057C359.11 250.055 359.155 250.066 359.196 250.089C359.236 250.112 359.269 250.147 359.29 250.188C359.312 250.229 359.321 250.275 359.317 250.321C359.313 250.367 359.296 250.411 359.268 250.448C358.783 251.075 357.695 252.109 356.187 251.407C355.214 250.953 354.98 249.852 354.93 249.182C354.926 249.136 354.936 249.089 354.958 249.048C354.98 249.007 355.013 248.973 355.054 248.951C355.095 248.928 355.141 248.918 355.188 248.92C355.234 248.923 355.279 248.939 355.316 248.967Z" fill="white"/>
<path d="M355.999 243.711C356.313 243.756 356.605 243.538 356.651 243.223C356.696 242.908 356.478 242.616 356.163 242.571C355.848 242.526 355.556 242.744 355.511 243.059C355.466 243.373 355.684 243.665 355.999 243.711Z" fill="#0C0C0C"/>
<path d="M361.338 245.458C361.652 245.504 361.944 245.285 361.989 244.971C362.035 244.656 361.816 244.364 361.502 244.319C361.187 244.273 360.895 244.492 360.85 244.806C360.805 245.121 361.023 245.413 361.338 245.458Z" fill="#0C0C0C"/>
<path d="M338.408 284.357L338.419 284.358C338.442 284.358 338.465 284.349 338.482 284.332C338.498 284.316 338.508 284.293 338.508 284.269L338.964 273.974C338.964 273.962 338.962 273.95 338.958 273.939C338.953 273.928 338.947 273.918 338.939 273.91C338.93 273.902 338.92 273.895 338.91 273.891C338.899 273.886 338.887 273.884 338.875 273.884C338.864 273.884 338.852 273.886 338.841 273.891C338.83 273.895 338.82 273.902 338.812 273.91C338.804 273.918 338.797 273.928 338.793 273.939C338.788 273.95 338.786 273.961 338.786 273.973L338.33 284.269C338.33 284.29 338.338 284.311 338.352 284.327C338.367 284.343 338.386 284.354 338.408 284.357Z" fill="#0C0C0C"/>
<path d="M338.205 276.436L327.92 274.954L326.102 287.567L336.387 289.049L338.205 276.436Z" fill="white"/>
<path d="M333.085 282.136C333.205 281.303 333.569 280.525 334.132 279.899C334.695 279.273 335.43 278.828 336.246 278.62C337.062 278.413 337.92 278.452 338.714 278.732C339.508 279.012 340.2 279.522 340.704 280.196C341.208 280.87 341.501 281.678 341.546 282.518C341.59 283.359 341.385 284.194 340.955 284.917C340.525 285.641 339.89 286.221 339.131 286.584C338.372 286.947 337.522 287.076 336.689 286.956C335.572 286.794 334.566 286.195 333.89 285.291C333.214 284.388 332.925 283.253 333.085 282.136ZM334.809 282.385C334.739 282.877 334.815 283.378 335.029 283.827C335.244 284.275 335.586 284.65 336.013 284.903C336.441 285.157 336.933 285.278 337.43 285.252C337.926 285.226 338.403 285.053 338.801 284.755C339.199 284.457 339.499 284.048 339.665 283.58C339.83 283.111 339.853 282.604 339.731 282.123C339.608 281.641 339.345 281.207 338.976 280.875C338.606 280.543 338.146 280.327 337.654 280.257C336.995 280.162 336.325 280.333 335.792 280.732C335.259 281.131 334.905 281.726 334.809 282.385Z" fill="white"/>
<path d="M336.989 284.292C337.054 284.084 337.191 283.905 337.375 283.787C337.559 283.669 337.778 283.62 337.995 283.648C337.99 283.638 337.987 283.628 337.987 283.618L337.69 283.507C337.482 283.434 337.307 283.292 337.192 283.104C337.078 282.916 337.032 282.695 337.062 282.477C337.083 282.341 337.135 282.211 337.213 282.097C337.291 281.983 337.393 281.888 337.512 281.819C337.631 281.749 337.764 281.707 337.901 281.695C338.039 281.683 338.177 281.702 338.306 281.75L339.006 282.01C339.007 282.007 339.007 282.005 339.008 282.002C339.01 281.996 339.013 281.991 339.016 281.986C338.841 281.87 338.71 281.699 338.644 281.499C338.579 281.299 338.583 281.083 338.656 280.886C338.812 280.363 339.479 280.28 339.934 280.449L341.757 281.053L341.186 280.544C341.006 280.377 340.897 280.148 340.879 279.904C340.862 279.66 340.938 279.418 341.092 279.228C341.175 279.132 341.277 279.054 341.391 278.999C341.504 278.945 341.628 278.913 341.755 278.908C341.881 278.902 342.007 278.923 342.125 278.967C342.244 279.012 342.352 279.081 342.442 279.169L348.742 288.888L347.176 287.887C346.546 288.577 345.725 289.062 344.817 289.282C343.909 289.502 342.956 289.445 342.08 289.119L338.118 287.638C337.911 287.565 337.735 287.423 337.62 287.235C337.506 287.047 337.46 286.826 337.49 286.608C337.521 286.412 337.614 286.231 337.755 286.092C337.897 285.953 338.079 285.862 338.275 285.833C338.271 285.819 338.271 285.803 338.275 285.789C338.28 285.775 338.287 285.763 338.297 285.753C338.308 285.743 338.32 285.735 338.334 285.731L337.603 285.46C337.372 285.379 337.18 285.214 337.066 284.997C336.952 284.78 336.924 284.528 336.989 284.292Z" fill="#FFCAB6"/>
<path opacity="0.2" d="M340.329 282.511C340.349 282.509 340.368 282.501 340.383 282.487C340.398 282.473 340.407 282.454 340.41 282.434C340.412 282.414 340.408 282.394 340.397 282.376C340.386 282.359 340.37 282.346 340.35 282.34L339.118 281.944C339.106 281.94 339.095 281.938 339.083 281.939C339.071 281.94 339.06 281.943 339.049 281.948C339.038 281.953 339.029 281.96 339.021 281.969C339.014 281.978 339.008 281.988 339.004 282C339.001 282.011 338.999 282.023 339 282.034C339.001 282.046 339.005 282.057 339.01 282.068C339.016 282.078 339.024 282.087 339.033 282.095C339.042 282.102 339.053 282.108 339.064 282.111L340.297 282.507C340.307 282.51 340.318 282.511 340.329 282.511Z" fill="#0C0C0C"/>
<path opacity="0.2" d="M339.766 284.254C339.787 284.253 339.806 284.244 339.821 284.23C339.835 284.217 339.845 284.198 339.847 284.178C339.85 284.158 339.846 284.137 339.835 284.12C339.824 284.103 339.808 284.09 339.788 284.084L338.102 283.527C338.09 283.523 338.079 283.521 338.067 283.521C338.055 283.522 338.043 283.524 338.032 283.529C338.022 283.535 338.012 283.542 338.004 283.551C337.996 283.56 337.99 283.57 337.987 283.581C337.983 283.592 337.982 283.604 337.983 283.616C337.984 283.628 337.987 283.64 337.993 283.65C337.998 283.66 338.006 283.67 338.015 283.677C338.025 283.684 338.035 283.69 338.047 283.693L339.733 284.25C339.744 284.253 339.755 284.255 339.766 284.254Z" fill="#0C0C0C"/>
<path opacity="0.2" d="M339.169 286.146C339.19 286.145 339.209 286.136 339.224 286.122C339.239 286.108 339.248 286.089 339.25 286.069C339.253 286.048 339.248 286.028 339.237 286.011C339.225 285.994 339.208 285.981 339.189 285.975L338.386 285.731C338.364 285.726 338.341 285.729 338.322 285.74C338.303 285.751 338.288 285.769 338.282 285.791C338.275 285.812 338.277 285.835 338.287 285.855C338.297 285.875 338.314 285.891 338.335 285.898L339.138 286.143C339.148 286.146 339.159 286.147 339.169 286.146Z" fill="#0C0C0C"/>
<path d="M382.176 289.716C376.589 295.704 369.22 299.731 361.163 301.199L361.16 301.195C359.501 300.615 344.143 291.838 342.049 291.105L345.991 280.449C351.87 282.525 362.239 288.759 368.152 290.845L366.664 270.756C366.632 269.874 366.776 268.994 367.087 268.167C367.398 267.341 367.87 266.584 368.476 265.942C369.082 265.299 369.809 264.783 370.615 264.424C371.422 264.064 372.292 263.868 373.174 263.848C374.057 263.827 374.935 263.982 375.758 264.303C376.58 264.624 377.331 265.105 377.966 265.719C378.601 266.332 379.108 267.066 379.458 267.877C379.807 268.688 379.992 269.56 380.002 270.443L382.176 289.716Z" fill="#AC3742"/>
<path d="M372.559 292.943C372.581 292.946 372.603 292.941 372.621 292.928C372.639 292.915 372.652 292.896 372.657 292.874C372.662 292.853 372.658 292.83 372.647 292.811C372.636 292.791 372.618 292.777 372.597 292.77L368.245 290.558C368.233 290.554 368.222 290.553 368.21 290.554C368.198 290.555 368.187 290.559 368.177 290.564C368.166 290.57 368.157 290.578 368.15 290.587C368.143 290.596 368.137 290.606 368.134 290.618C368.127 290.64 368.13 290.664 368.141 290.685C368.152 290.706 368.171 290.721 368.194 290.728L372.546 292.94C372.55 292.942 372.555 292.943 372.559 292.943Z" fill="#0C0C0C"/>
<path d="M368.304 290.642C368.303 290.67 368.29 290.697 368.27 290.715C368.258 290.724 368.245 290.729 368.231 290.731C368.218 290.733 368.203 290.732 368.19 290.728L346.119 280.602L342.249 291.091L361.052 301.215C360.988 301.227 360.92 301.238 360.856 301.25C360.81 301.258 360.764 301.266 360.715 301.271L342.098 291.221C342.077 291.212 342.06 291.195 342.051 291.173C342.042 291.152 342.041 291.128 342.049 291.106L345.991 280.449C345.996 280.439 346.002 280.429 346.011 280.421C346.019 280.413 346.029 280.407 346.04 280.402C346.051 280.397 346.062 280.394 346.074 280.394C346.086 280.393 346.098 280.396 346.109 280.401L368.123 290.528L367.067 279.419C367.067 279.395 367.077 279.373 367.093 279.356C367.109 279.34 367.132 279.33 367.155 279.33C367.167 279.329 367.178 279.331 367.189 279.335C367.2 279.339 367.21 279.345 367.219 279.353C367.228 279.361 367.235 279.37 367.239 279.381C367.244 279.392 367.247 279.403 367.248 279.415L368.304 290.642Z" fill="#0C0C0C"/>
<path d="M69.7343 233.29C69.7129 233.287 69.6923 233.28 69.6737 233.269C69.6553 233.258 69.6394 233.243 69.6267 233.226C69.6139 233.209 69.6047 233.189 69.5996 233.168C69.5944 233.148 69.5934 233.126 69.5966 233.105C69.5997 233.084 69.607 233.064 69.6181 233.045L78.0916 218.954C78.1139 218.917 78.1499 218.89 78.1919 218.88C78.2338 218.869 78.2781 218.876 78.3151 218.898C78.3521 218.921 78.3787 218.957 78.3891 218.998C78.3995 219.04 78.3928 219.085 78.3705 219.122L69.8971 233.213C69.8806 233.24 69.8564 233.262 69.8274 233.276C69.7985 233.29 69.7661 233.295 69.7343 233.29Z" fill="#0C0C0C"/>
<path d="M106.848 238.814L106.841 238.813C106.819 238.811 106.799 238.804 106.78 238.794C106.761 238.784 106.744 238.771 106.731 238.754C106.717 238.738 106.707 238.718 106.701 238.698C106.695 238.678 106.692 238.656 106.695 238.635L108.203 223.19C108.208 223.148 108.23 223.109 108.263 223.082C108.295 223.055 108.338 223.041 108.38 223.044C108.401 223.046 108.422 223.052 108.441 223.062C108.46 223.072 108.477 223.086 108.49 223.103C108.504 223.119 108.514 223.138 108.52 223.159C108.526 223.179 108.529 223.201 108.526 223.222L107.018 238.666C107.015 238.708 106.995 238.747 106.963 238.774C106.931 238.802 106.89 238.816 106.848 238.814Z" fill="#0C0C0C"/>
</svg>
