<svg width="56" height="56" viewBox="0 0 56 56" fill="none" xmlns="http://www.w3.org/2000/svg">
<path d="M27.5957 55.1915C42.8365 55.1915 55.1915 42.8365 55.1915 27.5957C55.1915 12.355 42.8365 0 27.5957 0C12.355 0 0 12.355 0 27.5957C0 42.8365 12.355 55.1915 27.5957 55.1915Z" fill="white"/>
<path opacity="0.09" d="M27.5957 55.1915C42.8365 55.1915 55.1915 42.8365 55.1915 27.5957C55.1915 12.355 42.8365 0 27.5957 0C12.355 0 0 12.355 0 27.5957C0 42.8365 12.355 55.1915 27.5957 55.1915Z" fill="#2C4981"/>
<path d="M19.9964 11.9436C19.9964 11.9436 20.2954 20.2549 25.8428 20.6369L26.7825 9.67694L19.9964 11.9436Z" fill="#0A0A0A"/>
<path d="M21.0648 22.3346C22.8798 22.3346 24.3512 20.8632 24.3512 19.0482C24.3512 17.2332 22.8798 15.7618 21.0648 15.7618C19.2498 15.7618 17.7784 17.2332 17.7784 19.0482C17.7784 20.8632 19.2498 22.3346 21.0648 22.3346Z" fill="#0A0A0A"/>
<path d="M33.9236 24.4944C33.8943 24.4904 33.5696 29.8797 27.3088 29.4098C22.9745 29.0859 21.4293 24.4873 21.3301 24.4873C21.8254 24.4051 22.314 24.2866 22.792 24.1328C23.4744 23.7661 24.3189 23.3846 24.5388 22.0593C24.6656 21.2954 24.4507 17.3872 24.5167 16.6143L31.1698 18.0994C31.0758 19.7316 30.4261 23.5157 32.7066 24.1857C33.0857 24.2963 33.4945 24.3983 33.9236 24.4944Z" fill="#FFCAB6"/>
<path opacity="0.5" d="M31.2626 22.6385C31.1583 22.3023 31.0912 21.9557 31.0625 21.6049C30.9894 20.8052 31.004 20 31.1059 19.2035C29.7537 19.0209 28.4798 18.4627 27.4289 17.5924C27.3053 18.0486 26.626 20.0423 26.8142 20.4757C27.1698 21.297 28.8407 22.6385 31.2626 22.6385Z" fill="#0C0C0C"/>
<path d="M30.2203 21.1865C27.5854 21.2201 24.2912 19.8905 23.883 16.3509L23.5146 13.1562C23.1061 9.61654 24.6342 6.53172 27.9671 6.14811C31.2997 5.7638 34.1217 8.34568 34.5302 11.8855L34.6932 13.2994C34.8499 14.6584 34.9218 21.1269 30.2203 21.1865Z" fill="#FFCAB6"/>
<path d="M33.7382 13.2046C33.9664 13.2046 34.1514 13.0196 34.1514 12.7914C34.1514 12.5632 33.9664 12.3782 33.7382 12.3782C33.51 12.3782 33.325 12.5632 33.325 12.7914C33.325 13.0196 33.51 13.2046 33.7382 13.2046Z" fill="#0C0C0C"/>
<path d="M29.5147 13.6875C29.7429 13.6875 29.9279 13.5025 29.9279 13.2743C29.9279 13.0461 29.7429 12.8611 29.5147 12.8611C29.2865 12.8611 29.1015 13.0461 29.1015 13.2743C29.1015 13.5025 29.2865 13.6875 29.5147 13.6875Z" fill="#0C0C0C"/>
<path opacity="0.5" d="M31.6105 16.4203H31.6171C31.7521 16.4037 31.8862 16.3797 32.0186 16.3484C32.2164 16.3002 32.4771 16.2157 32.4567 16.0386C32.4332 15.837 31.63 13.7245 31.5384 13.4844C31.5345 13.474 31.5285 13.4645 31.5208 13.4564C31.5132 13.4484 31.5041 13.4419 31.4939 13.4373C31.4838 13.4328 31.4728 13.4303 31.4617 13.43C31.4506 13.4297 31.4396 13.4316 31.4292 13.4355C31.4188 13.4395 31.4093 13.4455 31.4012 13.4531C31.3932 13.4607 31.3867 13.4699 31.3821 13.48C31.3776 13.4902 31.3751 13.5011 31.3748 13.5122C31.3745 13.5233 31.3764 13.5344 31.3803 13.5448C31.7231 14.4442 32.273 15.9223 32.2885 16.0583C32.077 16.1773 31.8401 16.2439 31.5976 16.2523C31.5752 16.254 31.5545 16.2646 31.5399 16.2816C31.5253 16.2986 31.518 16.3208 31.5197 16.3431C31.5215 16.3655 31.532 16.3863 31.549 16.4009C31.566 16.4155 31.5882 16.4227 31.6105 16.421V16.4203Z" fill="#0C0C0C"/>
<path opacity="0.5" d="M31.015 17.8933C31.5563 17.8624 32.0827 17.7048 32.552 17.4332C32.5704 17.4217 32.5838 17.4036 32.5893 17.3825C32.5948 17.3615 32.592 17.3391 32.5814 17.3201C32.5709 17.301 32.5535 17.2868 32.5327 17.2802C32.512 17.2737 32.4895 17.2754 32.47 17.2849C31.4566 17.8457 30.4873 17.8781 29.6675 17.3789C29.651 17.3683 29.6339 17.3586 29.6163 17.3498C29.596 17.3418 29.5734 17.3421 29.5532 17.3504C29.5331 17.3587 29.5169 17.3744 29.508 17.3943C29.4992 17.4143 29.4983 17.4368 29.5057 17.4573C29.513 17.4779 29.528 17.4948 29.5475 17.5046C29.5538 17.5078 29.5646 17.5144 29.5794 17.5236C30.0105 17.787 30.5103 17.9158 31.015 17.8933Z" fill="#0C0C0C"/>
<path d="M20.805 14.0643L23.7914 13.7371C26.0886 12.9953 27.043 9.17987 27.043 9.17987C27.043 9.17987 29.1015 11.5207 35.2017 10.4519C35.2017 10.4519 34.9653 2.58761 25.6878 3.69474C22.4576 4.08069 20.0218 7.32009 19.9967 11.5557C19.9793 14.5238 20.805 14.0643 20.805 14.0643Z" fill="#0A0A0A"/>
<path d="M24.2145 17.4055C23.2016 17.5229 22.2556 16.5335 22.1389 15.5206C22.0221 14.5076 22.7785 13.8546 23.7914 13.7379L24.3916 14.3561L25.0853 17.305L24.2145 17.4055Z" fill="#FFCAB6"/>
<path d="M32.2768 11.7604C32.5755 11.595 32.9132 11.5129 33.2545 11.5226C33.423 11.5263 33.59 11.5554 33.7499 11.6088C33.9087 11.6611 34.0603 11.7331 34.2012 11.8233C34.2152 11.8323 34.2253 11.8463 34.2293 11.8625C34.2333 11.8787 34.2309 11.8959 34.2226 11.9104C34.2142 11.9248 34.2007 11.9355 34.1846 11.9402C34.1686 11.9449 34.1514 11.9433 34.1366 11.9356L34.1323 11.9332C33.9989 11.854 33.8561 11.7919 33.7071 11.7484C33.5596 11.7043 33.4063 11.6828 33.2524 11.6847C32.946 11.6862 32.6456 11.7688 32.3815 11.9241L32.3752 11.9281C32.3643 11.9352 32.352 11.9401 32.3392 11.9425C32.3264 11.9448 32.3132 11.9445 32.3004 11.9417C32.2877 11.9388 32.2757 11.9334 32.2651 11.9258C32.2545 11.9182 32.2455 11.9085 32.2387 11.8973C32.2319 11.8862 32.2275 11.8738 32.2256 11.8608C32.2237 11.8479 32.2244 11.8348 32.2277 11.8221C32.231 11.8095 32.2369 11.7977 32.2448 11.7873C32.2528 11.777 32.2628 11.7684 32.2742 11.762L32.2768 11.7604Z" fill="#0C0C0C"/>
<path d="M29.6003 12.2527C29.3082 12.1601 28.9969 12.1467 28.698 12.214C28.5474 12.2468 28.4027 12.3023 28.2688 12.3784C28.1334 12.4541 28.0081 12.5465 27.8957 12.6535L27.8922 12.6568C27.8794 12.6662 27.8636 12.6707 27.8478 12.6692C27.832 12.6678 27.8172 12.6606 27.8064 12.649C27.7955 12.6374 27.7892 12.6222 27.7888 12.6063C27.7884 12.5904 27.7939 12.575 27.8041 12.5628C27.9212 12.4435 28.0529 12.3394 28.196 12.253C28.3399 12.1652 28.4962 12.0996 28.6597 12.0582C28.9902 11.9726 29.3377 11.9772 29.6658 12.0716C29.6785 12.0749 29.6904 12.0806 29.7008 12.0886C29.7112 12.0965 29.7199 12.1065 29.7263 12.1179C29.7328 12.1293 29.7369 12.1419 29.7383 12.1549C29.7398 12.1679 29.7386 12.181 29.7349 12.1936C29.7312 12.2061 29.725 12.2178 29.7166 12.2279C29.7083 12.2379 29.698 12.2462 29.6863 12.2523C29.6747 12.2583 29.662 12.2619 29.6489 12.2628C29.6359 12.2638 29.6227 12.2621 29.6104 12.2579H29.6078L29.6003 12.2527Z" fill="#0C0C0C"/>
<path opacity="0.52" d="M31.0715 18.6936C31.1694 18.6896 31.2669 18.6772 31.3627 18.6568C31.3841 18.6515 31.4025 18.6381 31.4142 18.6195C31.4258 18.6009 31.4298 18.5784 31.4253 18.5569C31.4208 18.5354 31.408 18.5165 31.3899 18.5042C31.3717 18.4919 31.3494 18.4871 31.3277 18.4909C31.178 18.5347 31.0207 18.546 30.8663 18.5241C30.7118 18.5022 30.5639 18.4475 30.4323 18.3638C30.4149 18.3496 30.3926 18.3429 30.3702 18.3452C30.3479 18.3474 30.3274 18.3584 30.3132 18.3758C30.299 18.3932 30.2922 18.4155 30.2945 18.4378C30.2967 18.4602 30.3078 18.4807 30.3251 18.4949C30.5435 18.6454 30.8072 18.7157 31.0715 18.6936Z" fill="#0C0C0C"/>
<path opacity="0.1" d="M28.9425 16.4857C29.3769 16.4705 29.7201 16.1999 29.709 15.8812C29.6978 15.5625 29.3365 15.3164 28.9021 15.3317C28.4676 15.3469 28.1244 15.6175 28.1356 15.9362C28.1467 16.2549 28.508 16.501 28.9425 16.4857Z" fill="#0C0C0C"/>
<path opacity="0.1" d="M33.5923 15.6061C33.6045 15.9244 33.9656 16.1698 34.4002 16.1555C34.4753 16.1528 34.5499 16.1424 34.6229 16.1243C34.6743 15.7503 34.7058 15.389 34.7229 15.0536C34.6059 15.0137 34.4825 14.996 34.3591 15.0014C33.9254 15.016 33.5824 15.2859 33.5923 15.6061Z" fill="#0C0C0C"/>
<path d="M43.2739 30.1706C43.2551 32.0523 42.6091 34.2957 42.3789 37.0065C42.3178 37.73 40.7649 39.8231 40.5393 42.151C40.2551 45.1156 40.8872 49.7386 40.9718 51.7377C36.6067 54.153 31.669 55.3411 26.683 55.1756C21.697 55.0102 16.8488 53.4974 12.6535 50.798C12.5407 45.6629 12.4068 39.3227 12.2353 37.8029C11.6786 32.7852 11.8289 29.6116 12.6323 28.1269C13.9455 25.7027 16.2828 24.9627 18.7282 24.6291C20.2223 24.4271 22.4656 24.2838 22.4656 24.2838C22.4656 24.2838 22.6559 28.1293 27.1897 28.3431C33.3607 28.6343 32.9497 24.2838 32.9802 24.2838C35.2189 24.2838 39.4613 24.8194 41.0869 25.9282C42.8111 27.1004 43.2951 28.491 43.2739 30.1706Z" fill="#DFA41E"/>
<path d="M21.9534 33.0977L13.5812 51.368C10.3667 49.4703 7.56985 46.9411 5.35938 43.9331L12.3432 28.6922L21.9534 33.0977Z" fill="#DFA41E"/>
<path d="M50.0369 43.6568C48.3968 45.945 46.4172 47.9697 44.1666 49.661C43.4258 50.2203 42.6566 50.7409 41.8621 51.2208L33.2691 32.3294L42.891 27.9507L50.0369 43.6568Z" fill="#DFA41E"/>
</svg>
