<svg width="60" height="60" viewBox="0 0 60 60" fill="none" xmlns="http://www.w3.org/2000/svg">
<path d="M59.0211 30.6663C58.8327 35.4315 57.4934 40.0803 55.1176 44.2154C52.7418 48.3504 49.4002 51.8488 45.3784 54.4116C41.3565 56.9743 36.774 58.5252 32.0224 58.9318C27.2708 59.3383 22.4914 58.5884 18.0926 56.7462C16.0295 55.8815 14.0729 54.7823 12.2612 53.4701C8.79857 50.9703 5.91663 47.7521 3.81248 44.0357V44.0324C1.56891 40.0574 0.277597 35.6164 0.0400197 31.0581C-0.197557 26.4999 0.625068 21.9486 2.44325 17.762C4.26144 13.5753 7.02566 9.86727 10.5187 6.92918C14.0118 3.99109 18.1386 1.903 22.5749 0.828947C27.0111 -0.245103 31.636 -0.275849 36.0862 0.739128C40.5363 1.7541 44.6905 3.78715 48.2223 6.67854C51.7541 9.56993 54.5674 13.2409 56.4411 17.403C58.3148 21.5651 59.1978 26.1051 59.0209 30.666L59.0211 30.6663Z" fill="white"/>
<path opacity="0.09" d="M59.0211 30.6663C58.8327 35.4315 57.4934 40.0803 55.1176 44.2154C52.7418 48.3504 49.4002 51.8488 45.3784 54.4116C41.3565 56.9743 36.774 58.5252 32.0224 58.9318C27.2708 59.3383 22.4914 58.5884 18.0926 56.7462C16.0295 55.8815 14.0729 54.7823 12.2612 53.4701C8.79857 50.9703 5.91663 47.7521 3.81248 44.0357V44.0324C1.56891 40.0574 0.277597 35.6164 0.0400197 31.0581C-0.197557 26.4999 0.625068 21.9486 2.44325 17.762C4.26144 13.5753 7.02566 9.86727 10.5187 6.92918C14.0118 3.99109 18.1386 1.903 22.5749 0.828947C27.0111 -0.245103 31.636 -0.275849 36.0862 0.739128C40.5363 1.7541 44.6905 3.78715 48.2223 6.67854C51.7541 9.56993 54.5674 13.2409 56.4411 17.403C58.3148 21.5651 59.1978 26.1051 59.0209 30.666L59.0211 30.6663Z" fill="#2C4981"/>
<path d="M36.5018 7.03934C36.5018 7.03934 43.5597 7.12579 41.1263 16.8522L40.4636 16.8846L39.118 16.9502" fill="#0C0C0C"/>
<path d="M28.6211 27.0569C28.654 27.0539 28.7841 33.1206 35.8358 32.8658C40.7177 32.69 42.6538 27.5927 42.7657 27.597C42.2451 27.4652 41.3675 27.2681 41.1394 27.1351C40.3889 26.6937 39.457 26.2284 39.2676 24.7301C39.1586 23.8666 39.5704 19.487 39.5298 18.6161L31.993 19.9939C32.0263 21.8314 32.5922 26.1095 30.0019 26.7623C29.5706 26.8704 29.1071 26.9669 28.6211 27.0569Z" fill="#FFCAB6"/>
<path opacity="0.52" d="M31.6902 25.0884C31.8219 24.7158 31.9125 24.3298 31.9601 23.9374C32.0771 23.0423 32.0957 22.1371 32.0158 21.238C33.5424 21.092 34.9975 20.5207 36.2157 19.589C36.3346 20.1058 37.0109 22.3755 36.7795 22.8542C36.3452 23.7595 34.4104 25.1941 31.6902 25.0884Z" fill="#0C0C0C"/>
<path d="M33.401 24.0165C36.3555 23.8051 39.9195 22.0064 40.0433 18.0028L40.1552 14.3911C40.2789 10.3883 38.2759 7.07815 34.5082 6.96164C30.7393 6.84418 27.8217 10.0028 27.6979 14.0056L27.6486 15.6047C27.6411 16.1542 27.6711 16.7036 27.7383 17.249C27.9056 18.6914 28.1654 20.8845 29.1151 22.382C30.0115 23.7957 31.5135 24.1511 33.401 24.0165Z" fill="#FFCAB6"/>
<path d="M39.7715 19.2159C40.917 19.2512 41.8834 18.0545 41.9189 16.9094C41.9543 15.7642 41.0452 15.1036 39.9 15.0681L39.286 15.8173L38.7868 19.1854L39.7715 19.2159Z" fill="#FFCAB6"/>
<path d="M27.8917 18.4579C28.0986 18.7032 28.3636 18.8929 28.6625 19.0096C28.9615 19.1264 29.2849 19.1665 29.6033 19.1264C30.2845 19.0407 30.7363 19.3202 31.305 19.2641C31.7823 19.2171 31.865 18.9965 32.6797 18.9483C35.8244 18.7621 38.1843 18.5638 38.3375 14.6176L40.3386 12.84C40.3386 12.84 41.233 23.7755 35.3182 25.2291C31.6837 26.1218 28.2749 25.7955 27.8365 22.382C27.4804 19.6084 27.8917 18.4579 27.8917 18.4579Z" fill="#0C0C0C"/>
<path d="M29.3818 16.174C29.6383 16.174 29.8462 15.9661 29.8462 15.7096C29.8462 15.4531 29.6383 15.2452 29.3818 15.2452C29.1253 15.2452 28.9174 15.4531 28.9174 15.7096C28.9174 15.9661 29.1253 16.174 29.3818 16.174Z" fill="#0C0C0C"/>
<path d="M33.5307 16.0876C33.7872 16.0876 33.9951 15.8797 33.9951 15.6232C33.9951 15.3667 33.7872 15.1588 33.5307 15.1588C33.2742 15.1588 33.0663 15.3667 33.0663 15.6232C33.0663 15.8797 33.2742 16.0876 33.5307 16.0876Z" fill="#0C0C0C"/>
<path d="M38.6654 17.354C38.6654 17.354 38.3818 11.6819 36.6703 11.3006C35.5303 11.0467 32.7264 12.6192 30.1652 12.0822C29.0449 11.8473 27.9725 12.1057 27.8542 12.6352C27.8072 12.8447 26.9206 10.9863 28.7233 8.72509C30.1584 6.92474 34.8251 6.41828 36.901 7.05488C42.6497 8.81811 40.1319 15.322 40.1319 15.322L39.8385 17.2704L38.6654 17.354Z" fill="#0C0C0C"/>
<path d="M41.2778 12.7803C42.9699 12.7803 44.3415 11.4087 44.3415 9.71664C44.3415 8.02462 42.9699 6.65295 41.2778 6.65295C39.5858 6.65295 38.2141 8.02462 38.2141 9.71664C38.2141 11.4087 39.5858 12.7803 41.2778 12.7803Z" fill="#0C0C0C"/>
<g opacity="0.52">
<path d="M31.3611 19.0817H31.3538C30.9848 19.0711 30.3672 19.0124 30.3743 18.7364C30.3808 18.5076 31.0771 16.0556 31.1565 15.7765C31.1633 15.7525 31.1794 15.7322 31.2012 15.7201C31.223 15.7079 31.2487 15.705 31.2727 15.7118C31.2967 15.7186 31.317 15.7347 31.3291 15.7565C31.3412 15.7782 31.3442 15.804 31.3374 15.8279C31.0283 16.9139 30.5669 18.586 30.5622 18.7408C30.5967 18.8071 30.9768 18.8818 31.359 18.8928C31.3839 18.8925 31.4079 18.9022 31.4258 18.9196C31.4436 18.937 31.4537 18.9608 31.454 18.9857C31.4543 19.0106 31.4447 19.0346 31.4273 19.0525C31.4098 19.0703 31.386 19.0805 31.3611 19.0807V19.0817Z" fill="#0C0C0C"/>
</g>
<path d="M30.2375 14.1317C29.8562 14.0188 29.4515 14.0106 29.066 14.1082C28.8763 14.1548 28.6946 14.2297 28.5271 14.3304C28.3613 14.4291 28.2086 14.5484 28.0726 14.6853C28.049 14.7065 28.0348 14.7361 28.033 14.7677C28.0313 14.7993 28.0422 14.8303 28.0633 14.8539C28.0844 14.8775 28.114 14.8917 28.1457 14.8934C28.1773 14.8952 28.2083 14.8843 28.2319 14.8632L28.2391 14.8571C28.3659 14.7427 28.5065 14.6448 28.6577 14.5655C28.8066 14.4867 28.9665 14.4308 29.132 14.3997C29.4588 14.3358 29.7966 14.3594 30.1114 14.4681L30.1233 14.4725C30.1456 14.4811 30.1693 14.4852 30.1931 14.4846C30.2169 14.4839 30.2404 14.4785 30.2621 14.4687C30.2838 14.4589 30.3033 14.4448 30.3196 14.4274C30.3358 14.4099 30.3484 14.3894 30.3566 14.3671C30.3648 14.3447 30.3685 14.3209 30.3674 14.2971C30.3664 14.2733 30.3606 14.25 30.3504 14.2284C30.3402 14.2069 30.3258 14.1876 30.3081 14.1717C30.2904 14.1557 30.2697 14.1435 30.2472 14.1357L30.2375 14.1317Z" fill="#0C0C0C"/>
<path d="M32.9738 14.4686C33.2764 14.3296 33.6104 14.2732 33.9418 14.3053C34.1097 14.32 34.2744 14.3601 34.4302 14.4244C34.5883 14.4885 34.7377 14.5722 34.8749 14.6736L34.8824 14.6788C34.908 14.6955 34.9389 14.7017 34.9689 14.6962C34.999 14.6908 35.0257 14.674 35.0438 14.6494C35.0618 14.6248 35.0698 14.5942 35.066 14.564C35.0622 14.5337 35.0469 14.506 35.0233 14.4866C34.8747 14.3635 34.711 14.2597 34.5364 14.1775C34.3599 14.0936 34.1718 14.0367 33.9785 14.0086C33.5852 13.9493 33.1832 13.997 32.8147 14.1465C32.7714 14.1652 32.7372 14.2002 32.7195 14.2439C32.7018 14.2876 32.7021 14.3365 32.7202 14.3801C32.7382 14.4236 32.7727 14.4583 32.8162 14.4766C32.8597 14.4949 32.9086 14.4954 32.9524 14.478L32.9611 14.4742L32.9738 14.4686Z" fill="#0C0C0C"/>
<path d="M51.7884 42.2056C51.5258 44.1889 51.2695 46.9131 51.0404 49.7299C50.1458 50.6821 49.1892 51.574 48.1769 52.3999C47.5334 52.9227 46.8692 53.4196 46.1844 53.8907C42.4814 56.4184 38.2522 58.0712 33.8166 58.7243C29.3809 59.3773 24.8548 59.0133 20.5805 57.66C20.5222 55.0436 20.4428 51.5143 20.3639 48.281C20.2734 44.5514 20.1821 41.2119 20.133 40.1146C19.9305 35.7599 18.7761 32.8543 19.6488 30.4784C19.9097 29.7751 20.3292 29.1415 20.8748 28.6266C22.9079 26.6367 27.9583 26.682 29.9839 26.7607C30.0191 26.7621 29.3933 31.4371 36.0579 31.3807C40.9565 31.3405 41.3239 27.2007 41.3239 27.2007C41.3239 27.2007 43.7378 27.4518 45.3409 27.7302C47.9629 28.1895 49.6677 29.1512 50.9942 30.5874C52.2319 31.9266 52.962 33.3483 51.7884 42.2056Z" fill="#2C4981"/>
<path d="M12.6071 27.2216L12.8087 22.2333C12.8133 22.1236 12.795 22.0141 12.7549 21.9119C12.7148 21.8097 12.6539 21.7169 12.576 21.6396C12.4981 21.5622 12.4049 21.5019 12.3024 21.4626C12.1999 21.4233 12.0903 21.4057 11.9806 21.4111C11.7786 21.4274 11.5899 21.5182 11.451 21.6657C11.3121 21.8133 11.233 22.0072 11.2289 22.2098L11.1857 23.2796L9.77693 19.8539C9.62705 19.4703 9.19765 19.0954 8.77833 19.292C8.61207 19.3571 8.47276 19.4766 8.38317 19.631C8.29358 19.7855 8.25899 19.9657 8.28503 20.1424C8.28104 20.1429 8.2771 20.1437 8.27327 20.145C8.27062 20.1465 8.26811 20.1482 8.26576 20.1501L8.03461 19.5586C7.99175 19.449 7.92498 19.3504 7.83917 19.2699C7.75336 19.1894 7.65068 19.1291 7.53859 19.0934C7.42651 19.0576 7.30785 19.0473 7.19127 19.0632C7.0747 19.0791 6.96316 19.1208 6.86476 19.1853C6.71182 19.29 6.59946 19.444 6.54648 19.6216C6.4935 19.7992 6.50311 19.9896 6.57371 20.1609L6.67213 20.4125C6.66618 20.4188 6.66133 20.426 6.65781 20.4339C6.5519 20.2794 6.39454 20.1676 6.21381 20.1184C6.03309 20.0692 5.84077 20.0859 5.67119 20.1654C5.48814 20.2581 5.34676 20.4164 5.27527 20.6087C5.20377 20.801 5.20741 21.0132 5.28546 21.203L5.52978 21.8283C5.52012 21.8219 5.50908 21.8179 5.49756 21.8166C5.48604 21.8152 5.47437 21.8167 5.46352 21.8208C5.45088 21.8264 5.44013 21.8356 5.43252 21.8471C5.29992 21.7356 5.13435 21.6707 4.96127 21.6624C4.78819 21.6541 4.6172 21.7029 4.47456 21.8013C4.3269 21.9077 4.21949 22.0609 4.1697 22.236C4.1199 22.4111 4.13064 22.5978 4.20018 22.7661L6.26199 28.0419C6.55041 28.78 7.05266 29.4151 7.70439 29.8658C8.35612 30.3166 9.12762 30.5625 9.91999 30.5719C10.6033 30.58 11.2628 30.3213 11.7584 29.8509C12.2541 29.3806 12.5468 28.7355 12.5745 28.0527L12.6071 27.2216Z" fill="#FFCAB6"/>
<g opacity="0.2">
<path d="M9.66207 23.5404C9.64424 23.5473 9.6244 23.5469 9.60683 23.5393C9.58926 23.5318 9.57536 23.5176 9.56811 23.5L8.23312 20.2401C8.2289 20.2311 8.22655 20.2214 8.22621 20.2115C8.22587 20.2016 8.22756 20.1917 8.23115 20.1825C8.23475 20.1733 8.24019 20.1648 8.24714 20.1578C8.25409 20.1507 8.26241 20.1451 8.27159 20.1414C8.28076 20.1376 8.2906 20.1358 8.30051 20.136C8.31042 20.1361 8.32019 20.1383 8.32922 20.1424C8.33826 20.1465 8.34639 20.1523 8.35308 20.1596C8.35978 20.167 8.36492 20.1756 8.36819 20.1849L9.70318 23.4447C9.70682 23.4536 9.70868 23.4631 9.70864 23.4727C9.70861 23.4823 9.70668 23.4918 9.70297 23.5006C9.69926 23.5094 9.69384 23.5175 9.68702 23.5242C9.68021 23.5309 9.67213 23.5363 9.66325 23.5399L9.66207 23.5404Z" fill="#0C0C0C"/>
</g>
<g opacity="0.2">
<path d="M8.2407 24.1689C8.22285 24.1759 8.20296 24.1755 8.18537 24.1679C8.16778 24.1603 8.1539 24.1461 8.14673 24.1283L6.65694 20.4903C6.64995 20.4725 6.65022 20.4527 6.65769 20.4351C6.66516 20.4175 6.67923 20.4036 6.69687 20.3963C6.71466 20.3899 6.73419 20.3905 6.75159 20.3979C6.76899 20.4052 6.783 20.4188 6.79084 20.436L8.28063 24.074C8.28793 24.092 8.28782 24.112 8.28033 24.1299C8.27285 24.1477 8.2586 24.1618 8.2407 24.1692V24.1689Z" fill="#0C0C0C"/>
</g>
<g opacity="0.2">
<path d="M6.70503 24.8584C6.68718 24.8654 6.66729 24.865 6.64971 24.8574C6.63212 24.8498 6.61823 24.8356 6.61106 24.8178L5.42267 21.916C5.41535 21.8981 5.41543 21.878 5.4229 21.8602C5.43036 21.8424 5.4446 21.8283 5.46248 21.821C5.48036 21.8136 5.50041 21.8137 5.51823 21.8212C5.53605 21.8286 5.55018 21.8429 5.5575 21.8608L6.74661 24.7619C6.75391 24.7798 6.7538 24.7999 6.74631 24.8177C6.73883 24.8356 6.72458 24.8497 6.70668 24.857L6.70503 24.8584Z" fill="#0C0C0C"/>
</g>
<path d="M29.1196 35.0422L16.9795 53.7071C16.5378 54.3856 15.9464 54.9537 15.2508 55.368C14.2162 54.7974 13.2177 54.1636 12.2611 53.4701C10.2221 51.9989 8.3796 50.2731 6.77835 48.3345L4.22839 28.5636L14.4336 26.9284L15.5971 36.4451L20.2596 29.2773L29.1196 35.0422Z" fill="#2C4981"/>
<path d="M30.5429 20.1001C31.6565 20.1741 32.7629 19.8748 33.6874 19.2495C33.7195 19.228 33.757 19.216 33.7956 19.2151C33.8342 19.2141 33.8723 19.2241 33.9054 19.244C33.9386 19.2639 33.9653 19.2928 33.9826 19.3273C33.9999 19.3619 34.007 19.4006 34.0031 19.4391C33.9286 20.0968 33.6038 21.3066 32.2237 21.4607C31.3327 21.5601 30.6869 20.8758 30.3615 20.4207C30.3391 20.3893 30.326 20.352 30.324 20.3134C30.3219 20.2747 30.331 20.2363 30.35 20.2026C30.3691 20.169 30.3974 20.1414 30.4315 20.1232C30.4657 20.1051 30.5043 20.0971 30.5429 20.1001Z" fill="white"/>
<path d="M55.0804 44.3033C53.2863 47.3964 50.9475 50.1394 48.1769 52.3999C47.5334 52.9227 46.8692 53.4196 46.1844 53.8907L41.4427 35.8517L52.1213 33.0429L55.0804 44.3033Z" fill="#2C4981"/>
<path d="M46.2881 53.8202C46.2543 53.8423 46.2177 53.8672 46.1843 53.8907C46.1509 53.9142 46.1166 53.9377 46.0828 53.9595L42.469 40.2173L42.6971 40.1579L46.2881 53.8202Z" fill="#0C0C0C"/>
<path d="M20.3925 49.1306C20.3631 49.1294 20.3353 49.1172 20.3144 49.0965C20.2936 49.0757 20.2813 49.0479 20.28 49.0186L20.0469 43.8975C20.0455 43.8664 20.0566 43.836 20.0776 43.8129C20.0986 43.7899 20.128 43.7762 20.1591 43.7748C20.1903 43.7734 20.2207 43.7844 20.2437 43.8055C20.2667 43.8265 20.2804 43.8558 20.2818 43.887L20.5146 49.008C20.516 49.0391 20.5051 49.0694 20.4841 49.0924C20.4631 49.1154 20.4339 49.1292 20.4028 49.1306H20.3925Z" fill="#0C0C0C"/>
</svg>
