<svg width="61" height="61" viewBox="0 0 61 61" fill="none" xmlns="http://www.w3.org/2000/svg">
<path d="M30.0955 60.1914C46.7167 60.1914 60.1909 46.7173 60.1909 30.096C60.1909 13.4748 46.7167 0.000610352 30.0955 0.000610352C13.4742 0.000610352 6.10352e-05 13.4748 6.10352e-05 30.096C6.10352e-05 46.7173 13.4742 60.1914 30.0955 60.1914Z" fill="white"/>
<path opacity="0.09" d="M60.1912 30.0952C60.1912 36.0474 58.4262 41.8659 55.1193 46.815C51.8124 51.7641 47.1122 55.6214 41.6131 57.8993C36.1139 60.1771 30.0629 60.7731 24.225 59.6118C18.3872 58.4506 13.0248 55.5844 8.8159 51.3755C4.60705 47.1667 1.74078 41.8042 0.579563 35.9664C-0.581658 30.1285 0.0143177 24.0774 2.29213 18.5783C4.56995 13.0792 8.42729 8.379 13.3764 5.07212C18.3255 1.76524 24.144 0.000204911 30.0962 0.000204911C34.0525 -0.0144207 37.9725 0.754026 41.6304 2.26126C45.2883 3.76849 48.6117 5.98471 51.4092 8.7822C54.2067 11.5797 56.4229 14.9031 57.9301 18.561C59.4374 22.2189 60.2058 26.1389 60.1912 30.0952Z" fill="#2C4981"/>
<path d="M16.7739 12.3454C16.7739 12.3454 16.4713 16.8885 15.449 18.5369C12.5065 23.282 11.654 28.6204 14.6007 31.4099C17.5474 34.1995 36.3428 34.2377 37.7666 27.8228C38.9646 22.4223 36.3928 21.8416 35.767 17.3865C35.4837 15.3708 34.7045 11.1438 34.7045 11.1438" fill="#0A0A0A"/>
<path d="M32.9016 26.8816C32.8692 26.8774 32.5093 32.8514 25.5692 32.3315C20.7648 31.9716 19.0518 26.8741 18.9417 26.8741C19.4596 26.7642 20.3319 26.6039 20.5625 26.4813C21.3189 26.0747 22.255 25.6519 22.4989 24.1825C22.6398 23.3368 22.4009 19.0037 22.4754 18.147L29.8501 19.793C29.7473 21.6018 29.0258 25.7973 31.5537 26.5396C31.973 26.6615 32.4262 26.7745 32.9016 26.8816Z" fill="#FFCAB6"/>
<path opacity="0.5" d="M29.9522 24.8244C29.8368 24.4521 29.7624 24.0682 29.7304 23.6797C29.6493 22.7932 29.6655 21.9005 29.7786 21.0175C28.2797 20.8153 26.8675 20.1968 25.7026 19.2322C25.5657 19.7379 24.8126 21.9477 25.0214 22.4286C25.4163 23.3365 27.2674 24.8244 29.9522 24.8244Z" fill="#0C0C0C"/>
<path d="M28.9986 22.9633C26.0909 23.2452 22.3289 22.0814 21.5497 18.2094L20.8464 14.7156C20.0672 10.8436 21.4691 7.2953 25.1147 6.56168C28.7605 5.82783 32.1173 8.41747 32.8965 12.2904L33.208 13.8371C33.507 15.3229 34.1864 22.4613 28.9986 22.9633Z" fill="#FFCAB6"/>
<path opacity="0.1" d="M27.1502 17.8902C27.6286 17.8331 27.9825 17.5022 27.9407 17.1512C27.8988 16.8001 27.477 16.5618 26.9985 16.6189C26.5201 16.676 26.1662 17.0069 26.208 17.3579C26.2499 17.709 26.6717 17.9473 27.1502 17.8902Z" fill="#0C0C0C"/>
<path opacity="0.1" d="M32.2063 16.4861C32.2493 16.8363 32.6709 17.0733 33.1494 17.0179C33.2322 17.008 33.3136 16.9896 33.3926 16.9629C33.4147 16.545 33.4161 16.1429 33.4038 15.7708C33.271 15.7376 33.133 15.7297 32.9972 15.7473C32.5187 15.8034 32.1649 16.1342 32.2063 16.4861Z" fill="#0C0C0C"/>
<path opacity="0.5" d="M30.0921 17.5692H30.0992C30.2468 17.5381 30.3927 17.4989 30.5361 17.4518C30.7501 17.3813 31.0294 17.2627 30.9913 17.0691C30.9469 16.8483 29.8638 14.5897 29.74 14.3327C29.7284 14.3116 29.7092 14.2958 29.6863 14.2884C29.6634 14.2811 29.6386 14.2828 29.6169 14.2932C29.5953 14.3036 29.5784 14.3219 29.5698 14.3444C29.5613 14.3669 29.5616 14.3917 29.5708 14.4139C30.0329 15.3771 30.7773 16.9575 30.8072 17.106C30.7837 17.1753 30.4287 17.3106 30.062 17.3846C30.0388 17.39 30.0184 17.4039 30.0051 17.4238C29.9918 17.4436 29.9865 17.4677 29.9903 17.4913C29.9941 17.5148 30.0068 17.536 30.0257 17.5506C30.0446 17.5652 30.0684 17.572 30.0921 17.5697V17.5692Z" fill="#0C0C0C"/>
<path d="M17.9375 15.9698L21.206 15.3313C23.6749 14.2977 24.3754 9.99604 24.3754 9.99604C24.3754 9.99604 27.4224 12.8979 34.7046 11.1431C34.7046 11.1431 33.1227 0.97716 22.37 4.06293C18.9027 5.05777 16.4468 8.59199 16.812 13.2728C17.0679 16.5538 17.9375 15.9698 17.9375 15.9698Z" fill="#0A0A0A"/>
<path d="M22.0133 19.3435C20.9055 19.5665 19.7687 18.562 19.5467 17.4539C19.3248 16.3459 20.0988 15.5542 21.2069 15.3313L21.9271 15.9587L22.9668 19.1519L22.0133 19.3435Z" fill="#FFCAB6"/>
<path d="M30.5257 12.5314C30.8028 12.3351 31.1271 12.216 31.4654 12.1861C31.6352 12.1699 31.8065 12.1793 31.9735 12.2141C32.142 12.2483 32.3055 12.3036 32.4602 12.3785L32.4652 12.3806C32.4822 12.3875 32.5012 12.3876 32.5183 12.3809C32.5355 12.3742 32.5493 12.3612 32.5572 12.3446C32.565 12.3279 32.5661 12.3089 32.5604 12.2915C32.5546 12.274 32.5424 12.2594 32.5262 12.2507C32.3623 12.1641 32.1881 12.0986 32.0078 12.0557C31.8263 12.0115 31.6392 11.9949 31.4527 12.0064C31.0752 12.0273 30.7102 12.149 30.3956 12.3588C30.3834 12.3665 30.3729 12.3767 30.3647 12.3886C30.3565 12.4004 30.3508 12.4139 30.3478 12.428C30.3449 12.4422 30.3449 12.4568 30.3477 12.471C30.3506 12.4851 30.3562 12.4986 30.3644 12.5105C30.3725 12.5225 30.383 12.5326 30.3951 12.5404C30.4073 12.5483 30.4209 12.5536 30.4351 12.556C30.4494 12.5585 30.464 12.558 30.4781 12.5547C30.4921 12.5514 30.5054 12.5454 30.517 12.5368L30.5194 12.5352L30.5257 12.5314Z" fill="#0C0C0C"/>
<path d="M27.54 12.9439C27.1689 12.8701 26.7848 12.8973 26.4277 13.0226C26.2512 13.0834 26.0849 13.1705 25.9344 13.281C25.7844 13.3898 25.6485 13.517 25.5301 13.6597C25.5181 13.6739 25.5121 13.6922 25.5133 13.7108C25.5145 13.7293 25.5228 13.7467 25.5366 13.7592C25.5503 13.7718 25.5684 13.7785 25.587 13.778C25.6056 13.7775 25.6233 13.7697 25.6363 13.7565L25.6401 13.7525C25.7541 13.6238 25.884 13.5101 26.0265 13.414C26.1675 13.3177 26.3221 13.2434 26.4853 13.1934C26.8093 13.0918 27.1544 13.0778 27.4855 13.1527L27.4938 13.1546C27.5076 13.1583 27.5221 13.1592 27.5363 13.1572C27.5505 13.1552 27.5642 13.1504 27.5766 13.1431C27.5889 13.1357 27.5997 13.126 27.6082 13.1144C27.6167 13.1029 27.6228 13.0897 27.6262 13.0758C27.6296 13.0618 27.6302 13.0473 27.6279 13.0332C27.6256 13.019 27.6205 13.0054 27.6128 12.9932C27.6052 12.9811 27.5953 12.9705 27.5835 12.9623C27.5718 12.954 27.5585 12.9481 27.5445 12.9451L27.54 12.9439Z" fill="#0C0C0C"/>
<path d="M21.208 15.2777C23.4051 14.46 24.134 12.9427 24.3589 11.8135C24.5041 11.0604 24.4905 10.2854 24.3189 9.5379L24.2508 9.5567C24.4199 10.2944 24.433 11.0594 24.2891 11.8024C24.0676 12.9128 23.3494 14.4059 21.1833 15.2117L21.208 15.2777Z" fill="#0C0C0C"/>
<path d="M48.9866 25.6917L50.3021 21.2284C50.331 21.1303 50.38 21.0394 50.446 20.9613C50.512 20.8832 50.5935 20.8197 50.6853 20.7749C50.7772 20.73 50.8774 20.7048 50.9795 20.7008C51.0816 20.6967 51.1835 20.714 51.2786 20.7515C51.452 20.8262 51.5915 20.9627 51.67 21.1344C51.7485 21.3061 51.7605 21.5008 51.7036 21.6808L51.4217 22.6378L53.6892 20.0355C53.9364 19.7416 54.4273 19.5391 54.7386 19.8382C54.8659 19.9453 54.9531 20.0925 54.986 20.2556C55.0189 20.4187 54.9955 20.5881 54.9197 20.7362C54.923 20.7378 54.9262 20.7398 54.9291 20.7421C54.9311 20.7442 54.9328 20.7465 54.9343 20.7489L55.3153 20.2958C55.3859 20.212 55.4743 20.1449 55.5742 20.0996C55.674 20.0543 55.7826 20.0318 55.8922 20.0337C56.0018 20.0357 56.1096 20.0621 56.2077 20.111C56.3058 20.16 56.3917 20.2301 56.4593 20.3165C56.5629 20.4546 56.616 20.6241 56.6096 20.7966C56.6033 20.9691 56.5378 21.1343 56.4243 21.2643L56.2622 21.4572C56.2658 21.4645 56.2679 21.4725 56.2683 21.4807C56.4081 21.3759 56.5805 21.3243 56.7549 21.335C56.9292 21.3457 57.0941 21.4181 57.2199 21.5392C57.3538 21.6756 57.4313 21.8576 57.437 22.0487C57.4426 22.2399 57.3759 22.4261 57.2502 22.5702L56.8474 23.0489C56.8578 23.0461 56.8688 23.0458 56.8794 23.0481C56.89 23.0504 56.8998 23.0552 56.9082 23.0621C56.9177 23.0709 56.9245 23.0822 56.9277 23.0947C57.0783 23.0361 57.2439 23.0286 57.3991 23.0734C57.5544 23.1182 57.6906 23.2127 57.7868 23.3426C57.8852 23.4807 57.9341 23.648 57.9255 23.8174C57.917 23.9868 57.8516 24.1483 57.7398 24.2759L54.3421 28.3163C53.8667 28.8814 53.2334 29.2916 52.5234 29.4945C51.8133 29.6973 51.0589 29.6834 50.3568 29.4547C49.7514 29.2575 49.2468 28.832 48.9501 28.2687C48.6535 27.7053 48.5882 27.0485 48.7681 26.4377L48.9866 25.6917Z" fill="#FFCAB6"/>
<g opacity="0.2">
<path d="M52.6868 23.3242C52.7005 23.3353 52.7179 23.3406 52.7354 23.3392C52.7528 23.3377 52.7691 23.3296 52.7808 23.3165L54.934 20.8389C54.9458 20.8253 54.9517 20.8075 54.9504 20.7896C54.9491 20.7716 54.9408 20.7549 54.9272 20.7431C54.9135 20.7313 54.8958 20.7253 54.8778 20.7266C54.8599 20.7279 54.8431 20.7363 54.8313 20.7499L52.6781 23.2272C52.6723 23.234 52.6678 23.2418 52.665 23.2502C52.6622 23.2587 52.661 23.2677 52.6617 23.2766C52.6623 23.2855 52.6647 23.2941 52.6687 23.3021C52.6727 23.3101 52.6782 23.3172 52.6849 23.3231L52.6868 23.3242Z" fill="#0C0C0C"/>
</g>
<g opacity="0.2">
<path d="M53.7533 24.3039C53.7669 24.315 53.7843 24.3204 53.8018 24.319C53.8194 24.3175 53.8357 24.3093 53.8473 24.2961L56.2501 21.5312C56.256 21.5245 56.2605 21.5167 56.2633 21.5082C56.2661 21.4997 56.2672 21.4908 56.2666 21.4819C56.266 21.473 56.2636 21.4643 56.2596 21.4563C56.2556 21.4483 56.2501 21.4412 56.2433 21.4354C56.2295 21.4242 56.2119 21.4187 56.1941 21.4199C56.1763 21.4212 56.1596 21.4291 56.1475 21.4422L53.7462 24.2071C53.7404 24.2138 53.7359 24.2216 53.7331 24.2301C53.7303 24.2386 53.7292 24.2475 53.7298 24.2564C53.7304 24.2653 53.7328 24.274 53.7368 24.282C53.7408 24.29 53.7463 24.2971 53.7531 24.3029L53.7533 24.3039Z" fill="#0C0C0C"/>
</g>
<g opacity="0.2">
<path d="M54.9022 25.3718C54.9158 25.3829 54.9332 25.3883 54.9507 25.3869C54.9682 25.3854 54.9845 25.3772 54.9961 25.364L56.913 23.1587C56.9237 23.1449 56.9287 23.1276 56.927 23.1103C56.9253 23.0929 56.917 23.0769 56.9039 23.0655C56.8907 23.0541 56.8737 23.0481 56.8563 23.0488C56.8389 23.0496 56.8225 23.0569 56.8103 23.0694L54.8935 25.275C54.8876 25.2817 54.8832 25.2895 54.8803 25.298C54.8775 25.3065 54.8764 25.3154 54.877 25.3243C54.8776 25.3332 54.88 25.3419 54.884 25.3499C54.888 25.3579 54.8935 25.365 54.9003 25.3708L54.9022 25.3718Z" fill="#0C0C0C"/>
</g>
<path d="M56.9926 27.64L51.9068 50.7128C51.895 50.7645 51.8833 50.8185 51.8692 50.8702C50.727 52.0654 49.4896 53.1659 48.1694 54.161C47.9039 54.3586 47.6385 54.5535 47.366 54.7415C47.1975 54.7602 47.0281 54.7696 46.8586 54.7697C45.9521 54.7694 45.0617 54.5307 44.2767 54.0776C43.4916 53.6244 42.8395 52.9728 42.3859 52.188L32.6935 35.4169L41.6436 30.2468L44.6763 35.4946L46.8985 25.4147L56.9926 27.64Z" fill="#267E66"/>
<path d="M41.3405 38.1592C41.31 38.5255 41.2489 39.1787 41.1643 40.0385C40.7415 44.4337 39.7525 54.2294 39.2944 58.7561C33.5076 60.6061 27.2975 60.6691 21.4742 58.937H21.4719C17.1714 57.6497 13.214 55.415 9.89083 52.3971C9.90963 48.3496 9.8509 43.7971 9.57841 40.8701C8.76327 32.1242 9.53377 30.7549 10.7999 29.4887C10.9033 29.3854 11.0114 29.2844 11.1194 29.1857C12.4279 27.9971 14.0699 27.2219 16.4636 26.8974C18.0469 26.6839 20.4289 26.5289 20.4289 26.5289C20.4289 26.5289 20.6309 30.6114 25.4395 30.8369C31.9864 31.1448 31.5495 26.5289 31.5824 26.5289C33.2291 26.5289 36.8937 26.6322 39.2052 27.8091C39.2075 27.8091 39.2075 27.8091 39.2099 27.8115C39.6753 28.038 40.0988 28.3423 40.4619 28.7112C43.1094 31.516 41.8033 32.7154 41.3405 38.1592Z" fill="#267E66"/>
<path d="M31.0668 18.3324C30.1221 18.8127 29.0442 18.9646 28.0036 18.7642C27.9675 18.7574 27.9303 18.7609 27.8962 18.7745C27.8621 18.7881 27.8326 18.811 27.8111 18.8408C27.7897 18.8705 27.7771 18.9057 27.7749 18.9423C27.7727 18.9789 27.781 19.0154 27.7987 19.0475C28.1095 19.5941 28.845 20.5288 30.1074 20.148C30.9225 19.9021 31.2307 19.0635 31.3449 18.5445C31.3528 18.5086 31.3503 18.4712 31.3376 18.4367C31.325 18.4022 31.3027 18.372 31.2735 18.3498C31.2443 18.3275 31.2093 18.314 31.1727 18.3109C31.1361 18.3078 31.0993 18.3153 31.0668 18.3324Z" fill="white"/>
<path d="M31.126 14.1307C31.3781 14.1307 31.5824 13.9263 31.5824 13.6743C31.5824 13.4222 31.3781 13.2178 31.126 13.2178C30.8739 13.2178 30.6696 13.4222 30.6696 13.6743C30.6696 13.9263 30.8739 14.1307 31.126 14.1307Z" fill="#0C0C0C"/>
<path d="M26.7393 14.8988C26.9913 14.8988 27.1957 14.6944 27.1957 14.4423C27.1957 14.1902 26.9913 13.9859 26.7393 13.9859C26.4872 13.9859 26.2828 14.1902 26.2828 14.4423C26.2828 14.6944 26.4872 14.8988 26.7393 14.8988Z" fill="#0C0C0C"/>
<path d="M40.3312 48.0125C40.3282 48.0127 40.3252 48.0127 40.3223 48.0125C40.3038 48.0099 40.287 48.0001 40.2758 47.9852C40.2645 47.9703 40.2596 47.9516 40.2621 47.9331L41.069 39.8031C41.0701 39.7938 41.0731 39.7849 41.0777 39.7768C41.0824 39.7687 41.0886 39.7616 41.096 39.756C41.1035 39.7504 41.112 39.7463 41.121 39.7441C41.1301 39.7419 41.1395 39.7415 41.1487 39.743C41.1672 39.7455 41.1839 39.7553 41.1952 39.7702C41.2064 39.7851 41.2114 39.8039 41.2088 39.8224L40.4019 47.9523C40.3994 47.9692 40.3909 47.9846 40.3779 47.9957C40.3648 48.0067 40.3483 48.0127 40.3312 48.0125Z" fill="#0C0C0C"/>
<path d="M35.4469 47.6208L39.8573 45.6511C39.9541 45.6081 40.0589 45.5856 40.1649 45.5852C40.2709 45.5848 40.3758 45.6064 40.473 45.6487C40.5702 45.691 40.6576 45.7531 40.7295 45.8309C40.8014 45.9088 40.8564 46.0008 40.8909 46.101C40.9489 46.2881 40.9354 46.4901 40.8529 46.6679C40.7704 46.8456 40.6249 46.9864 40.4446 47.0629L39.4988 47.4858L43.0826 47.5227C43.4819 47.5198 43.972 47.7712 43.9457 48.2185C43.9468 48.3912 43.8893 48.5593 43.7827 48.6952C43.676 48.8311 43.5265 48.9269 43.3584 48.9669C43.3594 48.9706 43.3599 48.9743 43.36 48.9781C43.3596 48.9811 43.3591 48.984 43.3584 48.9868L43.9729 48.9826C44.0866 48.9819 44.199 49.0065 44.302 49.0547C44.405 49.1028 44.496 49.1734 44.5683 49.2611C44.6405 49.3489 44.6924 49.4516 44.7199 49.5619C44.7475 49.6722 44.7502 49.7873 44.7277 49.8988C44.6884 50.0736 44.5902 50.2297 44.4496 50.3409C44.309 50.452 44.1345 50.5116 43.9553 50.5095L43.6938 50.5114C43.6904 50.519 43.6856 50.5259 43.6797 50.5318C43.8567 50.5716 44.0137 50.673 44.1228 50.8179C44.2319 50.9628 44.2859 51.1417 44.2752 51.3228C44.2576 51.5205 44.166 51.7043 44.0189 51.8375C43.8717 51.9708 43.6797 52.0436 43.4812 52.0416L42.8317 52.0461C42.841 52.0525 42.8485 52.061 42.8538 52.0709C42.8591 52.0809 42.8619 52.0919 42.862 52.1031C42.8615 52.1164 42.8571 52.1293 42.8496 52.1403C42.9975 52.2195 43.1153 52.3453 43.1848 52.4981C43.2543 52.6509 43.2716 52.8223 43.2341 52.9859C43.1914 53.1568 43.0924 53.3083 42.9529 53.4158C42.8135 53.5234 42.6418 53.5807 42.4657 53.5786L36.9855 53.6176C36.2188 53.623 35.468 53.3994 34.8293 52.9754C34.1905 52.5513 33.6929 51.9462 33.4003 51.2375C33.1479 50.6264 33.1437 49.941 33.3887 49.3269C33.6336 48.7128 34.1084 48.2184 34.7121 47.9488L35.4469 47.6208Z" fill="#FFCAB6"/>
<g opacity="0.2">
<path d="M39.8107 48.9477C39.8107 48.9664 39.8181 48.9843 39.8314 48.9976C39.8446 49.0108 39.8625 49.0182 39.8812 49.0182L43.2893 49.049C43.308 49.0491 43.3259 49.0419 43.3393 49.0288C43.3526 49.0156 43.3602 48.9978 43.3603 48.9791C43.3605 48.9604 43.3532 48.9424 43.3401 48.9291C43.327 48.9158 43.3091 48.9082 43.2904 48.908L39.8819 48.8773C39.8632 48.8773 39.8453 48.8847 39.8321 48.8979C39.8189 48.9111 39.8114 48.929 39.8114 48.9477H39.8107Z" fill="#0C0C0C"/>
</g>
<g opacity="0.2">
<path d="M39.7558 50.4511C39.7558 50.4698 39.7633 50.4878 39.7765 50.501C39.7897 50.5142 39.8076 50.5216 39.8263 50.5216L43.6295 50.5559C43.6482 50.5559 43.6661 50.5485 43.6793 50.5353C43.6926 50.522 43.7 50.5041 43.7 50.4854C43.6994 50.4669 43.6919 50.4493 43.6787 50.4362C43.6656 50.4231 43.648 50.4155 43.6295 50.415L39.8261 50.3807C39.8074 50.3807 39.7895 50.3881 39.7762 50.4013C39.763 50.4145 39.7556 50.4325 39.7556 50.4511H39.7558Z" fill="#0C0C0C"/>
</g>
<g opacity="0.2">
<path d="M39.6868 52.0773C39.6868 52.096 39.6942 52.1139 39.7074 52.1272C39.7206 52.1404 39.7385 52.1478 39.7572 52.1478L42.7911 52.1753C42.8098 52.1753 42.8277 52.1679 42.8409 52.1546C42.8541 52.1414 42.8616 52.1235 42.8616 52.1048C42.8616 52.0861 42.8541 52.0682 42.8409 52.055C42.8277 52.0418 42.8098 52.0343 42.7911 52.0343L39.7572 52.0071C39.7385 52.0071 39.7206 52.0145 39.7074 52.0277C39.6942 52.0409 39.6868 52.0589 39.6868 52.0776V52.0773Z" fill="#0C0C0C"/>
</g>
<path d="M36.7105 55.4743L21.4743 58.9369H21.472C17.1715 57.6497 13.2141 55.4149 9.89093 52.397C9.53386 52.0729 9.18463 51.7408 8.84323 51.4008C8.24813 50.8068 7.67886 50.189 7.13544 49.5476L9.26842 32.3898C9.50112 31.0067 10.2737 29.7727 11.4163 28.9592C12.5588 28.1458 13.9777 27.8195 15.3608 28.0522C16.7439 28.2849 17.9779 29.0575 18.7914 30.2C19.6048 31.3426 19.9311 32.7615 19.6984 34.1446L18.35 50.2547L35.3387 46.409L36.7105 55.4743Z" fill="#267E66"/>
<path d="M14.9134 50.8875C14.9042 50.8882 14.8949 50.8871 14.886 50.8842C14.8772 50.8813 14.8691 50.8766 14.862 50.8706C14.855 50.8645 14.8492 50.8572 14.845 50.8489C14.8409 50.8406 14.8384 50.8316 14.8377 50.8223C14.837 50.8131 14.8381 50.8038 14.841 50.7949C14.8439 50.7861 14.8485 50.778 14.8546 50.7709C14.8606 50.7639 14.868 50.7581 14.8763 50.7539C14.8846 50.7498 14.8936 50.7472 14.9028 50.7466L18.309 50.0183C18.3182 50.0169 18.3275 50.0174 18.3365 50.0196C18.3455 50.0218 18.354 50.0258 18.3615 50.0313C18.3689 50.0368 18.3752 50.0437 18.38 50.0516C18.3848 50.0596 18.388 50.0684 18.3894 50.0775C18.3907 50.0867 18.3903 50.096 18.388 50.105C18.3858 50.114 18.3818 50.1225 18.3763 50.1299C18.3707 50.1373 18.3638 50.1436 18.3559 50.1484C18.3479 50.1531 18.3391 50.1563 18.3299 50.1576L14.9226 50.8859C14.9196 50.8867 14.9165 50.8872 14.9134 50.8875Z" fill="#0C0C0C"/>
<path d="M36.7105 55.4743C36.7143 55.4924 36.7111 55.5112 36.7015 55.5269C36.6919 55.5426 36.6766 55.5541 36.6588 55.5589L21.8572 59.0473C21.7632 59.0212 21.6716 58.9956 21.58 58.9672L36.5555 55.4415L35.2212 46.5149L18.3336 50.1581C18.3226 50.1599 18.3115 50.1591 18.3009 50.1559C18.2903 50.1527 18.2806 50.1471 18.2725 50.1396C18.2655 50.1311 18.2602 50.1214 18.257 50.1109C18.2537 50.1004 18.2526 50.0894 18.2537 50.0785L19.2004 40.8724C19.202 40.8633 19.2055 40.8545 19.2105 40.8468C19.2156 40.839 19.2221 40.8323 19.2297 40.827C19.2374 40.8217 19.246 40.818 19.255 40.8161C19.2641 40.8142 19.2735 40.8141 19.2826 40.8158C19.301 40.8187 19.3175 40.8287 19.3285 40.8437C19.3395 40.8587 19.3441 40.8775 19.3413 40.8959L18.4087 50.008L35.2517 46.3575C35.2609 46.3549 35.2705 46.3544 35.2798 46.3561C35.2892 46.3577 35.298 46.3614 35.3058 46.3669C35.3138 46.3713 35.3209 46.3772 35.3266 46.3845C35.3323 46.3917 35.3364 46.4001 35.3386 46.409L36.7105 55.4743Z" fill="#0C0C0C"/>
</svg>
