<svg width="55" height="55" viewBox="0 0 55 55" fill="none" xmlns="http://www.w3.org/2000/svg">
<path d="M27.4043 54.8079C42.539 54.8079 54.8081 42.5388 54.8081 27.4041C54.8081 12.2694 42.539 0.000274658 27.4043 0.000274658C12.2695 0.000274658 0.000427246 12.2694 0.000427246 27.4041C0.000427246 42.5388 12.2695 54.8079 27.4043 54.8079Z" fill="white"/>
<path opacity="0.09" d="M0.000184088 27.4033C0.000137627 32.8232 1.60728 38.1214 4.61837 42.6279C7.62946 47.1344 11.9093 50.6468 16.9166 52.7209C21.9239 54.795 27.4338 55.3377 32.7495 54.2804C38.0653 53.2231 42.9481 50.6132 46.7806 46.7807C50.613 42.9483 53.223 38.0655 54.2803 32.7498C55.3377 27.434 54.7951 21.9241 52.721 16.9168C50.6469 11.9095 47.1345 7.62964 42.6281 4.61851C38.1216 1.60738 32.8234 0.000184944 27.4035 0.000184944C23.8012 -0.0130738 20.2318 0.68669 16.9011 2.05913C13.5704 3.43156 10.5442 5.44954 7.99697 7.9968C5.44969 10.5441 3.43166 13.5702 2.0592 16.9009C0.686732 20.2316 -0.0130438 23.801 0.000184088 27.4033Z" fill="#2C4981"/>
<path d="M39.8388 12.2815C39.4011 17.3556 39.8068 19.0761 41.9137 21.9833C43.6908 24.4343 33.5796 22.3509 29.106 21.5541L33.0537 10.0158C33.0537 10.0158 39.9924 10.4998 39.8388 12.2815Z" fill="#0A0A0A"/>
<path d="M24.4041 10.1705C23.0841 15.0893 23.2324 16.611 20.6493 19.1941C18.5086 21.335 26.8521 21.7703 31.329 22.5481L31.5554 10.3563C31.5554 10.3563 24.8678 8.4432 24.4041 10.1705Z" fill="#0A0A0A"/>
<path d="M24.849 24.4769C24.8784 24.473 25.2063 29.9128 31.5256 29.4385C35.9003 29.1108 37.4601 24.4692 37.5604 24.4692C37.0605 24.3861 36.5674 24.2665 36.0849 24.1114C35.3962 23.7412 34.5437 23.356 34.3217 22.0184C34.1937 21.2472 34.4107 17.3026 34.344 16.5215L27.6287 18.0205C27.7226 19.6681 28.3804 23.4877 26.0783 24.1636C25.6947 24.2763 25.2819 24.3792 24.849 24.4769Z" fill="#FFCAB6"/>
<path opacity="0.5" d="M27.5344 22.6035C27.6397 22.2645 27.7074 21.915 27.7364 21.5612C27.8104 20.754 27.7957 19.9412 27.6928 19.1372C29.0577 18.953 30.3436 18.3896 31.4043 17.5111C31.5291 17.9718 32.2148 19.9838 32.0249 20.4214C31.6658 21.2488 29.9794 22.6035 27.5344 22.6035Z" fill="#0C0C0C"/>
<path d="M28.4029 20.9089C31.0505 21.1649 34.476 20.106 35.1856 16.5802L35.826 13.3988C36.5357 9.87307 35.2589 6.64213 31.9394 5.97405C28.6197 5.30596 25.563 7.66539 24.8534 11.1904L24.5701 12.5999C24.2978 13.9518 23.6791 20.4522 28.4029 20.9089Z" fill="#FFCAB6"/>
<path d="M39.0302 14.4031L36.0438 14.0759C30.2002 13.0014 28.7691 8.28603 28.7691 8.28603C28.7691 8.28603 26.3178 11.5586 24.2365 10.8071C24.2365 10.8071 24.9074 2.91624 34.1469 4.30291C37.7772 4.84767 39.8385 7.8571 39.8385 11.8938C39.8385 14.8614 39.0302 14.4031 39.0302 14.4031Z" fill="#0A0A0A"/>
<path opacity="0.1" d="M30.9423 15.8029C30.9804 15.4833 30.6582 15.182 30.2225 15.13C29.7868 15.078 29.4027 15.295 29.3646 15.6146C29.3264 15.9342 29.6487 16.2355 30.0844 16.2875C30.5201 16.3394 30.9042 16.1225 30.9423 15.8029Z" fill="#0C0C0C"/>
<path opacity="0.1" d="M25.4832 15.0111C25.4442 15.3301 25.0604 15.5469 24.6244 15.4954C24.5491 15.4863 24.4749 15.4695 24.4031 15.4452C24.3829 15.0646 24.3817 14.6986 24.3928 14.3597C24.5137 14.3295 24.6393 14.3222 24.763 14.338C25.1976 14.3895 25.5199 14.6906 25.4832 15.0111Z" fill="#0C0C0C"/>
<path opacity="0.5" d="M27.4074 15.9974H27.4008C27.2663 15.9695 27.1336 15.934 27.0031 15.8913C26.8081 15.826 26.553 15.7191 26.5885 15.5427C26.6289 15.3418 27.6155 13.2849 27.7278 13.0512C27.7324 13.0408 27.7391 13.0314 27.7475 13.0236C27.7558 13.0158 27.7657 13.0097 27.7764 13.0058C27.7871 13.0018 27.7985 13.0001 27.81 13.0006C27.8214 13.0012 27.8326 13.004 27.8429 13.0089C27.8532 13.0139 27.8624 13.0209 27.87 13.0294C27.8775 13.038 27.8833 13.048 27.8869 13.0588C27.8906 13.0697 27.892 13.0811 27.8911 13.0925C27.8903 13.1039 27.8871 13.115 27.8819 13.1252C27.4609 14.001 26.7832 15.4412 26.756 15.5765C26.9586 15.714 27.1912 15.801 27.4344 15.83C27.4559 15.8345 27.4748 15.8471 27.4873 15.8652C27.4997 15.8833 27.5047 15.9055 27.5012 15.9272C27.4978 15.9488 27.4861 15.9684 27.4686 15.9817C27.4511 15.995 27.4292 16.001 27.4074 15.9986V15.9974Z" fill="#0C0C0C"/>
<path d="M34.7633 17.6129C35.7722 17.8158 36.807 16.9013 37.0102 15.8924C37.2134 14.8835 36.5075 14.1625 35.4986 13.9596L34.8427 14.5309L33.896 17.4383L34.7633 17.6129Z" fill="#FFCAB6"/>
<path d="M27.0125 11.4099C26.8879 11.3216 26.7521 11.2505 26.6087 11.1984C26.4634 11.1439 26.3113 11.1097 26.1567 11.0967C26.002 11.082 25.846 11.0906 25.6939 11.1223C25.5405 11.1536 25.3917 11.204 25.2509 11.2724L25.2464 11.2743C25.2312 11.2798 25.2144 11.2794 25.1994 11.2732C25.1844 11.267 25.1723 11.2555 25.1654 11.2408C25.1584 11.2262 25.1572 11.2094 25.1619 11.1939C25.1665 11.1784 25.1768 11.1652 25.1907 11.1569C25.34 11.0781 25.4985 11.0183 25.6627 10.979C25.8281 10.9388 25.9986 10.9238 26.1684 10.9344C26.5125 10.9535 26.8451 11.0646 27.1316 11.256C27.1523 11.2709 27.1664 11.2934 27.1709 11.3186C27.1753 11.3438 27.1697 11.3697 27.1553 11.3909C27.141 11.412 27.1189 11.4267 27.0938 11.4318C27.0688 11.437 27.0427 11.4321 27.0212 11.4183L27.0188 11.4167L27.0125 11.4099Z" fill="#0C0C0C"/>
<path d="M29.7311 11.7857C30.0689 11.7185 30.4187 11.7432 30.7437 11.8574C30.9047 11.9127 31.0564 11.9918 31.1938 12.0923C31.3305 12.1913 31.4542 12.307 31.5619 12.4369C31.5736 12.4497 31.5797 12.4666 31.5789 12.4839C31.5782 12.5013 31.5705 12.5175 31.5577 12.5292C31.5449 12.5409 31.528 12.547 31.5107 12.5462C31.4934 12.5455 31.4771 12.5378 31.4654 12.525L31.4619 12.5215C31.3578 12.4044 31.2394 12.3008 31.1095 12.2133C30.9811 12.1257 30.8402 12.058 30.6916 12.0124C30.3966 11.92 30.0824 11.9072 29.7808 11.9753L29.7736 11.9772C29.7483 11.9834 29.7215 11.9793 29.6993 11.9659C29.677 11.9524 29.6609 11.9306 29.6547 11.9053C29.6485 11.88 29.6526 11.8533 29.666 11.831C29.6795 11.8087 29.7013 11.7927 29.7266 11.7864L29.7311 11.7857Z" fill="#0C0C0C"/>
<path d="M14.6713 51.6741C13.594 51.2043 12.788 50.7016 10.9484 49.3156C9.62098 48.3193 8.38736 47.2038 7.26294 45.983L16.7086 28.0091L17.1193 27.2283L25.639 31.7073L18.2487 45.7713L18.2146 45.8333L18.2788 46.0835" fill="#AC3742"/>
<path d="M46.0848 37.2153C45.8367 39.8806 45.7832 44.0258 45.8003 47.7112C42.2387 50.9419 37.8892 53.1778 33.1893 54.1943C28.4894 55.2107 23.6048 54.9718 19.0265 53.5015C18.4662 47.9436 17.633 39.776 17.1634 34.7468C16.6875 29.5375 15.2879 27.817 19.1078 25.3223C21.2126 24.2509 24.5492 24.1566 26.0489 24.1566C25.5398 29.0944 35.9461 29.7022 36.2047 24.1566C43.988 24.8844 47.5913 25.0653 46.0848 37.2153Z" fill="#AC3742"/>
<path d="M26.5197 16.6924C27.3799 17.1298 28.3614 17.2681 29.309 17.0853C29.3418 17.0791 29.3758 17.0824 29.4068 17.0948C29.4379 17.1071 29.4648 17.1281 29.4844 17.1552C29.504 17.1824 29.5154 17.2145 29.5174 17.2479C29.5193 17.2813 29.5118 17.3145 29.4955 17.3438C29.2136 17.8415 28.5427 18.6926 27.3933 18.3459C26.651 18.1218 26.3705 17.3593 26.2657 16.8859C26.2584 16.8531 26.2606 16.8189 26.2721 16.7873C26.2836 16.7557 26.3039 16.7281 26.3307 16.7078C26.3574 16.6874 26.3894 16.6751 26.4229 16.6724C26.4564 16.6696 26.49 16.6766 26.5197 16.6924Z" fill="white"/>
<path d="M26.466 12.8666C26.6955 12.8666 26.8815 12.6806 26.8815 12.4511C26.8815 12.2216 26.6955 12.0355 26.466 12.0355C26.2365 12.0355 26.0504 12.2216 26.0504 12.4511C26.0504 12.6806 26.2365 12.8666 26.466 12.8666Z" fill="#0C0C0C"/>
<path d="M30.4603 13.5657C30.6898 13.5657 30.8759 13.3796 30.8759 13.1501C30.8759 12.9206 30.6898 12.7346 30.4603 12.7346C30.2308 12.7346 30.0447 12.9206 30.0447 13.1501C30.0447 13.3796 30.2308 13.5657 30.4603 13.5657Z" fill="#0C0C0C"/>
<path d="M18.0836 43.718H18.0916C18.1085 43.7156 18.1237 43.7066 18.134 43.693C18.1442 43.6794 18.1487 43.6623 18.1463 43.6454L17.4115 36.2427C17.4106 36.2342 17.4079 36.2261 17.4037 36.2187C17.3995 36.2114 17.3938 36.2049 17.3871 36.1998C17.3803 36.1947 17.3726 36.191 17.3644 36.189C17.3561 36.1869 17.3476 36.1866 17.3392 36.1879C17.3308 36.1891 17.3228 36.1918 17.3155 36.1961C17.3082 36.2003 17.3018 36.206 17.2968 36.2127C17.2917 36.2194 17.288 36.2271 17.2859 36.2353C17.2837 36.2434 17.2833 36.2519 17.2845 36.2603L18.019 43.6632C18.0213 43.6786 18.0292 43.6926 18.0411 43.7027C18.0529 43.7128 18.0681 43.7182 18.0836 43.718Z" fill="#0C0C0C"/>
<path d="M17.123 38.0802H9.62256V47.279H17.123V38.0802Z" fill="white"/>
<path d="M14.0518 42.6798C14.0519 42.0723 14.2322 41.4784 14.5698 40.9734C14.9074 40.4684 15.3872 40.0748 15.9485 39.8424C16.5098 39.61 17.1274 39.5493 17.7232 39.6679C18.319 39.7865 18.8663 40.0792 19.2958 40.5088C19.7253 40.9384 20.0177 41.4858 20.1362 42.0816C20.2546 42.6775 20.1937 43.295 19.9612 43.8563C19.7286 44.4175 19.3349 44.8972 18.8297 45.2346C18.3246 45.5721 17.7307 45.7522 17.1232 45.7522C16.3087 45.7512 15.5279 45.4272 14.9521 44.8512C14.3762 44.2752 14.0524 43.4942 14.0518 42.6798ZM15.3097 42.6798C15.3097 43.0384 15.4161 43.3891 15.6153 43.6873C15.8146 43.9855 16.0978 44.218 16.4292 44.3552C16.7606 44.4925 17.1252 44.5284 17.477 44.4584C17.8288 44.3885 18.1519 44.2157 18.4055 43.9621C18.6592 43.7085 18.8319 43.3853 18.9019 43.0336C18.9718 42.6818 18.9359 42.3171 18.7987 41.9858C18.6614 41.6544 18.429 41.3712 18.1307 41.1719C17.8325 40.9726 17.4819 40.8663 17.1232 40.8663C16.6424 40.8668 16.1815 41.0581 15.8415 41.3981C15.5015 41.738 15.3103 42.199 15.3097 42.6798Z" fill="white"/>
<path d="M17.0634 43.818C17.0886 43.6624 17.1678 43.5206 17.2871 43.4175C17.4064 43.3144 17.5581 43.2566 17.7158 43.2543C17.7114 43.2479 17.7083 43.2408 17.7066 43.2333L17.4832 43.1849C17.3275 43.1541 17.1872 43.0705 17.0861 42.9481C16.985 42.8258 16.9293 42.6723 16.9283 42.5136C16.9298 42.414 16.9533 42.3161 16.9972 42.2267C17.0411 42.1374 17.1043 42.0589 17.1822 41.9969C17.2601 41.935 17.3508 41.8911 17.4478 41.8684C17.5447 41.8458 17.6455 41.8449 17.7428 41.8659L18.2697 41.9796C18.2697 41.9777 18.2697 41.9759 18.2697 41.9738C18.2709 41.9696 18.2724 41.9655 18.2744 41.9615C18.1371 41.897 18.0257 41.7879 17.9584 41.6519C17.891 41.516 17.8718 41.3612 17.9037 41.2129C17.9613 40.8232 18.4289 40.6949 18.7714 40.7689L20.1363 41.0132L19.6756 40.7078C19.5303 40.6072 19.4286 40.4551 19.3911 40.2823C19.3535 40.1096 19.3829 39.929 19.4734 39.7771C19.5228 39.7004 19.5873 39.6344 19.663 39.5834C19.7387 39.5324 19.824 39.4974 19.9137 39.4804C20.0035 39.4635 20.0957 39.465 20.1848 39.4849C20.2739 39.5047 20.358 39.5426 20.432 39.596L25.9334 45.8916L24.7118 45.3374C24.3328 45.895 23.7958 46.3267 23.1697 46.5771C22.5437 46.8274 21.8571 46.8851 21.1981 46.7427L18.2147 46.0924C18.059 46.0617 17.9187 45.978 17.8175 45.8557C17.7163 45.7333 17.6606 45.5798 17.6596 45.4211C17.6618 45.2779 17.7097 45.1391 17.7963 45.025C17.8829 44.9109 18.0036 44.8275 18.1409 44.7868C18.1366 44.7767 18.1351 44.7657 18.1365 44.7549C18.1381 44.7446 18.1423 44.735 18.1486 44.7268C18.1549 44.7185 18.1632 44.7121 18.1727 44.7079L17.622 44.589C17.4486 44.5552 17.2944 44.4568 17.1907 44.3137C17.087 44.1705 17.0415 43.9934 17.0634 43.818Z" fill="#FFCAB6"/>
<path opacity="0.2" d="M19.2662 42.2013C19.2805 42.1982 19.2933 42.1902 19.3024 42.1788C19.3115 42.1673 19.3164 42.153 19.3161 42.1383C19.3158 42.1236 19.3105 42.1095 19.3009 42.0984C19.2914 42.0873 19.2782 42.0798 19.2638 42.0773L18.3423 41.9213C18.3339 41.9195 18.3253 41.9195 18.317 41.9211C18.3087 41.9228 18.3007 41.9261 18.2937 41.9309C18.2867 41.9357 18.2807 41.9418 18.2761 41.949C18.2715 41.9561 18.2684 41.9641 18.2669 41.9725C18.2655 41.9809 18.2658 41.9895 18.2678 41.9978C18.2698 42.0061 18.2734 42.0138 18.2784 42.0207C18.2835 42.0275 18.2899 42.0333 18.2972 42.0376C18.3045 42.0419 18.3127 42.0447 18.3211 42.0458L19.2427 42.2018C19.2504 42.2031 19.2584 42.203 19.2662 42.2013Z" fill="#0C0C0C"/>
<path opacity="0.2" d="M19.0437 43.5048C19.058 43.5018 19.0709 43.4939 19.08 43.4824C19.0892 43.471 19.0941 43.4567 19.0938 43.442C19.0936 43.4274 19.0883 43.4133 19.0788 43.4021C19.0693 43.3909 19.0562 43.3834 19.0418 43.3808L17.7794 43.1569C17.7711 43.155 17.7624 43.1548 17.754 43.1563C17.7455 43.1578 17.7375 43.161 17.7303 43.1658C17.7232 43.1705 17.7171 43.1766 17.7123 43.1838C17.7076 43.191 17.7044 43.199 17.7029 43.2074C17.7014 43.2159 17.7017 43.2245 17.7036 43.2329C17.7056 43.2412 17.7092 43.2491 17.7143 43.256C17.7194 43.2629 17.7258 43.2687 17.7332 43.273C17.7406 43.2773 17.7488 43.2801 17.7573 43.2812L19.0197 43.5053C19.0277 43.5067 19.0358 43.5065 19.0437 43.5048Z" fill="#0C0C0C"/>
<path opacity="0.2" d="M18.8119 44.9181C18.8264 44.9151 18.8393 44.907 18.8485 44.8954C18.8576 44.8838 18.8624 44.8693 18.862 44.8545C18.8615 44.8398 18.856 44.8256 18.8462 44.8145C18.8364 44.8034 18.823 44.7961 18.8084 44.7939L18.2096 44.7022C18.1936 44.7007 18.1775 44.7054 18.1648 44.7153C18.152 44.7253 18.1436 44.7397 18.1412 44.7556C18.1387 44.7716 18.1425 44.7879 18.1517 44.8011C18.1609 44.8144 18.1748 44.8237 18.1906 44.827L18.7894 44.9188C18.7969 44.92 18.8045 44.9198 18.8119 44.9181Z" fill="#0C0C0C"/>
<path d="M49.9061 43.0399C46.531 47.8935 41.6807 51.5293 36.0753 53.4076L36.0732 53.4055C34.8282 53.1619 22.9514 48.4724 21.3803 48.1644L23.0994 40.1449C27.5133 41.0232 35.5637 44.4092 40.0027 45.2908L36.8709 31.0912C36.7575 30.464 36.7696 29.8205 36.9068 29.198C37.0439 28.5755 37.3032 27.9865 37.6697 27.465C38.0362 26.9435 38.5026 26.4999 39.0418 26.16C39.581 25.8202 40.1823 25.5907 40.8109 25.485C41.4395 25.3793 42.0828 25.3994 42.7035 25.5442C43.3243 25.6889 43.9101 25.9555 44.427 26.3284C44.9439 26.7013 45.3817 27.1731 45.7149 27.7165C46.0481 28.2599 46.2701 28.864 46.3681 29.4938L49.9061 43.0399Z" fill="#AC3742"/>
<path d="M43.3674 46.3361C43.3834 46.3358 43.3987 46.3295 43.4104 46.3185C43.422 46.3075 43.4291 46.2926 43.4303 46.2766C43.4315 46.2606 43.4267 46.2448 43.4169 46.2322C43.407 46.2195 43.3928 46.211 43.377 46.2083L40.0394 45.0761C40.0311 45.0747 40.0225 45.075 40.0143 45.077C40.0061 45.079 39.9983 45.0826 39.9915 45.0877C39.9847 45.0927 39.979 45.099 39.9747 45.1063C39.9703 45.1136 39.9675 45.1217 39.9664 45.1301C39.9639 45.1469 39.9682 45.164 39.9783 45.1777C39.9885 45.1913 40.0036 45.2004 40.0204 45.2029L43.358 46.3352C43.3611 46.3358 43.3642 46.3361 43.3674 46.3361Z" fill="#0C0C0C"/>
<path d="M40.0907 45.1303C40.0925 45.1504 40.0864 45.1704 40.0735 45.1859C40.0662 45.1929 40.0574 45.1981 40.0477 45.2011C40.038 45.204 40.0278 45.2047 40.0178 45.2031L23.2063 40.2411L21.5216 48.1341L35.9983 53.4308C35.9534 53.4458 35.9062 53.4606 35.8614 53.4757C35.8292 53.4865 35.7972 53.497 35.7629 53.5057L21.4274 48.2421C21.4111 48.2377 21.3972 48.2273 21.3885 48.213C21.3797 48.1986 21.3768 48.1815 21.3804 48.1651L23.0994 40.1455C23.1015 40.1374 23.1052 40.1297 23.1103 40.1231C23.1155 40.1165 23.1219 40.111 23.1293 40.107C23.1364 40.102 23.1445 40.0987 23.153 40.0972C23.1615 40.0958 23.1703 40.0962 23.1786 40.0985L39.9495 45.0669L38.051 37.2387C38.0486 37.222 38.053 37.2051 38.063 37.1915C38.073 37.178 38.0879 37.1689 38.1045 37.1661C38.1128 37.1645 38.1213 37.1645 38.1296 37.1662C38.1379 37.1679 38.1457 37.1713 38.1527 37.176C38.1597 37.1808 38.1656 37.1869 38.1702 37.194C38.1748 37.2011 38.178 37.209 38.1794 37.2173L40.0907 45.1303Z" fill="#0C0C0C"/>
</svg>
