<svg width="49" height="49" viewBox="0 0 49 49" fill="none" xmlns="http://www.w3.org/2000/svg">
<path d="M24.5 6.125C34.6482 6.125 42.875 14.3518 42.875 24.5C42.875 34.6482 34.6482 42.875 24.5 42.875C14.3518 42.875 6.125 34.6482 6.125 24.5C6.125 14.3518 14.3518 6.125 24.5 6.125ZM24.5 13.291C23.9479 13.291 23.5004 13.739 23.5 14.291V23.5H14.292C13.7397 23.5 13.292 23.9477 13.292 24.5C13.292 25.0523 13.7397 25.5 14.292 25.5H23.5V34.708C23.5 35.2603 23.9477 35.708 24.5 35.708C25.0523 35.708 25.5 35.2603 25.5 34.708V25.5H34.709C35.261 25.4996 35.709 25.0521 35.709 24.5C35.709 23.9479 35.261 23.5004 34.709 23.5H25.5V14.291C25.4996 13.739 25.0521 13.291 24.5 13.291Z" fill="#242424"/>
</svg>
