<svg width="67" height="67" viewBox="0 0 67 67" fill="none" xmlns="http://www.w3.org/2000/svg">
<g filter="url(#filter0_d_2_4)">
<path d="M31.5 5.5C45.8594 5.5 57.5 17.1406 57.5 31.5C57.5 45.8594 45.8594 57.5 31.5 57.5C17.1406 57.5 5.5 45.8594 5.5 31.5C5.5 17.1406 17.1406 5.5 31.5 5.5Z" fill="white" stroke="#047E00"/>
</g>
<path d="M23.0254 34.5153C22.8023 34.0719 22.5863 33.6229 22.3789 33.1725C21.9725 32.2915 21.5917 31.3893 21.4212 30.4344C20.8684 27.3539 22.4613 23.9948 24.7475 22.0198C28.0014 19.2106 32.6108 18.1492 36.1958 15.6569C35.9971 16.882 35.3423 17.9866 34.3628 18.7488C36.0409 17.4558 41.0411 19.5857 42.6041 20.3843C45.1957 21.6891 47.398 23.6533 48.9897 26.0793C47.3023 25.3934 45.4655 25.1583 43.6598 25.3973C45.0637 26.7571 46.5244 28.2078 47.0558 30.0863C44.5365 28.2704 40.5139 29.1442 38.9794 31.8511C37.9947 33.5846 38.0089 35.696 37.4164 37.6015C36.7912 39.6192 35.1045 40.9008 33.1209 41.4379C31.6261 41.8472 28.6849 42.0319 27.3307 41.1538C26.9201 40.8881 26.6203 40.4817 26.3446 40.081C25.1068 38.3073 23.9975 36.4473 23.0254 34.5153Z" fill="#00214E"/>
<path d="M27.0082 35.0793C27.0082 36.4134 25.9267 37.4949 24.5926 37.4949C23.2586 37.4949 22.1771 36.4134 22.1771 35.0793C22.1771 33.7453 23.2586 32.6638 24.5926 32.6638C25.9267 32.6638 27.0082 33.7453 27.0082 35.0793Z" fill="#FFBAB0"/>
<path d="M27.6985 34.9372C27.6985 36.1928 26.6807 37.2107 25.4251 37.2107C24.1695 37.2107 23.1516 36.1928 23.1516 34.9372C23.1516 33.6817 24.1695 32.6638 25.4251 32.6638C26.6807 32.6638 27.6985 33.6817 27.6985 34.9372Z" fill="#ECAE9E"/>
<path d="M47.5532 52.5894C38.0547 59.903 24.8059 59.8446 15.3724 52.4473L22.2865 49.2062C22.6158 49.0515 22.9318 48.8699 23.2314 48.6635C23.3224 48.6009 23.4133 48.5356 23.5 48.4674C24.2525 47.8916 24.8719 47.1602 25.3159 46.3232C25.8843 45.2504 26.0718 44.0654 26.0804 42.8576C26.0804 42.4583 26.0718 42.0576 26.0605 41.6569C26.0491 41.2562 26.0321 40.8314 26.0278 40.4179C26.0221 39.968 26.0174 39.5175 26.0136 39.0666L26.2978 39.2087L27.0366 39.5909L27.3791 39.6492L31.3406 40.3227L35.7625 41.0758L35.896 45.6227L35.9514 47.5111L35.9614 47.8308V47.8777L37.6807 48.5768L47.5532 52.5894Z" fill="#FFBAB0"/>
<path d="M35.9487 47.501L35.7299 47.5237C33.5915 47.7112 31.4787 46.9501 29.9511 45.4421L26.0606 40.7048C26.0478 40.2927 26.0322 40.8227 26.0279 40.4092C26.0222 39.9593 26.0175 39.5088 26.0137 39.0579L26.2979 39.2L27.0368 39.5822L27.3792 39.6405L31.3407 40.314L35.7626 41.0671L35.8962 45.614L35.9487 47.501Z" fill="#ECAE9E"/>
<path d="M25.8232 30.5737C25.3801 30.9656 25.0951 31.5057 25.0218 32.0926C24.7248 34.8677 25.7521 38.1429 26.0378 40.9222L31.2127 44.7388C32.9323 46.0233 35.1294 46.4878 37.2217 46.009C38.0558 45.8115 38.5844 45.6837 38.9609 45.0144C39.6884 43.7356 41.4745 39.3606 41.591 36.2744C41.6237 35.3977 41.6024 34.062 41.0625 33.316C40.7996 32.9537 40.6646 32.9452 40.7598 32.4337C40.8579 31.8994 40.9985 31.3708 41.1165 30.8408C41.2878 30.0742 41.3357 29.2852 41.2586 28.5034C41.1804 27.793 41.1832 27.1621 41.1079 26.4388C41.071 26.0879 40.9147 24.5519 40.9147 24.5519C40.0124 25.9103 38.3841 26.6236 36.8779 27.0925C34.8289 27.729 32.6961 28.0402 30.6188 28.5745C29.2419 28.934 27.0153 29.4455 25.8232 30.5737Z" fill="#FFBAB0"/>
<path d="M31.963 32.715C32.8297 32.7221 32.8297 34.0478 31.963 34.0549H31.9246C31.0564 34.0478 31.0564 32.7221 31.9246 32.715H31.963Z" fill="#00214E"/>
<path d="M39.4497 32.31C40.2553 32.31 40.2553 33.5462 39.4497 33.5533H39.4142C38.6099 33.5462 38.6099 32.3157 39.4142 32.31H39.4497Z" fill="#00214E"/>
<path fill-rule="evenodd" clip-rule="evenodd" d="M35.2235 40.5515C34.1901 40.4243 33.2379 39.9266 32.5435 39.1507L32.6526 39.0531C33.3234 39.8025 34.2432 40.2833 35.2414 40.4061L35.2235 40.5515Z" fill="#00214E"/>
<path fill-rule="evenodd" clip-rule="evenodd" d="M33.9315 31.0838C32.6114 30.8875 31.267 30.9257 29.9601 31.1967L29.9304 31.0534C31.2541 30.7789 32.6159 30.7401 33.953 30.939L33.9315 31.0838Z" fill="#00214E"/>
<path fill-rule="evenodd" clip-rule="evenodd" d="M40.8088 31.0345C39.9861 30.9614 39.157 31.0189 38.3523 31.2048L38.3193 31.0621C39.1391 30.8727 39.9837 30.8142 40.8218 30.8886L40.8088 31.0345Z" fill="#00214E"/>
<path d="M47.9409 52.3381C38.2006 60.7465 24.6146 60.6792 14.9409 52.1748L22.031 48.4485C22.3687 48.2706 22.6928 48.0619 23 47.8245C23.0932 47.7526 23.1865 47.6775 23.2754 47.5991C26.7068 50.337 31.3899 52.0637 35.4406 50.0201C36.4052 49.53 37.2911 48.7393 37.8156 47.7232L47.9409 52.3381Z" fill="#373232"/>
<path fill-rule="evenodd" clip-rule="evenodd" d="M34.042 37.3153C33.9558 37.0548 34.0724 36.7704 34.3167 36.6454L34.3834 36.7757C34.2034 36.8678 34.1175 37.0774 34.181 37.2693C34.2445 37.4613 34.4384 37.5783 34.6378 37.5449L34.6619 37.6893C34.3913 37.7346 34.1281 37.5758 34.042 37.3153Z" fill="#00214E"/>
<path fill-rule="evenodd" clip-rule="evenodd" d="M37.0562 35.0065C36.8671 34.2059 36.6787 33.4077 36.4688 32.6028L36.6105 32.5659C36.8205 33.3714 37.0099 34.1735 37.1994 34.9762C37.329 35.5248 37.4586 36.0737 37.5949 36.6241C37.6367 36.7574 37.652 36.8976 37.6399 37.0367L37.6397 37.0392L37.6393 37.0417C37.6041 37.2671 37.4523 37.4208 37.2695 37.5264C37.0874 37.6317 36.8657 37.6947 36.6703 37.7371L36.6392 37.594C36.8303 37.5525 37.0342 37.4934 37.1963 37.3997C37.3569 37.3068 37.4677 37.1856 37.4943 37.0215C37.5044 36.9016 37.4909 36.7808 37.4546 36.666L37.4539 36.6638L37.4533 36.6615C37.3159 36.1067 37.1859 35.556 37.0562 35.0065Z" fill="#00214E"/>
<defs>
<filter id="filter0_d_2_4" x="0" y="0" width="67" height="67" filterUnits="userSpaceOnUse" color-interpolation-filters="sRGB">
<feFlood flood-opacity="0" result="BackgroundImageFix"/>
<feColorMatrix in="SourceAlpha" type="matrix" values="0 0 0 0 0 0 0 0 0 0 0 0 0 0 0 0 0 0 127 0" result="hardAlpha"/>
<feOffset dx="2" dy="2"/>
<feGaussianBlur stdDeviation="3.5"/>
<feComposite in2="hardAlpha" operator="out"/>
<feColorMatrix type="matrix" values="0 0 0 0 0 0 0 0 0 0 0 0 0 0 0 0 0 0 0.1 0"/>
<feBlend mode="normal" in2="BackgroundImageFix" result="effect1_dropShadow_2_4"/>
<feBlend mode="normal" in="SourceGraphic" in2="effect1_dropShadow_2_4" result="shape"/>
</filter>
</defs>
</svg>
