<svg width="63" height="70" viewBox="0 0 63 70" fill="none" xmlns="http://www.w3.org/2000/svg">
<path opacity="0.1" d="M1.81364 59.4881C1.25143 55.5087 2.34151 51.1891 5.4926 47.6325C14.1155 37.8998 13.7483 39.8541 15.264 28.1407C16.7796 16.4272 29.5358 11.858 38.984 16.7405C50.4226 22.651 44.4871 24.8725 58.1265 34.7414C69.9165 43.2725 58.9902 59.3569 39.5341 66.1028C23.8094 71.5549 3.44199 71.0138 1.81364 59.4881Z" fill="#D90800"/>
<path d="M11.5945 25.2498H48.0517C48.8801 25.2498 49.6745 25.5789 50.2603 26.1647C50.846 26.7505 51.1751 27.545 51.1751 28.3734V56.0561C51.1751 56.8845 50.846 57.679 50.2602 58.2647C49.6744 58.8505 48.8799 59.1796 48.0515 59.1796H10.2028C9.37436 59.1796 8.57987 58.8505 7.99409 58.2647C7.40831 57.679 7.07922 56.8845 7.07922 56.0561V29.7652C7.07922 28.5676 7.55494 27.4191 8.40172 26.5723C9.24851 25.7255 10.397 25.2498 11.5945 25.2498Z" fill="#262626"/>
<path d="M50.7769 27.8996H10.2028C8.47769 27.8996 7.07922 29.298 7.07922 31.0231V58.7057C7.07922 60.4308 8.47769 61.8292 10.2028 61.8292H50.7769C52.502 61.8292 53.9005 60.4308 53.9005 58.7057V31.0231C53.9005 29.298 52.502 27.8996 50.7769 27.8996Z" fill="#D90800"/>
<path opacity="0.55" d="M50.7769 27.8996H10.2028C8.47769 27.8996 7.07922 29.298 7.07922 31.0231V58.7057C7.07922 60.4308 8.47769 61.8292 10.2028 61.8292H50.7769C52.502 61.8292 53.9005 60.4308 53.9005 58.7057V31.0231C53.9005 29.298 52.502 27.8996 50.7769 27.8996Z" fill="white"/>
<path d="M50.7769 61.9414H10.2028C9.34491 61.9404 8.52244 61.5992 7.91582 60.9926C7.30921 60.386 6.96799 59.5635 6.96704 58.7056V31.0231C6.96801 30.1652 7.30923 29.3428 7.91584 28.7361C8.52245 28.1295 9.34491 27.7883 10.2028 27.7873H50.7769C51.6348 27.7883 52.4572 28.1295 53.0638 28.7362C53.6704 29.3428 54.0116 30.1652 54.0126 31.0231V58.7056C54.0117 59.5635 53.6705 60.3859 53.0639 60.9925C52.4573 61.5992 51.6348 61.9404 50.7769 61.9414ZM10.2028 28.0115C9.40438 28.0123 8.6389 28.3298 8.07434 28.8944C7.50978 29.459 7.19226 30.2245 7.19145 31.0229V58.7054C7.19228 59.5038 7.50981 60.2692 8.07437 60.8338C8.63893 61.3984 9.40439 61.7159 10.2028 61.7167H50.7769C51.5753 61.7159 52.3408 61.3983 52.9053 60.8338C53.4699 60.2692 53.7874 59.5038 53.7882 58.7054V31.0231C53.7874 30.2247 53.4699 29.4592 52.9053 28.8947C52.3408 28.3301 51.5753 28.0125 50.7769 28.0117L10.2028 28.0115Z" fill="#262626"/>
<path d="M50.3362 59.4476H49.4274V59.2232H50.3298L50.3362 59.4476ZM48.5248 59.4476H47.622V59.2232H48.5246L48.5248 59.4476ZM46.7196 59.4476H45.817V59.2232H46.7196V59.4476ZM44.9145 59.4476H44.0119V59.2232H44.9142L44.9145 59.4476ZM43.1093 59.4476H42.2064V59.2232H43.109L43.1093 59.4476ZM41.3041 59.4476H40.4016V59.2232H41.3041V59.4476ZM39.4989 59.4476H38.5964V59.2232H39.4989V59.4476ZM37.6938 59.4476H36.7912V59.2232H37.6938V59.4476ZM35.8887 59.4476H34.986V59.2232H35.8887V59.4476ZM34.0835 59.4476H33.1808V59.2232H34.0835V59.4476ZM32.2783 59.4476H31.3757V59.2232H32.2783V59.4476ZM30.4731 59.4476H29.5706V59.2232H30.4731V59.4476ZM28.6679 59.4476H27.7654V59.2232H28.6679V59.4476ZM26.8628 59.4476H25.9602V59.2232H26.8628V59.4476ZM25.0576 59.4476H24.155V59.2232H25.0576V59.4476ZM23.2525 59.4476H22.3498V59.2232H23.2525V59.4476ZM21.4473 59.4476H20.5447V59.2232H21.4473V59.4476ZM19.6421 59.4476H18.7395V59.2232H19.6421V59.4476ZM17.8369 59.4476H16.9344V59.2232H17.8369V59.4476ZM16.0318 59.4476H15.1292V59.2232H16.0318V59.4476ZM14.2266 59.4476H13.324V59.2232H14.2266V59.4476ZM12.4214 59.4476H11.5189V59.2232H12.4214V59.4476ZM10.6123 59.4466C10.2881 59.4353 9.97401 59.3306 9.70781 59.1451L9.83601 58.9609C10.0668 59.1219 10.3391 59.2128 10.6203 59.2227L10.6123 59.4466ZM51.2503 59.1758L51.1282 58.9875C51.3644 58.8346 51.5518 58.617 51.668 58.3606L51.8724 58.4534C51.7384 58.7487 51.5225 58.9995 51.2503 59.1758ZM9.10947 58.4029C9.02423 58.1975 8.98055 57.9773 8.98096 57.7549V57.4734H9.20536V57.7549C9.20498 57.9478 9.24286 58.1389 9.31682 58.317L9.10947 58.4029ZM52.023 57.5246H51.7986V56.622H52.023V57.5246ZM9.20536 56.5708H8.98096V55.6682H9.20536V56.5708ZM52.0228 55.7195H51.7984V54.8168H52.0228V55.7195ZM9.20536 54.7656H8.98096V53.863H9.20536V54.7656ZM52.0228 53.9143H51.7984V53.0117H52.0228V53.9143ZM9.20536 52.9605H8.98096V52.0579H9.20536V52.9605ZM52.0228 52.1091H51.7984V51.2065H52.0228V52.1091ZM9.20536 51.1553H8.98096V50.2527H9.20536V51.1553ZM52.0228 50.3039H51.7984V49.4014H52.0228V50.3039ZM9.20536 49.3501H8.98096V48.4476H9.20536V49.3501ZM52.0228 48.4987H51.7984V47.596H52.0228V48.4987ZM9.20536 47.545H8.98096V46.6424H9.20536V47.545ZM52.0228 46.6936H51.7984V45.791H52.0228V46.6936ZM9.20536 45.7398H8.98096V44.8372H9.20536V45.7398ZM52.0228 44.8882H51.7984V43.9858H52.0228V44.8882ZM9.20536 43.9347H8.98096V43.032H9.20536V43.9347ZM52.0228 43.0833H51.7984V42.1804H52.0228V43.0833ZM9.20536 42.1295H8.98096V41.2269H9.20536V42.1295ZM52.0228 41.2781H51.7984V40.3755H52.0228V41.2781ZM9.20536 40.3243H8.98096V39.4217H9.20536V40.3243ZM52.0228 39.4726H51.7984V38.5704H52.0228V39.4726ZM9.20536 38.5191H8.98096V37.6166H9.20536V38.5191ZM52.0228 37.6677H51.7984V36.7652H52.0228V37.6677ZM9.20536 36.7139H8.98096V35.8114H9.20536V36.7139ZM52.0228 35.8626H51.7984V34.96H52.0228V35.8626ZM9.20536 34.9088H8.98096V34.0062H9.20536V34.9088ZM52.0228 34.0574H51.7984V33.1548H52.0228V34.0574ZM9.20536 33.1037H8.98096V32.201H9.20536V33.1037ZM52.0228 32.2523H51.7984V31.9739C51.7989 31.78 51.7608 31.5881 51.6862 31.4092L51.8934 31.3228C51.9794 31.5289 52.0235 31.7502 52.0232 31.9736L52.0228 32.2523ZM9.33694 31.3653L9.13273 31.2723C9.26722 30.9772 9.48362 30.7269 9.7562 30.5511L9.87798 30.7396C9.64148 30.8921 9.45371 31.1093 9.33694 31.3653ZM51.1653 30.7662C50.9342 30.6059 50.6617 30.5157 50.3805 30.5064L50.388 30.282C50.7123 30.2926 51.0266 30.3967 51.2931 30.5816L51.1653 30.7662ZM49.4818 30.5055H48.5795V30.2811H49.482L49.4818 30.5055ZM47.6766 30.5055H46.7741V30.2811H47.6766V30.5055ZM45.8715 30.5055H44.9689V30.2811H45.8717L45.8715 30.5055ZM44.0663 30.5055H43.1638V30.2811H44.0665L44.0663 30.5055ZM42.2611 30.5055H41.3586V30.2811H42.2611V30.5055ZM40.456 30.5055H39.5534V30.2811H40.456L40.456 30.5055ZM38.6508 30.5055H37.7482V30.2811H38.6508V30.5055ZM36.8457 30.5055H35.943V30.2811H36.8457V30.5055ZM35.0405 30.5055H34.1379V30.2811H35.0404L35.0405 30.5055ZM33.2353 30.5055H32.3326V30.2811H33.2352L33.2353 30.5055ZM31.4301 30.5055H30.5276V30.2811H31.4301V30.5055ZM29.6249 30.5055H28.7224V30.2811H29.6248L29.6249 30.5055ZM27.8198 30.5055H26.917V30.2811H27.8195L27.8198 30.5055ZM26.0147 30.5055H25.112V30.2811H26.0147V30.5055ZM24.2095 30.5055H23.3068V30.2811H24.2092L24.2095 30.5055ZM22.4043 30.5055H21.5014V30.2811H22.4039L22.4043 30.5055ZM20.5991 30.5055H19.6966V30.2811H20.5991V30.5055ZM18.7939 30.5055H17.8914V30.2811H18.7939V30.5055ZM16.9888 30.5055H16.0862V30.2811H16.9888V30.5055ZM15.1836 30.5055H14.281V30.2811H15.1836V30.5055ZM13.3785 30.5055H12.4759V30.2811H13.3785V30.5055ZM11.5733 30.5055H10.6738L10.6707 30.2811H11.5733V30.5055Z" fill="white"/>
<path d="M39.7964 39.5951H54.0794C54.5279 39.5951 54.958 39.7733 55.2751 40.0904C55.5923 40.4076 55.7705 40.8377 55.7705 41.2862V48.4425C55.7705 48.891 55.5923 49.3211 55.2751 49.6383C54.958 49.9554 54.5279 50.1336 54.0794 50.1336H39.7964C39.2945 50.1336 38.8131 49.9342 38.4582 49.5793C38.1033 49.2244 37.9039 48.743 37.9039 48.2411V41.4877C37.9039 41.2392 37.9528 40.9931 38.0479 40.7635C38.143 40.5339 38.2824 40.3252 38.4582 40.1495C38.6339 39.9737 38.8425 39.8343 39.0722 39.7392C39.3018 39.6441 39.5479 39.5951 39.7964 39.5951Z" fill="white"/>
<path d="M54.0792 50.2459H39.7963C39.2648 50.2452 38.7553 50.0338 38.3795 49.658C38.0037 49.2822 37.7923 48.7727 37.7916 48.2412V41.4878C37.7923 40.9564 38.0037 40.4468 38.3795 40.071C38.7553 39.6952 39.2648 39.4838 39.7963 39.4832H54.0792C54.5573 39.4837 55.0157 39.6739 55.3538 40.0119C55.6918 40.35 55.882 40.8084 55.8826 41.2865V48.4427C55.882 48.9208 55.6918 49.3791 55.3537 49.7171C55.0157 50.0552 54.5573 50.2453 54.0792 50.2459ZM39.7963 39.7073C39.3243 39.7079 38.8719 39.8957 38.5381 40.2294C38.2044 40.5632 38.0166 41.0156 38.016 41.4876V48.2407C38.0166 48.7127 38.2044 49.1652 38.5381 49.4989C38.8719 49.8327 39.3243 50.0204 39.7963 50.021H54.0792C54.4979 50.0206 54.8992 49.8541 55.1952 49.558C55.4912 49.262 55.6577 48.8607 55.6582 48.442V41.2858C55.6577 40.8672 55.4912 40.4658 55.1952 40.1698C54.8992 39.8738 54.4979 39.7073 54.0792 39.7069L39.7963 39.7073Z" fill="#262626"/>
<path d="M43.0479 47.441C44.4709 47.441 45.6245 46.2874 45.6245 44.8644C45.6245 43.4414 44.4709 42.2878 43.0479 42.2878C41.6249 42.2878 40.4713 43.4414 40.4713 44.8644C40.4713 46.2874 41.6249 47.441 43.0479 47.441Z" fill="white"/>
<path d="M43.0479 47.5532C42.5161 47.5532 41.9963 47.3955 41.5541 47.1C41.112 46.8045 40.7674 46.3845 40.5639 45.8932C40.3604 45.4019 40.3072 44.8612 40.4109 44.3396C40.5147 43.8181 40.7708 43.339 41.1469 42.963C41.5229 42.5869 42.0021 42.3309 42.5236 42.2271C43.0452 42.1234 43.5859 42.1767 44.0772 42.3802C44.5685 42.5837 44.9884 42.9283 45.2839 43.3705C45.5793 43.8127 45.737 44.3326 45.737 44.8644C45.7363 45.5773 45.4527 46.2608 44.9485 46.7649C44.4444 47.269 43.7609 47.5525 43.0479 47.5532ZM43.0479 42.4C42.5605 42.4 42.084 42.5446 41.6788 42.8154C41.2735 43.0862 40.9577 43.4712 40.7712 43.9215C40.5847 44.3718 40.5359 44.8673 40.631 45.3454C40.7262 45.8234 40.9609 46.2626 41.3056 46.6072C41.6503 46.9518 42.0894 47.1865 42.5675 47.2816C43.0455 47.3767 43.541 47.3278 43.9914 47.1413C44.4417 46.9547 44.8266 46.6388 45.0973 46.2336C45.3681 45.8283 45.5126 45.3518 45.5126 44.8644C45.5119 44.2109 45.252 43.5845 44.7899 43.1224C44.3278 42.6604 43.7013 42.4006 43.0479 42.4Z" fill="#262626"/>
<path d="M1.67243 39.6484C1.65095 39.6484 1.62969 39.6442 1.60985 39.636C1.59001 39.6278 1.57199 39.6157 1.5568 39.6005C1.54162 39.5853 1.52958 39.5673 1.52136 39.5475C1.51314 39.5276 1.50891 39.5064 1.50891 39.4849V34.8714C1.50891 34.828 1.52614 34.7864 1.5568 34.7558C1.58747 34.7251 1.62906 34.7079 1.67243 34.7079C1.71579 34.7079 1.75738 34.7251 1.78805 34.7558C1.81872 34.7864 1.83594 34.828 1.83594 34.8714V39.4849C1.83594 39.5283 1.81872 39.5699 1.78805 39.6005C1.75738 39.6312 1.71579 39.6484 1.67243 39.6484Z" fill="#262626"/>
<path d="M3.17762 37.3416H0.167013C0.14525 37.3421 0.123614 37.3382 0.103372 37.3302C0.0831307 37.3222 0.0646914 37.3102 0.0491358 37.295C0.0335801 37.2798 0.0212211 37.2616 0.0127837 37.2415C0.00434617 37.2214 0 37.1999 0 37.1781C0 37.1564 0.00434617 37.1348 0.0127837 37.1148C0.0212211 37.0947 0.0335801 37.0765 0.0491358 37.0613C0.0646914 37.0461 0.0831307 37.0341 0.103372 37.0261C0.123614 37.0181 0.14525 37.0142 0.167013 37.0147H3.17762C3.22037 37.0156 3.26106 37.0332 3.29097 37.0638C3.32089 37.0943 3.33764 37.1354 3.33764 37.1781C3.33764 37.2209 3.32089 37.262 3.29097 37.2925C3.26106 37.3231 3.22037 37.3407 3.17762 37.3416Z" fill="#262626"/>
<path d="M59.5799 46.2169C59.5493 46.2169 59.52 46.2048 59.4984 46.1832C59.4768 46.1615 59.4646 46.1322 59.4646 46.1017V43.6271C59.4642 43.6118 59.4669 43.5964 59.4726 43.5821C59.4782 43.5678 59.4866 43.5547 59.4974 43.5437C59.5081 43.5327 59.5209 43.5239 59.5351 43.5179C59.5493 43.5119 59.5645 43.5089 59.5799 43.5089C59.5953 43.5089 59.6106 43.5119 59.6248 43.5179C59.6389 43.5239 59.6518 43.5327 59.6625 43.5437C59.6733 43.5547 59.6817 43.5678 59.6873 43.5821C59.693 43.5964 59.6956 43.6118 59.6953 43.6271V46.1017C59.6953 46.1168 59.6923 46.1318 59.6865 46.1458C59.6807 46.1598 59.6722 46.1725 59.6615 46.1832C59.6508 46.1939 59.638 46.2024 59.624 46.2082C59.61 46.214 59.5951 46.2169 59.5799 46.2169Z" fill="#262626"/>
<path d="M60.3875 44.9797H58.7727C58.7573 44.9801 58.742 44.9774 58.7277 44.9718C58.7133 44.9661 58.7003 44.9577 58.6892 44.947C58.6782 44.9362 58.6695 44.9234 58.6635 44.9092C58.6575 44.895 58.6544 44.8798 58.6544 44.8644C58.6544 44.849 58.6575 44.8338 58.6635 44.8196C58.6695 44.8054 58.6782 44.7925 58.6892 44.7818C58.7003 44.771 58.7133 44.7626 58.7277 44.757C58.742 44.7514 58.7573 44.7487 58.7727 44.7491H60.3875C60.4176 44.7498 60.4462 44.7623 60.4672 44.7839C60.4882 44.8054 60.4999 44.8343 60.4999 44.8644C60.4999 44.8945 60.4882 44.9234 60.4672 44.9449C60.4462 44.9664 60.4176 44.9789 60.3875 44.9797Z" fill="#262626"/>
<path d="M57.7346 25.2498C57.7195 25.2498 57.7045 25.2468 57.6905 25.241C57.6765 25.2353 57.6638 25.2268 57.6531 25.2161C57.6424 25.2054 57.6339 25.1927 57.6281 25.1787C57.6223 25.1647 57.6193 25.1497 57.6193 25.1345V22.66C57.6189 22.6446 57.6216 22.6293 57.6272 22.615C57.6328 22.6007 57.6413 22.5876 57.652 22.5766C57.6628 22.5656 57.6756 22.5568 57.6898 22.5508C57.704 22.5448 57.7192 22.5417 57.7346 22.5417C57.75 22.5417 57.7652 22.5448 57.7794 22.5508C57.7936 22.5568 57.8065 22.5656 57.8172 22.5766C57.8279 22.5876 57.8364 22.6007 57.842 22.615C57.8476 22.6293 57.8503 22.6446 57.8499 22.66V25.1345C57.8499 25.1651 57.8378 25.1944 57.8162 25.216C57.7945 25.2377 57.7652 25.2498 57.7346 25.2498Z" fill="#262626"/>
<path d="M58.5421 24.0126H56.9274C56.912 24.013 56.8967 24.0103 56.8823 24.0047C56.868 23.999 56.8549 23.9906 56.8439 23.9799C56.8329 23.9691 56.8241 23.9563 56.8181 23.9421C56.8122 23.9279 56.8091 23.9127 56.8091 23.8973C56.8091 23.8819 56.8122 23.8666 56.8181 23.8525C56.8241 23.8383 56.8329 23.8254 56.8439 23.8147C56.8549 23.8039 56.868 23.7955 56.8823 23.7899C56.8967 23.7843 56.912 23.7816 56.9274 23.782H58.5422C58.5722 23.7827 58.6008 23.7952 58.6218 23.8168C58.6428 23.8383 58.6546 23.8672 58.6546 23.8973C58.6546 23.9274 58.6428 23.9563 58.6218 23.9778C58.6008 23.9993 58.5722 24.0118 58.5422 24.0126H58.5421Z" fill="#262626"/>
<path d="M13.5984 9.47557C13.3835 9.48038 13.1751 9.4011 13.0178 9.25462C12.8605 9.10814 12.7665 8.90602 12.756 8.69131C12.7455 8.4766 12.8192 8.26626 12.9614 8.10507C13.1036 7.94389 13.3032 7.84459 13.5175 7.82832C13.7319 7.81206 13.9441 7.88012 14.109 8.018C14.2739 8.15588 14.3785 8.3527 14.4005 8.56654C14.4225 8.78038 14.3601 8.99436 14.2267 9.1629C14.0932 9.33144 13.8993 9.44124 13.6861 9.46891C13.657 9.47265 13.6277 9.47488 13.5984 9.47557ZM13.5681 8.07035C13.5476 8.07079 13.5271 8.07233 13.5067 8.07499C13.3564 8.09439 13.2197 8.17171 13.1255 8.29047C13.0314 8.40923 12.9873 8.56004 13.0028 8.7108C13.0182 8.86155 13.0919 9.00033 13.2081 9.09757C13.3243 9.19482 13.4739 9.24284 13.625 9.23141C13.7761 9.21999 13.9168 9.15002 14.0171 9.0364C14.1174 8.92279 14.1693 8.77451 14.1619 8.62316C14.1545 8.4718 14.0883 8.32932 13.9773 8.22606C13.8664 8.12281 13.7196 8.06694 13.5681 8.07035Z" fill="#292A2E"/>
<path d="M14.1019 7.64413C13.8987 7.64841 13.701 7.5774 13.5469 7.44474C13.3929 7.31208 13.2933 7.12715 13.2674 6.92551C13.2466 6.7639 13.2742 6.59975 13.3467 6.45383C13.4192 6.3079 13.5333 6.18675 13.6747 6.1057C13.816 6.02465 13.9783 5.98734 14.1408 5.99848C14.3034 6.00962 14.459 6.06872 14.588 6.1683C14.7169 6.26788 14.8135 6.40347 14.8654 6.55792C14.9173 6.71238 14.9223 6.87876 14.8796 7.03602C14.837 7.19329 14.7487 7.33438 14.6258 7.44145C14.503 7.54852 14.3512 7.61676 14.1896 7.63755C14.1605 7.64126 14.1312 7.64345 14.1019 7.64413ZM14.072 6.23883C13.9904 6.24055 13.9101 6.25942 13.8363 6.29422C13.7624 6.32901 13.6968 6.37896 13.6435 6.44081C13.5903 6.50266 13.5507 6.57503 13.5272 6.6532C13.5038 6.73137 13.4971 6.8136 13.5075 6.89454C13.5219 7.00593 13.5683 7.11076 13.641 7.19636C13.7137 7.28196 13.8097 7.34467 13.9173 7.3769C14.0249 7.40913 14.1395 7.4095 14.2473 7.37797C14.3551 7.34644 14.4514 7.28437 14.5247 7.19924C14.598 7.11412 14.645 7.00959 14.6602 6.8983C14.6753 6.78701 14.6578 6.67372 14.61 6.57212C14.5621 6.47053 14.4858 6.38498 14.3903 6.32582C14.2948 6.26666 14.1843 6.23642 14.072 6.23876V6.23883Z" fill="#292A2E"/>
<path d="M14.8777 7.99968C14.9831 7.6164 14.6034 7.1778 14.0296 7.02004C13.4558 6.86228 12.9052 7.0451 12.7998 7.42837C12.6944 7.81165 13.0742 8.25025 13.648 8.40801C14.2218 8.56577 14.7724 8.38295 14.8777 7.99968Z" fill="white"/>
<path d="M14.0928 8.58559C13.9317 8.58856 13.7711 8.5681 13.6159 8.52485C12.9676 8.3466 12.5579 7.85082 12.683 7.39625C12.808 6.94168 13.4136 6.72513 14.0616 6.90316C14.3456 6.97574 14.6022 7.12964 14.8 7.34598C14.9875 7.56291 15.0566 7.80609 14.9945 8.03176C14.9323 8.25744 14.7486 8.43143 14.4767 8.52171C14.3526 8.56191 14.2232 8.58343 14.0928 8.58559ZM13.5939 7.08583C13.2559 7.09331 12.979 7.23378 12.9167 7.46043C12.8306 7.77332 13.1802 8.15369 13.6797 8.2911C13.9146 8.36129 14.165 8.3615 14.4 8.2917C14.5926 8.22774 14.7206 8.11262 14.7605 7.96751C14.8004 7.82239 14.7492 7.65806 14.6163 7.50464C14.45 7.32449 14.2348 7.19671 13.9971 7.13692C13.8659 7.10044 13.73 7.08323 13.5939 7.08583Z" fill="#292A2E"/>
<path d="M13.9079 8.45685L14.2555 7.10085L13.9239 6.99471L13.52 8.36686L13.9079 8.45685Z" fill="#292A2E"/>
<path d="M12.4092 7.63136C12.4706 7.63136 12.5204 7.58157 12.5204 7.52014C12.5204 7.4587 12.4706 7.40891 12.4092 7.40891C12.3478 7.40891 12.298 7.4587 12.298 7.52014C12.298 7.58157 12.3478 7.63136 12.4092 7.63136Z" fill="#292A2E"/>
<path d="M12.6513 7.08068C12.7127 7.08068 12.7625 7.03088 12.7625 6.96944C12.7625 6.90801 12.7127 6.85822 12.6513 6.85822C12.5898 6.85822 12.54 6.90801 12.54 6.96944C12.54 7.03088 12.5898 7.08068 12.6513 7.08068Z" fill="#292A2E"/>
<path d="M26.0051 22.4587C25.9893 22.4587 25.9738 22.4537 25.961 22.4443C25.9481 22.4349 25.9386 22.4217 25.9338 22.4066C25.929 22.3915 25.9291 22.3752 25.9341 22.3602C25.9392 22.3451 25.9489 22.332 25.9618 22.3229C26.0113 22.286 26.0589 22.2467 26.1043 22.205C26.1116 22.1984 26.1202 22.1933 26.1294 22.1901C26.1387 22.1868 26.1485 22.1854 26.1583 22.1859C26.1681 22.1864 26.1777 22.1889 26.1866 22.1931C26.1955 22.1974 26.2034 22.2033 26.21 22.2106C26.2165 22.2179 26.2216 22.2265 26.2249 22.2357C26.2282 22.245 26.2296 22.2548 26.229 22.2646C26.2285 22.2744 26.2261 22.284 26.2218 22.2929C26.2176 22.3018 26.2116 22.3097 26.2043 22.3163C26.1545 22.3619 26.1024 22.4049 26.0481 22.4451C26.0356 22.4539 26.0205 22.4587 26.0051 22.4587ZM26.7476 21.6567C26.7339 21.6567 26.7205 21.6529 26.7088 21.6457C26.697 21.6386 26.6875 21.6284 26.6812 21.6162C26.6749 21.604 26.6721 21.5903 26.6731 21.5767C26.674 21.563 26.6787 21.5498 26.6867 21.5386C26.8574 21.2959 27.007 21.039 27.1337 20.7707C27.1378 20.7615 27.1436 20.7532 27.1508 20.7463C27.1581 20.7394 27.1667 20.734 27.1761 20.7305C27.1855 20.727 27.1955 20.7254 27.2055 20.7259C27.2155 20.7263 27.2253 20.7287 27.2344 20.733C27.2434 20.7373 27.2515 20.7434 27.2582 20.7509C27.2648 20.7583 27.2699 20.7671 27.2731 20.7766C27.2763 20.7861 27.2776 20.7961 27.2769 20.8061C27.2761 20.8161 27.2734 20.8258 27.2688 20.8348C27.1385 21.1109 26.9845 21.3753 26.8087 21.625C26.8018 21.6348 26.7927 21.6428 26.782 21.6483C26.7714 21.6538 26.7596 21.6567 26.7476 21.6567ZM27.5235 20.0356C27.5162 20.0356 27.5089 20.0345 27.5019 20.0324C27.4829 20.0267 27.467 20.0137 27.4576 19.9962C27.4482 19.9788 27.4461 19.9583 27.4518 19.9393C27.5366 19.6541 27.6024 19.3636 27.6487 19.0697C27.6502 19.0599 27.6535 19.0505 27.6586 19.042C27.6637 19.0335 27.6704 19.0261 27.6784 19.0202C27.6864 19.0143 27.6955 19.0101 27.7051 19.0078C27.7147 19.0054 27.7247 19.005 27.7345 19.0066C27.7443 19.0081 27.7537 19.0116 27.7621 19.0168C27.7705 19.0221 27.7779 19.0289 27.7836 19.0369C27.7894 19.045 27.7935 19.0541 27.7957 19.0638C27.7979 19.0735 27.7982 19.0835 27.7965 19.0932C27.7491 19.3937 27.6819 19.6907 27.5951 19.9822C27.5905 19.9977 27.581 20.0112 27.5681 20.0208C27.5552 20.0304 27.5395 20.0356 27.5235 20.0356ZM27.8109 18.259H27.8078C27.788 18.2582 27.7693 18.2496 27.7558 18.235C27.7424 18.2204 27.7353 18.2011 27.7361 18.1813C27.7409 18.0654 27.7436 17.9464 27.7436 17.8276C27.7437 17.6491 27.7323 17.4708 27.7093 17.2938C27.7079 17.284 27.7084 17.274 27.7109 17.2644C27.7134 17.2549 27.7177 17.2459 27.7237 17.238C27.7297 17.2301 27.7372 17.2235 27.7458 17.2185C27.7543 17.2135 27.7638 17.2103 27.7736 17.209C27.7834 17.2077 27.7934 17.2084 27.803 17.211C27.8125 17.2136 27.8215 17.2181 27.8293 17.2242C27.8371 17.2303 27.8436 17.2378 27.8485 17.2465C27.8533 17.2551 27.8564 17.2646 27.8576 17.2744C27.8814 17.4579 27.8933 17.6426 27.8932 17.8276C27.8932 17.9485 27.8907 18.0695 27.8857 18.1874C27.8849 18.2067 27.8766 18.2249 27.8627 18.2382C27.8488 18.2516 27.8302 18.259 27.8109 18.259V18.259ZM27.5641 16.4863C27.5489 16.4863 27.5341 16.4817 27.5216 16.4731C27.5091 16.4645 27.4995 16.4523 27.4941 16.4381C27.3888 16.1624 27.2518 15.8998 27.0859 15.6557C27.0804 15.6475 27.0766 15.6384 27.0746 15.6288C27.0726 15.6191 27.0725 15.6092 27.0744 15.5996C27.0762 15.5899 27.08 15.5807 27.0854 15.5725C27.0908 15.5643 27.0977 15.5572 27.1059 15.5517C27.114 15.5462 27.1232 15.5423 27.1328 15.5404C27.1424 15.5384 27.1523 15.5383 27.162 15.5402C27.1716 15.542 27.1808 15.5458 27.189 15.5512C27.1972 15.5566 27.2043 15.5635 27.2098 15.5717C27.3822 15.8254 27.5245 16.0983 27.634 16.3849C27.6375 16.3941 27.6391 16.4039 27.6389 16.4137C27.6386 16.4235 27.6363 16.4332 27.6323 16.4421C27.6283 16.4511 27.6225 16.4592 27.6154 16.4659C27.6082 16.4726 27.5998 16.4779 27.5906 16.4814C27.5822 16.4846 27.5732 16.4862 27.5641 16.4862L27.5641 16.4863ZM22.0363 16.1287C21.9152 16.1348 21.7941 16.116 21.6805 16.0736C21.5669 16.0311 21.4632 15.9659 21.3758 15.8819C21.3621 15.8676 21.3546 15.8484 21.355 15.8285C21.3554 15.8087 21.3636 15.7898 21.3779 15.7761C21.3922 15.7623 21.4114 15.7548 21.4312 15.7552C21.4511 15.7556 21.4699 15.7639 21.4837 15.7782C21.6439 15.9448 21.8972 16.0092 22.2227 15.9664L22.262 15.9609C22.2816 15.9581 22.3016 15.9632 22.3175 15.9751C22.3333 15.987 22.3438 16.0048 22.3466 16.0244C22.3494 16.044 22.3443 16.064 22.3324 16.0799C22.3205 16.0957 22.3028 16.1062 22.2832 16.109L22.2426 16.1147C22.1743 16.1239 22.1055 16.1286 22.0366 16.1288L22.0363 16.1287ZM23.1346 15.8571C23.1176 15.8573 23.1011 15.8517 23.0877 15.8412C23.0743 15.8307 23.0649 15.8159 23.061 15.7994C23.0572 15.7828 23.059 15.7655 23.0663 15.7501C23.0737 15.7348 23.086 15.7224 23.1013 15.715C23.3623 15.5904 23.5853 15.3984 23.7472 15.1588C23.7584 15.1429 23.7753 15.1321 23.7944 15.1285C23.8135 15.1249 23.8332 15.1288 23.8494 15.1395C23.8656 15.1502 23.877 15.1668 23.8812 15.1857C23.8855 15.2046 23.8822 15.2245 23.872 15.241C23.6956 15.5027 23.4525 15.7124 23.1678 15.8486C23.1577 15.854 23.1465 15.8569 23.135 15.8572L23.1346 15.8571ZM21.2602 15.0558C21.2545 15.0558 21.2488 15.0552 21.2432 15.0539C21.2336 15.0517 21.2246 15.0476 21.2166 15.0419C21.2086 15.0362 21.2018 15.0289 21.1966 15.0206C21.1914 15.0123 21.1879 15.003 21.1863 14.9933C21.1847 14.9836 21.185 14.9737 21.1872 14.9641C21.2634 14.658 21.4166 14.3765 21.6324 14.1463C21.646 14.1324 21.6645 14.1243 21.684 14.1238C21.7034 14.1233 21.7223 14.1304 21.7366 14.1436C21.7509 14.1569 21.7595 14.1751 21.7606 14.1945C21.7616 14.214 21.7551 14.2331 21.7423 14.2477C21.5441 14.4587 21.4032 14.7169 21.333 14.9977C21.3292 15.0141 21.32 15.0288 21.3069 15.0394C21.2937 15.0499 21.2774 15.0557 21.2606 15.0558L21.2602 15.0558ZM26.5647 15.0017C26.5455 15.0018 26.5269 14.9943 26.513 14.981C26.2984 14.7765 26.0652 14.5925 25.8165 14.4312C25.808 14.426 25.8006 14.4191 25.7948 14.411C25.7889 14.4029 25.7848 14.3937 25.7826 14.3839C25.7804 14.3742 25.7802 14.3641 25.7819 14.3543C25.7837 14.3444 25.7874 14.335 25.7929 14.3267C25.7983 14.3183 25.8054 14.3111 25.8137 14.3055C25.8219 14.2999 25.8312 14.296 25.841 14.2941C25.8508 14.2921 25.8609 14.2922 25.8707 14.2942C25.8805 14.2962 25.8898 14.3002 25.898 14.3059C26.1545 14.4722 26.3949 14.662 26.6161 14.8729C26.6269 14.8832 26.6344 14.8965 26.6375 14.9111C26.6407 14.9257 26.6394 14.9409 26.6339 14.9548C26.6283 14.9687 26.6187 14.9805 26.6063 14.9889C26.594 14.9973 26.5794 15.0017 26.5644 15.0017H26.5647ZM24.0953 14.4291C24.0928 14.4291 24.0903 14.4291 24.0878 14.4291C24.078 14.4282 24.0685 14.4252 24.0598 14.4206C24.0512 14.4159 24.0435 14.4095 24.0373 14.4019C24.0311 14.3942 24.0264 14.3855 24.0236 14.376C24.0208 14.3666 24.0199 14.3567 24.021 14.3469C24.0295 14.2614 24.0337 14.1755 24.0335 14.0895C24.0321 13.8816 24.0119 13.6741 23.9731 13.4698C23.9695 13.4503 23.9738 13.4302 23.985 13.4138C23.9963 13.3975 24.0136 13.3863 24.0331 13.3827C24.0526 13.3791 24.0727 13.3834 24.0891 13.3946C24.1054 13.4059 24.1166 13.4232 24.1202 13.4427C24.1308 13.5003 24.1401 13.5572 24.148 13.6134C24.1569 13.6026 24.1686 13.5945 24.1818 13.59C24.195 13.5855 24.2092 13.5848 24.2228 13.5879C24.5202 13.6583 24.8109 13.7544 25.0916 13.8753C25.1098 13.8831 25.1242 13.8979 25.1316 13.9163C25.1389 13.9347 25.1386 13.9553 25.1308 13.9736C25.123 13.9918 25.1082 14.0062 25.0898 14.0135C25.0714 14.0209 25.0508 14.0206 25.0326 14.0128C24.7599 13.8954 24.4776 13.802 24.1887 13.7336C24.1789 13.7313 24.1697 13.7271 24.1615 13.7211C24.1755 13.8434 24.1827 13.9664 24.183 14.0895C24.1831 14.1805 24.1786 14.2713 24.1697 14.3618C24.1678 14.3803 24.1592 14.3974 24.1454 14.4098C24.1317 14.4222 24.1138 14.4291 24.0953 14.4291ZM22.4272 13.768C22.4098 13.7681 22.393 13.762 22.3795 13.7509C22.3661 13.7398 22.357 13.7244 22.3537 13.7073C22.3505 13.6902 22.3533 13.6724 22.3617 13.6572C22.3701 13.6419 22.3835 13.6301 22.3997 13.6237C22.4459 13.6054 22.4929 13.5887 22.5394 13.5739C22.7795 13.5022 23.0293 13.4676 23.2799 13.4715H23.3124C23.3323 13.4715 23.3513 13.4794 23.3653 13.4934C23.3794 13.5075 23.3872 13.5265 23.3872 13.5463C23.3872 13.5662 23.3794 13.5852 23.3653 13.5992C23.3513 13.6133 23.3323 13.6211 23.3124 13.6211H23.3119H23.2802C23.0451 13.6172 22.8107 13.6494 22.5853 13.7165C22.5408 13.7307 22.4974 13.7461 22.4552 13.7627C22.4463 13.7663 22.4367 13.768 22.4271 13.7678L22.4272 13.768ZM23.8031 12.6628C23.7878 12.6628 23.7728 12.6581 23.7603 12.6493C23.7477 12.6405 23.7382 12.6281 23.7329 12.6138C23.6291 12.3344 23.5089 12.0613 23.373 11.796C23.3685 11.7872 23.3658 11.7777 23.3651 11.7679C23.3643 11.7581 23.3654 11.7482 23.3685 11.7389C23.3715 11.7295 23.3763 11.7208 23.3827 11.7134C23.3891 11.7059 23.3969 11.6997 23.4057 11.6953C23.4144 11.6908 23.424 11.6881 23.4338 11.6873C23.4436 11.6866 23.4534 11.6877 23.4628 11.6908C23.4721 11.6938 23.4808 11.6987 23.4883 11.7051C23.4957 11.7115 23.5019 11.7193 23.5063 11.7281C23.6449 11.9987 23.7675 12.2772 23.8733 12.5622C23.8774 12.5736 23.8788 12.5857 23.8772 12.5976C23.8757 12.6096 23.8713 12.621 23.8644 12.6308C23.8575 12.6407 23.8483 12.6487 23.8376 12.6543C23.827 12.6599 23.8151 12.6628 23.8031 12.6628ZM22.9915 11.0534C22.9789 11.0535 22.9665 11.0503 22.9554 11.0442C22.9444 11.0381 22.935 11.0294 22.9283 11.0187C22.7698 10.769 22.5971 10.5216 22.4153 10.2836C22.4032 10.2678 22.3979 10.2479 22.4005 10.2282C22.4032 10.2086 22.4135 10.1908 22.4293 10.1787C22.445 10.1667 22.4649 10.1614 22.4846 10.164C22.5043 10.1666 22.5221 10.1769 22.5341 10.1927C22.7186 10.4342 22.8937 10.6852 23.0546 10.9385C23.0652 10.9552 23.0688 10.9755 23.0645 10.9948C23.0601 11.0142 23.0483 11.0311 23.0316 11.0417C23.0196 11.0493 23.0056 11.0533 22.9914 11.0532L22.9915 11.0534ZM21.8961 9.62016C21.8857 9.62017 21.8754 9.61802 21.8659 9.61383C21.8564 9.60965 21.8478 9.60352 21.8408 9.59585C21.7494 9.49599 21.656 9.39845 21.5634 9.30577C21.4479 9.19031 21.3263 9.08117 21.1991 8.97882C21.1911 8.97276 21.1845 8.96518 21.1795 8.95651C21.1746 8.94785 21.1714 8.93828 21.1702 8.92836C21.169 8.91845 21.1698 8.9084 21.1725 8.8988C21.1753 8.8892 21.1799 8.88025 21.1862 8.87247C21.1924 8.86468 21.2002 8.85824 21.209 8.8535C21.2177 8.84876 21.2274 8.84583 21.2373 8.84488C21.2473 8.84393 21.2573 8.84498 21.2668 8.84797C21.2764 8.85096 21.2852 8.85582 21.2928 8.86227C21.4243 8.96796 21.5499 9.0807 21.6692 9.2C21.7634 9.29418 21.8582 9.39336 21.9512 9.49494C21.961 9.50565 21.9674 9.51896 21.9698 9.53326C21.9721 9.54756 21.9702 9.56224 21.9644 9.5755C21.9586 9.58876 21.949 9.60005 21.9369 9.60797C21.9247 9.6159 21.9106 9.62014 21.8961 9.62016ZM20.4907 8.50413C20.4788 8.50409 20.467 8.50122 20.4564 8.49575C20.193 8.3601 19.9175 8.24924 19.6336 8.1646C19.6148 8.15873 19.5991 8.1457 19.5898 8.12832C19.5806 8.11094 19.5786 8.09063 19.5842 8.07178C19.5898 8.05292 19.6027 8.03705 19.6199 8.0276C19.6372 8.01815 19.6575 8.01588 19.6764 8.02128C19.9694 8.10853 20.2537 8.22287 20.5255 8.36283C20.5404 8.37051 20.5523 8.383 20.5593 8.39827C20.5663 8.41354 20.5679 8.43071 20.5639 8.44702C20.5599 8.46333 20.5506 8.47783 20.5374 8.48819C20.5242 8.49855 20.5079 8.50416 20.4911 8.50413H20.4907ZM16.0881 8.18323C16.0702 8.18323 16.053 8.17683 16.0394 8.1652C16.0258 8.15356 16.0169 8.13744 16.0142 8.11978C16.0115 8.10211 16.0152 8.08406 16.0246 8.06888C16.0341 8.05371 16.0486 8.04242 16.0657 8.03707C16.3592 7.95233 16.6587 7.89026 16.9617 7.85141C16.9716 7.84968 16.9818 7.84997 16.9916 7.85225C17.0013 7.85453 17.0106 7.85876 17.0187 7.86468C17.0268 7.87061 17.0336 7.8781 17.0388 7.88673C17.0439 7.89535 17.0473 7.90493 17.0487 7.91488C17.05 7.92484 17.0494 7.93496 17.0468 7.94466C17.0441 7.95436 17.0396 7.96343 17.0334 7.97133C17.0272 7.97922 17.0194 7.98579 17.0106 7.99063C17.0018 7.99548 16.9921 7.9985 16.9821 7.99952C16.6875 8.03766 16.3962 8.09795 16.1106 8.17986C16.1033 8.18211 16.0958 8.18325 16.0881 8.18323ZM18.7724 7.98254C18.7691 7.98252 18.7659 7.98232 18.7627 7.98194C18.4675 7.94444 18.1701 7.92785 17.8726 7.93227H17.8716C17.8518 7.9324 17.8327 7.92464 17.8186 7.9107C17.8045 7.89677 17.7965 7.87779 17.7963 7.85795C17.7962 7.83812 17.804 7.81904 17.8179 7.80492C17.8318 7.7908 17.8508 7.7828 17.8706 7.78267C18.1751 7.77876 18.4795 7.79576 18.7817 7.83353C18.8006 7.83593 18.8178 7.84542 18.8299 7.86008C18.842 7.87473 18.8481 7.89344 18.8469 7.91242C18.8457 7.93139 18.8374 7.9492 18.8235 7.96223C18.8097 7.97525 18.7914 7.98251 18.7724 7.98254Z" fill="#1E1E1E"/>
<path d="M50.0862 1.71729C49.9256 1.74613 49.76 1.72894 49.6087 1.66773C49.4574 1.60652 49.3265 1.50377 49.2311 1.37134C49.1357 1.23892 49.0797 1.08221 49.0695 0.919311C49.0594 0.756413 49.0955 0.593962 49.1737 0.450709C49.2519 0.307456 49.3691 0.189241 49.5116 0.109707C49.6541 0.0301733 49.8162 -0.00743677 49.9792 0.00121782C50.1422 0.00987241 50.2994 0.0644388 50.4327 0.158619C50.566 0.2528 50.67 0.382754 50.7326 0.533485C50.782 0.653016 50.804 0.782082 50.797 0.911221C50.79 1.04036 50.7542 1.1663 50.6922 1.27981C50.6302 1.39332 50.5437 1.49153 50.4388 1.56722C50.3339 1.64292 50.2135 1.6942 50.0862 1.71729ZM49.822 0.252232C49.6952 0.275264 49.5786 0.33707 49.4884 0.429132C49.3982 0.521193 49.3387 0.638977 49.3182 0.766246C49.2977 0.893515 49.3173 1.024 49.374 1.13972C49.4308 1.25544 49.5221 1.3507 49.6353 1.41236C49.7485 1.47401 49.8781 1.49904 50.0061 1.48398C50.1341 1.46893 50.2543 1.41453 50.3501 1.32829C50.4459 1.24205 50.5127 1.12822 50.5411 1.00248C50.5694 0.876736 50.5581 0.745284 50.5087 0.626239C50.4541 0.494865 50.3563 0.38612 50.2313 0.318079C50.1064 0.250039 49.962 0.226802 49.822 0.252232Z" fill="#292A2E"/>
<path d="M50.0807 3.7286C49.8621 3.7683 49.6366 3.72269 49.4506 3.60115C49.2646 3.47961 49.1323 3.2914 49.0809 3.07526C49.0295 2.85912 49.063 2.6315 49.1743 2.43926C49.2857 2.24702 49.4665 2.10479 49.6796 2.04185C49.8926 1.97891 50.1217 2.00006 50.3197 2.10092C50.5176 2.20179 50.6694 2.37471 50.7437 2.58409C50.818 2.79346 50.8092 3.02335 50.7191 3.22644C50.629 3.42952 50.4645 3.59034 50.2594 3.67579C50.2019 3.69976 50.142 3.71747 50.0807 3.7286ZM49.8177 2.26325C49.7735 2.27126 49.7303 2.284 49.6888 2.30124C49.5424 2.36235 49.4249 2.47726 49.3606 2.62234C49.2963 2.76741 49.29 2.93163 49.3431 3.08119C49.3961 3.23075 49.5045 3.35428 49.6459 3.42638C49.7873 3.49847 49.9509 3.51364 50.1031 3.46876C50.2553 3.42388 50.3846 3.32236 50.4642 3.1851C50.5439 3.04785 50.5679 2.88528 50.5313 2.73085C50.4948 2.57642 50.4004 2.44187 50.2677 2.35489C50.1349 2.26791 49.9739 2.23512 49.8177 2.26325Z" fill="#292A2E"/>
<path d="M51.0713 1.89841C51.0725 1.47749 50.5626 1.13481 49.9325 1.13302C49.3023 1.13123 48.7905 1.471 48.7893 1.89192C48.7881 2.31285 49.298 2.65552 49.9281 2.65731C50.5583 2.65911 51.0701 2.31934 51.0713 1.89841Z" fill="white"/>
<path d="M50.2554 2.74993C50.1473 2.76937 50.0377 2.77894 49.9279 2.77851C49.619 2.78323 49.3155 2.69768 49.0545 2.53234C48.8047 2.36456 48.6675 2.13701 48.6682 1.89159C48.669 1.64616 48.8074 1.41952 49.0582 1.25301C49.3223 1.09436 49.6248 1.01096 49.933 1.01185C50.2411 1.01273 50.5432 1.09786 50.8064 1.25802C51.0563 1.4258 51.1934 1.65342 51.1927 1.89877C51.1919 2.14412 51.0535 2.37099 50.8027 2.53735C50.6365 2.64442 50.4503 2.71674 50.2554 2.74993ZM49.648 1.27904C49.4856 1.30635 49.3304 1.36622 49.1918 1.45505C49.0107 1.57533 48.9107 1.73062 48.9103 1.89241C48.9098 2.05421 49.0089 2.21017 49.1893 2.33135C49.4127 2.46476 49.668 2.53556 49.9283 2.53631C50.1885 2.53706 50.4442 2.46773 50.6684 2.33561C50.8494 2.21533 50.9495 2.06004 50.95 1.89825C50.9504 1.73645 50.8514 1.58056 50.671 1.45931C50.4497 1.3207 50.1929 1.24953 49.9319 1.2545C49.8367 1.25406 49.7417 1.26227 49.648 1.27904Z" fill="#292A2E"/>
<path d="M49.6534 1.15532L49.675 2.63751L50.0434 2.65382L50.0748 1.13954L49.6534 1.15532Z" fill="#292A2E"/>
<path d="M51.3508 2.44392C51.4159 2.44392 51.4687 2.39118 51.4687 2.32611C51.4687 2.26104 51.4159 2.2083 51.3508 2.2083C51.2858 2.2083 51.233 2.26104 51.233 2.32611C51.233 2.39118 51.2858 2.44392 51.3508 2.44392Z" fill="#292A2E"/>
<path d="M51.4451 1.81395C51.5101 1.81395 51.5629 1.7612 51.5629 1.69614C51.5629 1.63107 51.5101 1.57832 51.4451 1.57832C51.38 1.57832 51.3273 1.63107 51.3273 1.69614C51.3273 1.7612 51.38 1.81395 51.4451 1.81395Z" fill="#292A2E"/>
<path d="M33.7888 19.0244C33.7754 19.0244 33.7623 19.0209 33.7507 19.0141C33.7392 19.0073 33.7297 18.9975 33.7233 18.9858C33.5824 18.7149 33.4615 18.434 33.3614 18.1455C33.3546 18.1269 33.3556 18.1063 33.364 18.0883C33.3724 18.0704 33.3876 18.0565 33.4063 18.0497C33.4249 18.043 33.4455 18.0439 33.4635 18.0524C33.4814 18.0608 33.4953 18.076 33.5021 18.0947C33.6 18.3755 33.7176 18.6492 33.8542 18.9134C33.8604 18.9248 33.8637 18.9376 33.8635 18.9506C33.8633 18.9636 33.8598 18.9764 33.8532 18.9876C33.8465 18.9988 33.8371 19.0081 33.8259 19.0146C33.8146 19.021 33.8018 19.0244 33.7888 19.0244ZM33.166 17.3321C33.1494 17.3321 33.1333 17.3266 33.1202 17.3165C33.1071 17.3063 33.0977 17.2921 33.0936 17.276C33.0188 16.9851 32.955 16.6859 32.9051 16.3866C32.9018 16.367 32.9065 16.3469 32.918 16.3308C32.9296 16.3147 32.947 16.3038 32.9666 16.3005C32.9862 16.2972 33.0062 16.3019 33.0224 16.3134C33.0385 16.325 33.0494 16.3425 33.0527 16.362C33.1019 16.657 33.1643 16.9519 33.2385 17.2386C33.2434 17.2578 33.2405 17.2782 33.2305 17.2953C33.2204 17.3124 33.204 17.3248 33.1848 17.3297C33.1786 17.3313 33.1723 17.3321 33.166 17.3321ZM32.8689 15.5535C32.85 15.5536 32.8318 15.5465 32.818 15.5337C32.8041 15.5209 32.7956 15.5034 32.7941 15.4846C32.7723 15.2087 32.7612 14.9287 32.7612 14.6522V14.5764C32.7614 14.5565 32.7694 14.5376 32.7835 14.5236C32.7976 14.5097 32.8167 14.502 32.8366 14.5021C32.8564 14.5022 32.8754 14.5102 32.8893 14.5244C32.9032 14.5385 32.911 14.5576 32.9108 14.5774V14.6522C32.9108 14.9248 32.9218 15.2009 32.9432 15.4728C32.9448 15.4926 32.9384 15.5121 32.9256 15.5272C32.9127 15.5423 32.8944 15.5517 32.8746 15.5533C32.8728 15.5534 32.8709 15.5535 32.8689 15.5535ZM32.882 13.7508C32.8796 13.7508 32.8773 13.7508 32.8746 13.7508C32.8548 13.7489 32.8367 13.7393 32.824 13.724C32.8114 13.7087 32.8054 13.6891 32.8072 13.6693C32.8353 13.3694 32.8768 13.0664 32.9306 12.769C32.932 12.7591 32.9355 12.7496 32.9407 12.741C32.9459 12.7325 32.9528 12.725 32.961 12.7192C32.9691 12.7133 32.9783 12.7092 32.9881 12.707C32.9979 12.7048 33.008 12.7046 33.0179 12.7063C33.0278 12.7081 33.0372 12.7119 33.0456 12.7174C33.0539 12.7229 33.0611 12.73 33.0667 12.7383C33.0723 12.7467 33.0762 12.756 33.078 12.7659C33.0799 12.7757 33.0798 12.7858 33.0777 12.7956C33.0248 13.0889 32.9838 13.3875 32.9562 13.6832C32.9543 13.7016 32.9457 13.7187 32.932 13.7311C32.9183 13.7435 32.9005 13.7504 32.882 13.7505V13.7508ZM33.202 11.9765C33.1954 11.9765 33.1889 11.9757 33.1825 11.974C33.173 11.9714 33.1641 11.967 33.1563 11.961C33.1485 11.9551 33.142 11.9476 33.1371 11.9391C33.1322 11.9306 33.129 11.9212 33.1277 11.9114C33.1264 11.9017 33.1271 11.8918 33.1296 11.8823C33.2073 11.5931 33.2986 11.3015 33.401 11.0154C33.4043 11.0061 33.4094 10.9976 33.416 10.9903C33.4226 10.983 33.4305 10.977 33.4394 10.9728C33.4483 10.9686 33.458 10.9662 33.4678 10.9657C33.4776 10.9652 33.4875 10.9666 33.4967 10.9699C33.506 10.9733 33.5145 10.9784 33.5218 10.985C33.5291 10.9916 33.535 10.9996 33.5392 11.0085C33.5434 11.0174 33.5458 11.027 33.5462 11.0369C33.5467 11.0467 33.5452 11.0565 33.5419 11.0658C33.4408 11.3481 33.3507 11.6359 33.2741 11.9211C33.2698 11.937 33.2604 11.9509 33.2474 11.9609C33.2343 11.9708 33.2184 11.9762 33.202 11.9762V11.9765ZM33.8084 10.2785C33.7978 10.2785 33.7874 10.2763 33.7779 10.2719C33.7598 10.2638 33.7457 10.2488 33.7387 10.2303C33.7317 10.2117 33.7323 10.1912 33.7405 10.1731C33.8016 10.0367 33.8666 9.89852 33.9337 9.76275C34.0008 9.62699 34.0723 9.491 34.1461 9.35972C34.1558 9.34242 34.172 9.3297 34.1912 9.32435C34.2103 9.31899 34.2307 9.32145 34.248 9.33118C34.2653 9.34092 34.278 9.35712 34.2834 9.37623C34.2887 9.39535 34.2863 9.4158 34.2766 9.4331C34.204 9.56198 34.1338 9.69491 34.0678 9.82895C34.0017 9.96299 33.9374 10.0995 33.8769 10.2343C33.8709 10.2474 33.8613 10.2586 33.8491 10.2663C33.837 10.2741 33.8228 10.2782 33.8084 10.2781V10.2785ZM41.7431 9.76687C41.7241 9.76681 41.7059 9.75957 41.6921 9.74659C41.6783 9.73362 41.6699 9.71589 41.6687 9.69698C41.6674 9.67806 41.6734 9.65939 41.6854 9.64471C41.6974 9.63004 41.7145 9.62047 41.7333 9.61794C42.0144 9.58053 42.2148 9.41186 42.3288 9.11617C42.3322 9.1068 42.3375 9.0982 42.3442 9.09088C42.351 9.08356 42.3591 9.07766 42.3682 9.07353C42.3772 9.0694 42.387 9.06712 42.397 9.06683C42.407 9.06654 42.4169 9.06824 42.4262 9.07183C42.4355 9.07542 42.4439 9.08083 42.4511 9.08775C42.4583 9.09466 42.464 9.10294 42.4679 9.11209C42.4719 9.12125 42.4739 9.13109 42.474 9.14105C42.4741 9.15101 42.4722 9.16089 42.4684 9.1701C42.3351 9.51576 42.0877 9.72191 41.753 9.76627C41.7497 9.76656 41.7464 9.76664 41.7431 9.76649V9.76687ZM40.8734 9.57807C40.8621 9.57814 40.8509 9.57558 40.8407 9.57059C40.5656 9.4322 40.3095 9.25871 40.079 9.05446C40.0716 9.04801 40.0656 9.04016 40.0612 9.03137C40.0568 9.02257 40.0542 9.013 40.0535 9.00319C40.0528 8.99339 40.0541 8.98355 40.0572 8.97423C40.0603 8.96491 40.0652 8.95629 40.0717 8.94887C40.0781 8.94146 40.086 8.93538 40.0948 8.931C40.1036 8.92662 40.1131 8.92401 40.1229 8.92332C40.1328 8.92264 40.1426 8.92389 40.1519 8.92701C40.1612 8.93013 40.1698 8.93506 40.1773 8.94151C40.3979 9.13733 40.643 9.30366 40.9064 9.43632C40.9217 9.44371 40.934 9.45608 40.9413 9.47138C40.9486 9.48669 40.9505 9.50403 40.9467 9.52055C40.9429 9.53708 40.9335 9.55181 40.9202 9.56233C40.9069 9.57285 40.8904 9.57853 40.8734 9.57844V9.57807ZM34.6969 8.71149C34.6832 8.71148 34.6696 8.70767 34.6579 8.70046C34.6461 8.69326 34.6366 8.68294 34.6303 8.67066C34.6241 8.65838 34.6213 8.64461 34.6224 8.63087C34.6235 8.61712 34.6283 8.60394 34.6364 8.59278C34.8147 8.34662 35.008 8.11165 35.2151 7.8892C35.2287 7.87518 35.2473 7.86706 35.2669 7.86658C35.2864 7.8661 35.3054 7.8733 35.3197 7.88663C35.334 7.89996 35.3425 7.91837 35.3434 7.93791C35.3443 7.95745 35.3375 7.97656 35.3245 7.99116C35.1216 8.20915 34.9322 8.4394 34.7575 8.6806C34.7506 8.6901 34.7414 8.69782 34.7309 8.70312C34.7204 8.70843 34.7087 8.71117 34.6969 8.71112V8.71149ZM39.5094 8.41663C39.498 8.41663 39.4868 8.41404 39.4765 8.40903C39.4663 8.40403 39.4573 8.39675 39.4503 8.38775C39.262 8.14652 39.0974 7.88774 38.9586 7.61498C38.9538 7.60618 38.9509 7.59651 38.9499 7.58654C38.9489 7.57657 38.9499 7.5665 38.9529 7.55695C38.9559 7.54739 38.9608 7.53852 38.9673 7.53088C38.9738 7.52324 38.9817 7.51698 38.9906 7.51248C38.9996 7.50797 39.0093 7.5053 39.0193 7.50463C39.0293 7.50396 39.0394 7.50531 39.0488 7.50859C39.0583 7.51187 39.067 7.51702 39.0744 7.52373C39.0819 7.53044 39.0879 7.53858 39.0921 7.54766C39.2265 7.81184 39.386 8.06248 39.5684 8.29612C39.577 8.30717 39.5823 8.32041 39.5838 8.33434C39.5852 8.34827 39.5828 8.36234 39.5766 8.37492C39.5705 8.38751 39.5609 8.39813 39.549 8.40555C39.5372 8.41298 39.5234 8.41692 39.5094 8.41692V8.41663ZM42.507 8.32881C42.4879 8.32884 42.4695 8.32157 42.4556 8.30848C42.4417 8.2954 42.4333 8.27748 42.4322 8.25842C42.4171 7.96681 42.3455 7.68091 42.2214 7.41661C42.2163 7.40768 42.2132 7.39781 42.2121 7.38761C42.211 7.37742 42.212 7.36711 42.2151 7.35733C42.2182 7.34755 42.2233 7.33851 42.23 7.33076C42.2367 7.32302 42.2449 7.31674 42.2542 7.31231C42.2634 7.30789 42.2735 7.30541 42.2838 7.30504C42.294 7.30467 42.3042 7.30641 42.3138 7.31015C42.3233 7.31389 42.332 7.31955 42.3393 7.32679C42.3465 7.33402 42.3522 7.34267 42.356 7.3522C42.4886 7.63374 42.5652 7.93837 42.5815 8.24915C42.5827 8.26894 42.576 8.2884 42.5628 8.30324C42.5497 8.31808 42.5312 8.32709 42.5114 8.32829L42.507 8.32881ZM35.9267 7.39708C35.9112 7.39711 35.8962 7.39236 35.8836 7.38349C35.8709 7.37462 35.8614 7.36206 35.8561 7.34754C35.8509 7.33301 35.8503 7.31723 35.8545 7.30236C35.8586 7.28749 35.8672 7.27425 35.8791 7.26446C36.1141 7.07097 36.3622 6.89397 36.6216 6.73472C36.6299 6.72878 36.6394 6.72462 36.6494 6.7225C36.6595 6.72037 36.6698 6.72033 36.6798 6.72237C36.6899 6.72441 36.6994 6.7285 36.7078 6.73437C36.7162 6.74024 36.7233 6.74777 36.7287 6.7565C36.734 6.76523 36.7375 6.77497 36.739 6.78511C36.7404 6.79525 36.7398 6.80558 36.7371 6.81546C36.7344 6.82534 36.7296 6.83456 36.7232 6.84255C36.7168 6.85053 36.7088 6.85711 36.6997 6.86188C36.4462 7.0175 36.2038 7.1905 35.9742 7.37965C35.9608 7.39072 35.944 7.39675 35.9267 7.39671V7.39708ZM38.7084 6.81266C38.6917 6.81265 38.6755 6.80704 38.6623 6.79674C38.6492 6.78644 38.6398 6.77203 38.6358 6.75581C38.5709 6.49664 38.5375 6.23055 38.5366 5.96337C38.5366 5.92247 38.5374 5.88153 38.539 5.84054C38.5393 5.83069 38.5415 5.82099 38.5456 5.81201C38.5497 5.80303 38.5555 5.79497 38.5628 5.78828C38.57 5.78159 38.5785 5.77643 38.5878 5.77308C38.5971 5.76974 38.6069 5.76828 38.6168 5.76881C38.6366 5.7696 38.6553 5.77824 38.6687 5.79281C38.6822 5.80739 38.6893 5.82671 38.6885 5.84653C38.687 5.88552 38.6862 5.92447 38.6862 5.96337C38.6872 6.21848 38.719 6.47253 38.7811 6.71998C38.7858 6.73924 38.7827 6.7596 38.7725 6.77658C38.7622 6.79355 38.7456 6.80575 38.7263 6.81049C38.7205 6.81185 38.7144 6.81246 38.7084 6.81229V6.81266ZM41.7453 6.74728C41.7272 6.74728 41.7097 6.74069 41.696 6.72873C41.4742 6.53715 41.2219 6.3839 40.9497 6.27529C40.9406 6.27157 40.9323 6.26611 40.9253 6.25919C40.9183 6.25228 40.9128 6.24406 40.909 6.23501C40.9052 6.22595 40.9032 6.21623 40.9031 6.20641C40.9031 6.19658 40.905 6.18684 40.9087 6.17775C40.9124 6.16865 40.9179 6.16037 40.9248 6.15339C40.9317 6.14641 40.9399 6.14086 40.949 6.13705C40.958 6.13324 40.9677 6.13126 40.9776 6.13121C40.9874 6.13116 40.9971 6.13304 41.0062 6.13675C41.2939 6.25161 41.5604 6.41366 41.7947 6.61623C41.8061 6.62626 41.8143 6.63955 41.8179 6.65431C41.8216 6.66907 41.8208 6.68461 41.8154 6.69885C41.81 6.71309 41.8004 6.72536 41.7879 6.73401C41.7754 6.74267 41.7605 6.7473 41.7453 6.74728ZM37.4617 6.45952C37.4444 6.45952 37.4277 6.45357 37.4144 6.44267C37.401 6.43176 37.3918 6.41658 37.3884 6.39968C37.3849 6.38279 37.3874 6.36522 37.3954 6.34996C37.4034 6.33469 37.4165 6.32266 37.4324 6.3159C37.7128 6.19608 38.0022 6.09854 38.298 6.02418C38.3171 6.01975 38.3372 6.023 38.3539 6.03324C38.3706 6.04347 38.3827 6.05987 38.3874 6.07891C38.3922 6.09794 38.3893 6.11807 38.3793 6.13498C38.3694 6.15189 38.3532 6.16421 38.3342 6.16929C38.0461 6.24177 37.7641 6.33681 37.4909 6.45354C37.4817 6.45733 37.4718 6.45924 37.4618 6.45915L37.4617 6.45952ZM40.1069 6.05402C40.1035 6.05402 40.1002 6.0538 40.0969 6.05335C39.9114 6.0288 39.7244 6.01661 39.5373 6.01685C39.4287 6.01685 39.3212 6.02059 39.2114 6.02837C39.2015 6.0294 39.1914 6.02842 39.1818 6.02547C39.1722 6.02253 39.1633 6.01769 39.1556 6.01123C39.1479 6.00478 39.1416 5.99685 39.1371 5.98791C39.1325 5.97897 39.1298 5.96921 39.1291 5.9592C39.1284 5.9492 39.1297 5.93915 39.133 5.92966C39.1362 5.92018 39.1414 5.91144 39.1481 5.90398C39.1548 5.89652 39.1629 5.89048 39.172 5.88622C39.1811 5.88197 39.1909 5.87959 39.201 5.87921C39.3142 5.87106 39.4254 5.86612 39.5376 5.86725C39.7313 5.86701 39.9248 5.87965 40.1169 5.9051C40.1357 5.90763 40.1528 5.91721 40.1648 5.93189C40.1768 5.94657 40.1828 5.96526 40.1815 5.98417C40.1803 6.00309 40.1719 6.02082 40.1581 6.03379C40.1442 6.04676 40.126 6.05399 40.107 6.05402H40.1069ZM38.7941 5.03777C38.782 5.03777 38.77 5.03481 38.7593 5.02916C38.7485 5.0235 38.7393 5.01531 38.7325 5.00531C38.7256 4.9953 38.7213 4.98377 38.7198 4.97172C38.7184 4.95967 38.72 4.94745 38.7243 4.93612C38.7579 4.84853 38.7967 4.76086 38.8394 4.67558C38.9341 4.48694 39.0388 4.30345 39.1529 4.12587C39.1636 4.10932 39.1806 4.09771 39.1999 4.09358C39.2192 4.08945 39.2394 4.09313 39.256 4.10382C39.2726 4.11451 39.2843 4.13134 39.2886 4.15063C39.2928 4.16993 39.2893 4.19012 39.2787 4.2068C39.1674 4.37989 39.0654 4.55874 38.9731 4.74261C38.9326 4.82354 38.8958 4.90672 38.864 4.98945C38.8586 5.00364 38.849 5.01586 38.8366 5.02449C38.8241 5.03312 38.8093 5.03775 38.7941 5.03777ZM39.7577 3.52043C39.7433 3.52043 39.7293 3.5163 39.7172 3.50853C39.7051 3.50076 39.6956 3.48968 39.6896 3.47661C39.6837 3.46354 39.6816 3.44903 39.6837 3.43483C39.6857 3.42062 39.6919 3.40731 39.7013 3.39648C39.9016 3.16738 40.1171 2.95199 40.3463 2.75177C40.3613 2.73871 40.3809 2.73213 40.4007 2.73349C40.4205 2.73485 40.439 2.74404 40.4521 2.75902C40.4651 2.77401 40.4717 2.79358 40.4704 2.81341C40.469 2.83325 40.4598 2.85173 40.4448 2.86479C40.2206 3.06048 40.0099 3.2711 39.8141 3.49522C39.807 3.5032 39.7984 3.50957 39.7886 3.51392C39.7789 3.51827 39.7684 3.52048 39.7577 3.52043ZM41.1109 2.33296C41.0949 2.33296 41.0793 2.32783 41.0664 2.31831C41.0535 2.3088 41.044 2.29541 41.0393 2.2801C41.0346 2.2648 41.035 2.24839 41.0403 2.23329C41.0456 2.21819 41.0556 2.2052 41.0689 2.19622C41.3208 2.02625 41.5822 1.87083 41.8519 1.73073C41.8606 1.72589 41.8703 1.72284 41.8802 1.72177C41.8901 1.7207 41.9002 1.72163 41.9097 1.72451C41.9193 1.72738 41.9282 1.73214 41.9359 1.73851C41.9436 1.74488 41.9499 1.75272 41.9545 1.76157C41.9591 1.77043 41.9619 1.78012 41.9628 1.79007C41.9636 1.80003 41.9624 1.81004 41.9592 1.81953C41.9561 1.82901 41.9511 1.83778 41.9446 1.84531C41.938 1.85283 41.93 1.85897 41.921 1.86335C41.6564 2.0009 41.3999 2.15341 41.1527 2.32016C41.1403 2.3285 41.1258 2.33295 41.1109 2.33296ZM42.7086 1.49914C42.6912 1.49915 42.6743 1.49306 42.6608 1.48193C42.6474 1.47079 42.6383 1.45531 42.6351 1.43816C42.6318 1.42101 42.6347 1.40327 42.6432 1.38802C42.6517 1.37276 42.6652 1.36095 42.6815 1.35463C42.9643 1.24433 43.2526 1.14886 43.5453 1.06859C43.5645 1.06336 43.5849 1.06595 43.6022 1.07579C43.6194 1.08563 43.632 1.10192 43.6372 1.12106C43.6425 1.14021 43.6399 1.16064 43.63 1.17788C43.6202 1.19511 43.6039 1.20773 43.5848 1.21295C43.297 1.29176 43.0136 1.38559 42.7356 1.49406C42.727 1.49742 42.7179 1.49915 42.7086 1.49914ZM47.0901 1.09125C47.0838 1.09125 47.0775 1.09047 47.0713 1.08893C46.7984 1.01967 46.5202 0.972637 46.2397 0.948308C46.2299 0.947424 46.2204 0.944621 46.2117 0.94006C46.203 0.9355 46.1953 0.92927 46.189 0.921726C46.1827 0.914183 46.1779 0.905474 46.175 0.896097C46.1721 0.886719 46.171 0.876857 46.1719 0.867074C46.1728 0.85729 46.1756 0.847776 46.1802 0.839075C46.1847 0.830375 46.191 0.822657 46.1985 0.816364C46.206 0.810071 46.2148 0.805326 46.2241 0.802398C46.2335 0.799471 46.2434 0.798419 46.2532 0.799304C46.5418 0.82442 46.8279 0.8728 47.1087 0.943969C47.1264 0.948475 47.1418 0.959283 47.1521 0.974359C47.1623 0.989436 47.1667 1.00774 47.1645 1.02584C47.1622 1.04393 47.1534 1.06057 47.1397 1.07261C47.126 1.08466 47.1083 1.09129 47.0901 1.09125ZM44.447 1.02393C44.4281 1.02404 44.4099 1.01701 44.396 1.00425C44.3821 0.991489 44.3735 0.973945 44.372 0.955133C44.3705 0.936321 44.3762 0.917632 44.3878 0.902813C44.3995 0.887994 44.4164 0.87814 44.435 0.875227C44.735 0.826419 45.0376 0.79495 45.3412 0.780977C45.351 0.780444 45.3609 0.781876 45.3701 0.785189C45.3794 0.788503 45.3879 0.793631 45.3952 0.800275C45.4025 0.806918 45.4083 0.814944 45.4125 0.823883C45.4166 0.832822 45.4189 0.842495 45.4193 0.852338C45.4197 0.862151 45.4182 0.871955 45.4149 0.881191C45.4115 0.890426 45.4064 0.898912 45.3998 0.906163C45.3931 0.913415 45.3851 0.91929 45.3763 0.923454C45.3674 0.927618 45.3577 0.929988 45.3479 0.93043C45.0501 0.944127 44.7533 0.975021 44.459 1.02296C44.4551 1.02348 44.451 1.02368 44.447 1.02356V1.02393Z" fill="#1E1E1E"/>
</svg>
